<mxfile host="app.diagrams.net" modified="2023-09-01T21:01:27.202Z" agent="Mozilla/5.0 (Windows NT 10.0; Win64; x64) AppleWebKit/537.36 (KHTML, like Gecko) Chrome/115.0.0.0 Safari/537.36" etag="dIRcTKyfX3komPtIrfj_" version="21.7.2" type="device">
  <diagram name="Page-1" id="M1r8aZdZh8RgVefqJigA">
    <mxGraphModel dx="989" dy="539" grid="1" gridSize="10" guides="1" tooltips="1" connect="1" arrows="1" fold="1" page="1" pageScale="1" pageWidth="850" pageHeight="1100" math="0" shadow="0">
      <root>
        <mxCell id="0" />
        <mxCell id="1" parent="0" />
        <mxCell id="z3O-kE5tGYuGeqdBjOB8-1" value="User" style="html=1;verticalLabelPosition=bottom;align=center;verticalAlign=top;strokeWidth=2;strokeColor=#0080F0;shadow=0;dashed=0;shape=mxgraph.ios7.icons.user;" vertex="1" parent="1">
          <mxGeometry x="40" y="70" width="50" height="50" as="geometry" />
        </mxCell>
        <mxCell id="z3O-kE5tGYuGeqdBjOB8-2" value="Browser" style="dashed=0;outlineConnect=0;html=1;align=center;labelPosition=center;verticalLabelPosition=bottom;verticalAlign=top;shape=mxgraph.weblogos.chrome" vertex="1" parent="1">
          <mxGeometry x="160" y="64" width="60" height="62" as="geometry" />
        </mxCell>
        <mxCell id="z3O-kE5tGYuGeqdBjOB8-3" value="" style="endArrow=classic;html=1;rounded=0;" edge="1" parent="1">
          <mxGeometry width="50" height="50" relative="1" as="geometry">
            <mxPoint x="105" y="97" as="sourcePoint" />
            <mxPoint x="155" y="97" as="targetPoint" />
          </mxGeometry>
        </mxCell>
        <mxCell id="z3O-kE5tGYuGeqdBjOB8-37" style="edgeStyle=orthogonalEdgeStyle;rounded=0;orthogonalLoop=1;jettySize=auto;html=1;entryX=0;entryY=0.25;entryDx=0;entryDy=0;fillColor=#0050ef;strokeColor=#001DBC;strokeWidth=3;" edge="1" parent="1" source="z3O-kE5tGYuGeqdBjOB8-23" target="z3O-kE5tGYuGeqdBjOB8-33">
          <mxGeometry relative="1" as="geometry" />
        </mxCell>
        <mxCell id="z3O-kE5tGYuGeqdBjOB8-49" value="1" style="edgeLabel;html=1;align=center;verticalAlign=middle;resizable=0;points=[];" vertex="1" connectable="0" parent="z3O-kE5tGYuGeqdBjOB8-37">
          <mxGeometry x="-0.0982" y="-1" relative="1" as="geometry">
            <mxPoint as="offset" />
          </mxGeometry>
        </mxCell>
        <mxCell id="z3O-kE5tGYuGeqdBjOB8-23" value="Searching" style="html=1;verticalLabelPosition=top;align=center;labelBackgroundColor=#ffffff;verticalAlign=bottom;strokeWidth=2;strokeColor=#0080F0;shadow=0;dashed=0;shape=mxgraph.ios7.icons.looking_glass;labelPosition=center;" vertex="1" parent="1">
          <mxGeometry x="255" y="30" width="50" height="50" as="geometry" />
        </mxCell>
        <mxCell id="z3O-kE5tGYuGeqdBjOB8-70" style="edgeStyle=orthogonalEdgeStyle;rounded=0;orthogonalLoop=1;jettySize=auto;html=1;fillColor=#d80073;strokeColor=#A50040;strokeWidth=3;" edge="1" parent="1">
          <mxGeometry relative="1" as="geometry">
            <mxPoint x="330" y="103" as="sourcePoint" />
            <mxPoint x="520" y="103" as="targetPoint" />
            <Array as="points">
              <mxPoint x="490" y="103" />
              <mxPoint x="490" y="103" />
            </Array>
          </mxGeometry>
        </mxCell>
        <mxCell id="z3O-kE5tGYuGeqdBjOB8-71" value="1" style="edgeLabel;html=1;align=center;verticalAlign=middle;resizable=0;points=[];" vertex="1" connectable="0" parent="z3O-kE5tGYuGeqdBjOB8-70">
          <mxGeometry x="0.3032" y="-2" relative="1" as="geometry">
            <mxPoint as="offset" />
          </mxGeometry>
        </mxCell>
        <mxCell id="z3O-kE5tGYuGeqdBjOB8-80" style="edgeStyle=orthogonalEdgeStyle;rounded=0;orthogonalLoop=1;jettySize=auto;html=1;entryX=0;entryY=0.75;entryDx=0;entryDy=0;strokeWidth=3;fillColor=#60a917;strokeColor=#2D7600;" edge="1" parent="1" source="z3O-kE5tGYuGeqdBjOB8-24" target="z3O-kE5tGYuGeqdBjOB8-33">
          <mxGeometry relative="1" as="geometry">
            <Array as="points">
              <mxPoint x="430" y="136" />
            </Array>
          </mxGeometry>
        </mxCell>
        <mxCell id="z3O-kE5tGYuGeqdBjOB8-81" value="1" style="edgeLabel;html=1;align=center;verticalAlign=middle;resizable=0;points=[];" vertex="1" connectable="0" parent="z3O-kE5tGYuGeqdBjOB8-80">
          <mxGeometry x="0.3366" relative="1" as="geometry">
            <mxPoint as="offset" />
          </mxGeometry>
        </mxCell>
        <mxCell id="z3O-kE5tGYuGeqdBjOB8-24" value="Display related sequences" style="html=1;verticalLabelPosition=bottom;align=center;labelBackgroundColor=#ffffff;verticalAlign=top;strokeWidth=2;strokeColor=#0080F0;shadow=0;dashed=0;shape=mxgraph.ios7.icons.monitor;" vertex="1" parent="1">
          <mxGeometry x="270" y="110" width="60" height="43" as="geometry" />
        </mxCell>
        <mxCell id="z3O-kE5tGYuGeqdBjOB8-25" value="" style="endArrow=classic;html=1;rounded=0;" edge="1" parent="1" source="z3O-kE5tGYuGeqdBjOB8-2">
          <mxGeometry width="50" height="50" relative="1" as="geometry">
            <mxPoint x="200" y="50" as="sourcePoint" />
            <mxPoint x="250" y="60" as="targetPoint" />
          </mxGeometry>
        </mxCell>
        <mxCell id="z3O-kE5tGYuGeqdBjOB8-27" value="" style="endArrow=classic;html=1;rounded=0;" edge="1" parent="1" target="z3O-kE5tGYuGeqdBjOB8-2">
          <mxGeometry width="50" height="50" relative="1" as="geometry">
            <mxPoint x="260" y="130" as="sourcePoint" />
            <mxPoint x="300" y="80" as="targetPoint" />
          </mxGeometry>
        </mxCell>
        <mxCell id="z3O-kE5tGYuGeqdBjOB8-41" style="edgeStyle=orthogonalEdgeStyle;rounded=0;orthogonalLoop=1;jettySize=auto;html=1;entryX=1;entryY=0;entryDx=0;entryDy=0;fillColor=#0050ef;strokeColor=#001DBC;strokeWidth=3;" edge="1" parent="1" source="z3O-kE5tGYuGeqdBjOB8-33" target="z3O-kE5tGYuGeqdBjOB8-36">
          <mxGeometry relative="1" as="geometry">
            <Array as="points">
              <mxPoint x="567" y="230" />
              <mxPoint x="567" y="230" />
            </Array>
          </mxGeometry>
        </mxCell>
        <mxCell id="z3O-kE5tGYuGeqdBjOB8-50" value="2" style="edgeLabel;html=1;align=center;verticalAlign=middle;resizable=0;points=[];" vertex="1" connectable="0" parent="z3O-kE5tGYuGeqdBjOB8-41">
          <mxGeometry x="-0.3938" y="-1" relative="1" as="geometry">
            <mxPoint as="offset" />
          </mxGeometry>
        </mxCell>
        <mxCell id="z3O-kE5tGYuGeqdBjOB8-74" style="edgeStyle=orthogonalEdgeStyle;rounded=0;orthogonalLoop=1;jettySize=auto;html=1;entryX=0.75;entryY=0;entryDx=0;entryDy=0;fillColor=#d80073;strokeColor=#A50040;strokeWidth=3;" edge="1" parent="1" source="z3O-kE5tGYuGeqdBjOB8-33" target="z3O-kE5tGYuGeqdBjOB8-65">
          <mxGeometry relative="1" as="geometry">
            <Array as="points">
              <mxPoint x="586" y="290" />
              <mxPoint x="586" y="290" />
            </Array>
          </mxGeometry>
        </mxCell>
        <mxCell id="z3O-kE5tGYuGeqdBjOB8-88" value="2" style="edgeLabel;html=1;align=center;verticalAlign=middle;resizable=0;points=[];" vertex="1" connectable="0" parent="z3O-kE5tGYuGeqdBjOB8-74">
          <mxGeometry x="0.3348" relative="1" as="geometry">
            <mxPoint as="offset" />
          </mxGeometry>
        </mxCell>
        <mxCell id="z3O-kE5tGYuGeqdBjOB8-78" style="edgeStyle=orthogonalEdgeStyle;rounded=0;orthogonalLoop=1;jettySize=auto;html=1;entryX=1.061;entryY=0.241;entryDx=0;entryDy=0;entryPerimeter=0;fillColor=#d80073;strokeColor=#A50040;strokeWidth=3;" edge="1" parent="1" source="z3O-kE5tGYuGeqdBjOB8-33" target="z3O-kE5tGYuGeqdBjOB8-24">
          <mxGeometry relative="1" as="geometry">
            <Array as="points">
              <mxPoint x="430" y="120" />
            </Array>
          </mxGeometry>
        </mxCell>
        <mxCell id="z3O-kE5tGYuGeqdBjOB8-79" value="4" style="edgeLabel;html=1;align=center;verticalAlign=middle;resizable=0;points=[];" vertex="1" connectable="0" parent="z3O-kE5tGYuGeqdBjOB8-78">
          <mxGeometry x="-0.3049" y="1" relative="1" as="geometry">
            <mxPoint as="offset" />
          </mxGeometry>
        </mxCell>
        <mxCell id="z3O-kE5tGYuGeqdBjOB8-83" style="edgeStyle=orthogonalEdgeStyle;rounded=0;orthogonalLoop=1;jettySize=auto;html=1;strokeWidth=3;fillColor=#60a917;strokeColor=#2D7600;entryX=0.5;entryY=0;entryDx=0;entryDy=0;" edge="1" parent="1" source="z3O-kE5tGYuGeqdBjOB8-33" target="z3O-kE5tGYuGeqdBjOB8-66">
          <mxGeometry relative="1" as="geometry">
            <mxPoint x="730" y="580" as="targetPoint" />
            <Array as="points">
              <mxPoint x="650" y="600" />
              <mxPoint x="650" y="600" />
            </Array>
          </mxGeometry>
        </mxCell>
        <mxCell id="z3O-kE5tGYuGeqdBjOB8-84" value="2" style="edgeLabel;html=1;align=center;verticalAlign=middle;resizable=0;points=[];" vertex="1" connectable="0" parent="z3O-kE5tGYuGeqdBjOB8-83">
          <mxGeometry x="-0.2644" y="2" relative="1" as="geometry">
            <mxPoint as="offset" />
          </mxGeometry>
        </mxCell>
        <mxCell id="z3O-kE5tGYuGeqdBjOB8-89" style="edgeStyle=orthogonalEdgeStyle;rounded=0;orthogonalLoop=1;jettySize=auto;html=1;strokeWidth=3;fillColor=#60a917;strokeColor=#2D7600;" edge="1" parent="1" source="z3O-kE5tGYuGeqdBjOB8-33" target="z3O-kE5tGYuGeqdBjOB8-24">
          <mxGeometry relative="1" as="geometry">
            <Array as="points">
              <mxPoint x="380" y="150" />
              <mxPoint x="380" y="150" />
            </Array>
          </mxGeometry>
        </mxCell>
        <mxCell id="z3O-kE5tGYuGeqdBjOB8-90" value="4" style="edgeLabel;html=1;align=center;verticalAlign=middle;resizable=0;points=[];" vertex="1" connectable="0" parent="z3O-kE5tGYuGeqdBjOB8-89">
          <mxGeometry x="-0.17" y="-1" relative="1" as="geometry">
            <mxPoint as="offset" />
          </mxGeometry>
        </mxCell>
        <mxCell id="z3O-kE5tGYuGeqdBjOB8-91" style="edgeStyle=orthogonalEdgeStyle;rounded=0;orthogonalLoop=1;jettySize=auto;html=1;entryX=0.667;entryY=0;entryDx=0;entryDy=0;entryPerimeter=0;fillColor=#0050ef;strokeColor=#001DBC;strokeWidth=3;" edge="1" parent="1" source="z3O-kE5tGYuGeqdBjOB8-33" target="z3O-kE5tGYuGeqdBjOB8-24">
          <mxGeometry relative="1" as="geometry">
            <Array as="points">
              <mxPoint x="310" y="90" />
            </Array>
          </mxGeometry>
        </mxCell>
        <mxCell id="z3O-kE5tGYuGeqdBjOB8-92" value="9" style="edgeLabel;html=1;align=center;verticalAlign=middle;resizable=0;points=[];" vertex="1" connectable="0" parent="z3O-kE5tGYuGeqdBjOB8-91">
          <mxGeometry x="-0.5023" relative="1" as="geometry">
            <mxPoint as="offset" />
          </mxGeometry>
        </mxCell>
        <mxCell id="z3O-kE5tGYuGeqdBjOB8-33" value="Nginx endpoint" style="swimlane;whiteSpace=wrap;html=1;" vertex="1" parent="1">
          <mxGeometry x="530" y="13.710000000000004" width="180" height="162.57" as="geometry" />
        </mxCell>
        <mxCell id="z3O-kE5tGYuGeqdBjOB8-34" value="" style="shape=image;verticalLabelPosition=bottom;verticalAlign=top;imageAspect=0;aspect=fixed;image=data:image/webp,UklGRlIlAABXRUJQVlA4IEYlAAAQGAGdASpiA4oCPm02mkkmJKQiIvNI0MANiWVu/E85p3LHDMq/Svzr/mWwS9Z/wn7C/zn93PQTvec//n/53/n++wYt/1/1J9ZnxH8u/8v9J/zHvi/vf+99g/6w/2H5////7AP4h/If1P/y/YM/dj1Af6L/dfsL743+p/cj3H/3H1AP7r/4P/////f59RD0CvLV9lT+qf9T9u///8if+S/on////PuAf//2+OkP9n/vf+l/uHt3+h/wn+089+uh8b8Rr5vq2vuvZ1/Wd6fAC/Hv6V/j/aReU/MqAPBVmF/hOoB56d7RQA8aLOe/BiLvlE9/Id59o+bVzrRKe8+0fNq51olPefaPm1c60SnvPtHzaudaJT3n2j5tXOtEp7z7R82rnWiU959o+bVzrRKe8+0fNq51olPefaPm1c60SnvPtHzaudaJT3n2j5tXOtEp7z7R82rnWiU959o+PIXcvv/9Oee2Te/dTgnZf7L7R82rnEH3swzz93+Cz2TwDpGJ8AWvyHefaPm1c60SnvPtHzaHTSyqQthtzjCs2J91ie8+0fG/n++rcDVHNJkh3FKJ7+Q7z7R82rnWiU953qOvLCrORMfKfgxWWqIhK1XOs37UH1i2FJMjyNN0fNq51olPefaPm1c60TYFQM2FY3ya4V86r9gh3nxk5P5DCbS0SnvPtHzaudaJT3n3xk2X2MDfJrhXzznUHefYuo3quzq4MEO8+0fNq51olPefanGn/aPDl05aBER7A72j5B5DltLE1XOtEp7z7R82rnWiU+Ez4pRPeih1X1bhcvhNpZ0gpaITP8h3n2j5tXOtEp7z7R87/wdaJT06mWehP9+RWStRwzhrtn/aPm1c60SnvPtHzaudbMWdV9AW1XK7Nf6bcWdNucMh0ih+E2iGG5ehNl9o+bVzrRKe8+0fNq52fWE12tHmRKYxik27lN7GBvk1vJ6nzfmCNikftwh3n2j5tXOtEp7z7R83FhMlE8cJAr1Sv0e7nOE/Yt34MGeD4+YmG5ehNl9o+bVzrRKe8+0fNq52fWE120a70/OuPD+L5Hh01BdOCWvY6wLkbFI/bhDvPtHzaudaJT3n2j5uLCZKJ5DhyTXJwDjKLlHizptzjCs2KCQe4WJPrx3yie/kO8+0fNq51olQBuAohNRJqvgpoeW7WqoBRtETpQ+hwZWruFiT68d8onv5DvPtHzaudaJUAbgKITUSdtBR1KdcXHHKPFnTbnM3tLvp4PDAKPm1c60SnvPtHzaudaJsCn/GTk/rN9fCZMGQdf4k+e/kOm8Uonv5DvPtHzaudaJT3oGssTIJsUonlsT+czhFNoFpsEO82liarnWiU959o+bVzrRKfCZ8Uj9wsUFEtJNcnAONV5UR875H7cId59o+bVzrRKe8+0fNxYTJRPIcvtHxvMtSc9S6vaUZCiYIyVqudaJT3n2j5tXOtEqANwFEJqJO+UTy2M/9Ru1qqAUbSrs6uDBDvPtHzaudaJT3n2M7liWcK6U/QbuZMlpLVzrRKZZAr1SuzNoFpr2hNxjR6n1c60SnvPtHzaudaJT3nwhWvdOZMfpdGZDRFmjlPefaPjeZak56l/JV6KF9TT1n0udaJT3n2j5tXOtEp7z7Q2fg49n3USZLrZ9aJT3n2hnKD4IU2SI/+zpXtHzaudaJT3n2jugUNLjCrBzL9TAfRhn7UIUZJjD65WToHH6anE2UXx9L7FI4Ug78P1//ZUoAO9VKpBVAsoEJ+x2rvcCliDSn5gPmqi5hXGRSSVdaJT3n2GwaT/HqkdAscg/EQZ5eSTrZSmAOCMFvOTI5Pt3biPwHruB90l9/ski+P03xzJc6QJkZYGfQRRxdasxXdJjoUHTsNSA/X6q3xfwsRak+JmaW083RgX3lH5W3olPefaIThOnDIcyHHg5vNXOH6ZJOYFc2jRlP4Z3VumRx6bQ6qgc7mQX+yJagwCIyhhvW1XEiKa/I3/2xe8jKRaDmM8N+HvSJLRBim2mOGXS51olPebSPQPIWHG3gQ1eHqfY58/l2qplAgY1x+/dqfjoBAj7OLBQ5rQdxc9yqgj1en042NkzS5eV1pJYIYeKjoYJEJTAMog4eYyW+escjEFyGm1qjXCiPId59o+agfne3ywau0Pjz5SGll5Fta8reliAnCeIQTZh2I0Noy4dWgMA3X5v6zO31Tj+QySfomwyRnYHAk1PQ1fa4hmMGHTyTvRwsDGgB+VwbtgPFdKqZYXxUDBTVKXRubsj59o+bVzquvvRSGFue+t8roZJdE4MGYh9DwQmBW51X9UNKQatK3DD6PtCro2Osio2T+mpSsQOhWsWcCbmbUGNGfR/aw9E/lCGRugSbDDA+SRpWgVcpMAFybEUnQQ7z7R82jgm7f+cjSJu2JSWWx4J/2adSSGwR4GTU3XtwCMjPCkGlkutIeTDQqrphMFEznNwPKiks79drD0T+T19Ll5XIhOM2OnGuEq5wUFi4d6O4LxCiyNzXKJ7+Q7zaSbt7DriZJhbKZzSGLIKRhOwZGZjNJOpLpdy6ZJPHajzaRgKrkJ9+bAI23Ue3MQHXZKqcLvawz8ubTzdMOeu1xgOjTAKplhfFPzb10h7WIf8o+bVzrQ67RdJUsZvPDlcvg0hkuPZpE0kHiWKa8FREzgn25DTr7Xo9AypuikhX93l61iW5uoXiVH92sPRP5PYE32NOquDacsWpOs4qfuTEc3m5tmyVNdicjVIsdDzonKYO+w9/Id59hickL6Mha6gPCGMN5slSsfkb69bFABfZ2nElYcfsOCxzZsiUEdUS948ALWg01UUvBtPmyfvUVeMpicsX2SmRtXqPlYi+LgV1cJCXjl5xv5Nnc4MEO8+0fNq52E251omBVxQZQfNJXkO9M1rrhyUT38h3n2j5tXOtEp7z7R82rnWiU959o+bVzrRKe8+0fNq51olPefaPm1c60SnvPtHzaudaJT3n2j5tXOtEp7z7R82rnWiU959o+bVzrRKZAAD+/6tgAAAAAAAAAAAAAAADnZryCe7yaNeqvjyt1lxHsi1dmYRPKIyOeTWNx6/v7lB1Q168hx74NKnkg0Y9luzlUq1Lsrz9tj+AUTglTP3wo/RDAIa1xxeaSIoHXkga7t5jw1nqXmZ+cPHkKGZbW7NsgRUJAN1ZyQAbylEn9Domc937Nit4evnnPz65bQtGjdgCwaY54t/VRKbecBF4ONJXp7RwJ/yHHPGyeDmbDwWPA4ryCJyWMCAZxYW1LYcC55ib6trBo31h2ZbfzdzbZ9olo4Bn/OsMg4+BI1nTsmeSfIRuTJY4rJcaUyyqU0wlR8jhN2hPK0iiWx9OQ+2OBtzCq3BuO0U69RQRtc1WPvlsCtGoREhIyjuoY3wEyHR9LlPTorgKaH2pMURwG3j+tYrFWywAD6ymXKx2JSgjeO8o9lN5oVJH/q+H2ELfMYIyPEWugFmmIh5AE29Wfz33er3wn1s9ka1HpxdpVFOIj3w5bCVIoczts2sBjrdMonndbpw17b98DZ9jV3dDblY7EthS+q7/ULRZR1CNIS7xcEqntASN9tdm0d6DCICL3XSL8ky8J5ISlBTTHiOQXHUf7TswvULpljt568QwjSC31FBMmCF1dNQ62zDIwfOa+b+H06QaEwjnHYfAAo/usmK1Tm1x8YwkIcyatGB8bEPx6w5efbUtsIxYyu0jcshnI3LIZyOH9mgV6U6N/47t2HDYHdw0POMhxhx0iVS0F3ST2tiN9zjseZQzT7DgRBI+tNlYLUSTeEUmtYjv7Rga9yxXV1QBAzvR7/mjrScn8PUOBe/DFxWAx1umUTzut04a9t++Bs+xsbPwAAB7tJ6u3D3/NHWk5P4eocO7WR+y3jM0C5bZuD8KJyjfhLIr4AAAd522L8oBFjF5cn66Wd7MvsIG6A5j856/yq0ukSvJdBoAABS6neJY9/zRNLd0vBr4iFfYQN0BzH5z1/lVpdIleS6DQAACl1O8Sx7/mi2S8hggCRVdfYQN0BzH5z1/lVpdIleS6DQAAjctX8wR+Z4VQf9OYm2/0UvU1oJ2b3ASMRBhBrM0Ux9zioPc1UNoL1AAQnGmklVVIPA4llUd4mwl4cpTfQahLfZtfjMA45KoNddf8uQ0OeowVTcAACYLwq4T59TRpmnOeaAYhcze4EuklIJ7vz6sls4MFjABG/DplJfoWrYuwUclLXj+aL7CBugOY/Oev8qtLpEryXQaAAAr7ZPkximAUvsxvWAQfdQQOTCveHKDw/b6cbi4IpXGS0MCRNvQkA4fSzvZl9hA3QHMfnPX+VWl0iV5LoNAABfcRlIrqBTB39zgmMsI4KNubYelXF0/ezG2H24mGrKo7xNhLw5Sm+g1lUeznfjMA45KoNddf8uQ0OeowVTcAAEtjs8Oet1TL+5wTGWEcFKIf2Qdsdnkn3sxth9uJhrSVbhO3DXymxq7ctJ6v7fjMA45KoNddf8uQ0OeowVTcAAElIJ7v0AoPEN6G1WAQfdQQOTCveHKDw/b6cbi4IpXBGRQk9lfvILlR7/nwX2EDdAcx+c9f5VaXSJXkug0AAGKg9Ec2hkmxsNKu6JJcbAO25g3cW3Re9mNsPtxMNT6TvfRageaUHzFAkogER2TlhcJ51kAAHXfmaIvYsImw0q7oklxrv71tl094Pq97MbYfbiYVAABg4tt8Lw1/jQb0NqsAg+6ggcmFe8QlTw/b6cbi4HgAAS816hTtuYvMbDSruiSXGuwITiPGfoGh4ft9ONxcDwAAJr1u03g4w/jXSfn4ywjgpRD+yRFit0GeH7fTjcXA8AACcFsSAHryQXg3obVYBB91SbxuI1bKIXe9mNsPtxMKgB8lumiPrxSOw9WFNqqJ/Kt+n07ZfvU2PbIdS9Xe3/NdajJGrWfAVV26GMzlKEdeXQsgTC8Vi48u7Nu0dKnEfjs8R40CtPwN6G1WAQfdQQOTCvff+972Y2w+3Ew1eKvVq1xGOnkrQbiVOXQssjIHnlGWtdFJfyuPLC8LgDeV0aE4AUgbak9gQbjdmTyqFF8im8mmzuOxz92kM2jOvnGGky0py+rFY2yzpCQfjZoy9eEGbW9C/YlXqxw/N/jYMm5PIWUnXdGn59rFigtAQycWhFEAijQDQSjGk3CwdwAFMYDPZKTAZTWeoSIwDIze7Bo8Z3Dk0ab+i8NfHgN6G1WAQfdRX7HCnK+PTySbr08LWierw24zeyvStKh2aaz7rsbLuOMUVHemJxMNnVQ4q2BF29YM2xkWXqFn+LtCum4rlpr+lLXXM3LT4f/Nn0ep474AAAjd2c0oOCURsXrHMTRREK4A+1NwGQaK89NGsZ+mLGIrqjL+iV6qdD8lmiSezG9zt0uzW1XNnI3Kv5iSnHssEbozHtD3cazvYElo3rQHI2kAMXa/WFsu6BiwB9qYdQ2nSjCmZEirKCr1Dsxkrxs8FcxAgz5KBnUo1vFt/m//lJZxPMjgA5vG1SmuxKwRur0JptRzrfzPDuNdC/A9yR6LTaOctgAeuG9MxJWTER00d+IYJwgA0TseqqPsYhGJiZ5Rq8f97yDaoFGd5a4+4HRlkjWB9Hu7MCLZJTNrgQpm2qvENSa21dJBlw4k8muOOEcbGLsale76jdm8Wa1j85OlN1YLHmxqaAhikljRVhXHun3ObvzjvOqBBvqAb9RGQBsZLepEhqudlAbwhrOkUyJGw7uLnSp9uSCoSpHQvdLXwwmzivMouMDt+pzufjuKdpLnyeUIUw5Q0XakoGPCBMsz9dtyLG18v+6U8gqx0hob78as5IJuZ88izWzhQzQDtGSuIQE99JWv8hIQYvGX/ftgGdSKDO9Qx0V0J1NGnLLTq6xd6IHOHzHvNBjNJOnVBHe92Zq2OcOAwg5JdN0ZRD+yAjeLT80zpSQMes5Bu0bZY8PIjzBmvEu0U8hJU7zZ4c0rzroTife9ED9NzffZf+utt2Z1s5Fug96gNoPZmFmTZs3JwJnNJ6X8gxasmN/3HdlQF4HzAsTeefdjVfraeqMlltfxep1WB7VmUY4TSxYZuevp3nZ9UhMMYfnbzP6JoWaMczexvUvD6pHpS10f8ZEuoIXyeSvC+cXbe0EFWKLiBiSdlB5v117rsoklMw24BFjVFe+Qq3bniqJv9uLXeS/u3u41gY27VlR/mwnmf78NRm4VAfQN2hXDGbAmqsF1+e+r72CNEHeKp+6gX9Os0ldWEtL+jlxsmvkmGFPIOEemnAHhir+B72cJrZG7zm1JvwYBu1b3rzoiDGFV3gxG+2Oy0OI9nbUEN4T5xf0EtmUrbiFx1gtcUgb4BS3p+OAY2m4NQlbcWgo8KAtPwP9gKuQJfyW3SwpZP1QpauGMO8SUIy9IiQFpFliFmATzvbDJDeRUSLuy0E4gE5K4d+ABkc2akegopHqrJ/HxQE7u77/N7bOZ1joQ6TxDUqfA4XAJP6ZXHQUxnmoZkoF4j65F6ljAJcA4NIK3eN1sAobgywS61eSrjgIgKXJPPFgWwpeTMxaQNfzT50gdjcA0eewI2Ow3wjAyZkzxs0bAzIbofAxEPZv2UaLjqWHg3peMBYhRm4AxlQsQo2WNl7ixYyVqrNImIwLGcXBjgFPMm2C1xPjWwAizhZ5UlPMbs2M+OOZ+PSZUXjgPbjhuoMPwgeHnz7q++wI+BI2R/7TzCv40/trAAtAcR+EIz04MkaZXHnSBvj4MeZ94K258V6DGYrd8jwcQbSoqkWXdAHwy6/5OkpvKQjjqmwjDId/2+4+Y82skSR6sguDpQow5OtSmbC+3/6BdpEz/q6PQXFdAT8kWcqiaCpqi3ivPHrsN66jF3+iKH+0e084+GoUkRE3tY/GYDIOSpheHQEco2GTFQkUZoWFmwFxnbdYScOXAq9NjtZfjD+YQwLubvX3QJOSdKu0CODurcvkmmQPAjqazl8CsRkWeAygPU2iK0Mx6glZuRjVDSwe/o61/RvUJ+L6RijevkYo3p3QmnqIzCle3Gkf0P7wvz0stDKyXrwx24TsI7v9kb65R3R2f6yZABmZLN79cs2c89URhSLnoyAJrixyFFbjV+6mZZCd3gYRJANrJuspxdufft6zm/XNNMwzXSQGcF9b+p4Z8e/w4+qN6C9qfquwNn+lqx9743CPw1I/9h5FjDqkGNgEDD2Guxot1GLItHECXS5jxa7OEVacYfmF2mZxJ7H876AJNR947LYwuMCFTEpnZkmyitsKmDELuVuT78S7faTkSbOM6jzAYp6MjwjX55GoZfiVy0CftIOJYiI2Aar2L3urZsksZ6KAP0ZVEFfMcRV/wfBFSgk4uo4TrsxnhumY9hNVWrwehScgz04MkbsAa9QJDft7VbMNMW+rq1VhZMuA8JmB/HZRpPgfPGGpbvkngUvVsowzBF3QB8Muv+TsTzUlQMerZRhkO/7fcfMebWSJI9WQXB3+KEgxOOAlLGOYXRdQfeU5a3s+IpNsUGp0aGmIgcmc+oJzgeiQAmggvkXjNwNX2S1kMXo9aXGouScYq+dQ4YvsHVTfcwT31A4Fb3MIIdXVzknfy5zd6+6BJyTpV2gRwd1bmApTVrotkBYdi+HqBym8rOpYdyCpvoRdsANS7FG9nV3exvu9fWvI2S80H0H/NB9BMFYmN7Sj3zAwiTQA1vI7Jg5ZvkexcV/ssWD2uB8kGLprd5JxZBmTks06GyTgJZglxVxYDD+xqcrA9PyG77ElgW+uFODpBnd9YghI6XtOAJd74QAG/wW4QU4k/5BzR9P5485gM5vl8jVzI8QSOQOryR7whgw0lq2/hE+LFGSqkHg1iTNkqqCw7xI+LcYDivt6zpYAMZdvScKB9veeu4KbeSzpaJzlH7joYPyGzIB39LYMA8cO6caNNRdRpDh7qvXYj0ZGwch18Itb0QTD5KFxs3oXd4C/lyUiWV/KsOU1SD2QmwcucIkLCoPlKXvITlnIcDP8hfbQ3hjHi5o9HOdHi4Yuals7L44cYaw15rAFswd4sz3sBf/xJrX5Re7nm/SMMkRIwzcHFB1iPEjMr8PkMHV+UslAAzye1CClCsy+ozpivVNJfGnHNdyBp/lhYjz0qn6l3VKsk8BMxKke9iu+jY0MTLFroUU9TwenWxu5BljiKo1vOeAA5fgfPGGpbvkngUvVsowzBGEKFCdrDr8CDiqoqhxwDk5OV2WDMGCd3ahlfv9WN+05Z3HYr/czqKqZb24xpIN+ihkE7qr8D0yoGAN6dBk/wAv9uzNmJjcrmrqQvZAZvUrLN0sIC7eIg8vJjugMUlNQL/DetT142+aXNzjO+XA9EgBGCCAH0rb+a2A7+6NHWnitkswxkQMXt9Z/+ZIfXQThJt5FAZ8HbGnrN3r7oiSIuFyUMJlxwd1bmfYU8hyH6B14Nl6c7zgKKZSgoLx3Sal0kV95Py+Ld9BDa3szGM+Pl6pEBZjHVW2vbs6/a0/sanKwSF/CudWZIp6Y4+rgWqFPVw7QB7VHHm5zsWTZgUfRQB48DXIU38Lhrq+RoxDVCccBlFonH2sotwR5KycmiAeQcppYlHT3jSXV5Is3+3i5+up+OrBxWuAQR45aGulbLQqCKNxICn7BYRid3gctaegLT8D/cTVUfkvDUt9QoPNKJ8YPFLCQGcF9b+p4Z8e/w4+leYe1/Y+bWXITqHwn0/gd3QbCRyM+yeWpflujDDn5MhM57hxFuhEaOL6JrKe9e7Qx4o4fJjzaG8pELBJBAX057RpIcj4ddMr2+DRC7yi11dg2Ynnu3xxr4nG9TomurkvvEhos7gXtEb1fJ5FZAULz4kKA88TiouFnGfVgeZ33Qy5j8HNvXnIWRMYvVKrDoLb7bQnFdO1oKc8ZB39SLowfaxJ5rKPKZlaAjQWYle8AcYfzBAgLOeYOsWsLBzCS4CVQGRoiDBdw2+qw2tHY69tqJN9OAWD3wCKOnz1PrpMDBPfhLoIY0ET4+MeNOQqGdPU1Jy6cPWpmGkwxEvFnSzzo+bFCyPr3enTlb66OgsEzqFOf/eRvy6/5OxPNSIjNBVRU/oJYMwYJ3dqGV+/1Y37TxoWRvKzcClkoRnfOh9AtGtEsLEJImnNQdPb3ljaz33ljazDV5YKdd5RSx3Y3+p1WWoih8++Ue9/ITds8iL5RngHji7pcAH2AYAlx9DZwA+7FzbKTC53ougpfCp6Jeqlux2q6eX/dKvMPbUi+mBkdF9BHOjrAZQXRgl3TBf2rushoGfHy9mncBkhh/Mn1vX36s2FDvu7LMY6qjTvGc6lFUKerjtUKeriUJznYsmy/2xNqUKotpwAcfcho3oXfQ/Ou9Ph0amjiQa+EsKvyVVjWqkGY1SaX5a+6ZUCDOYF7bnqOFNMRoefBYvvs4gjoNNU7bfhAM9ibPFYqiZSo4q2XTOxJjS3Pv29ZzfrmmmYZrpIDOC+t/U8M+Pf4cfUxL0RHC+b+/wS0So4uswPPQ8nBitASYUN3bYl2lqh/By8M2MrVpWEwFciwgclj9Daj+FtcUvlxoA8BlueUEhM8xWyfhxbQdcFUf/yqQkIAjU01JtOBg/H8QyFHCY6jDLqpL5t7amxOO7zQmB7hXXDN1zbQiU5Q/3oAC8qidJu8k2j0akxpmTGxDr0qBnIBLosohsCHVZorTZYkR4e7ZhlivE9GFnN6ZGGrxHQykH5mm0zzo8GHDx7T4gTXnM75p0YQY7tuEXc/jtYdfgRbAtEA3EjM1Cls7LBmDBO7tQyv3+rG/aeLmBCctC831/A9IQKmaNQFucsLq4ZGBYblaNRL3itGol5rtCwptzdcsFOu8aAVp4dWRSfwAicUoi+esHahj8OHWvNX++7OLD0riYLu251Bf0cL9VMRBLFG9fIxRfXIfJEMUZF44+uT+CxoIPHXZ4NB45JYIv8Z/ssWEYFnbi2sLIJZO3kNpcInxanFUkcnZg8qGRDQf7L+dX2unchh/UvunG3/AmrCWKydbY8QVr0P9t2e1CDxcUnDZSkFgCxCiINNJ/rX81m/HTRtOOHdY6aDnHVg41hlQIJxicnoS6+KLtCMuyqCwjE7vA5a09A1f4Jb7Hk1DOUskwpCK+PMIOOqebliQ9KrzJAK6ectHjQFL9ttV/fUqjK/PON2C7XquqHvsPr88kcUd8ukj8r+u9xy93U8+5a2BnBn9XraLYz5n1sZuySGqoXkUp4hzTYLqhNARevLgg7YBwCtotSHTDjW3jVrfucYb1x1dRzg3LXDGQHuBM6PQBxYa9y2A5bbqUnv9ADsLhybGQGpu2RkZ2m3rCgMYBLpX/pf+8+qSGF8yr3nLLChuR4346w2gxG8XZ+R4pawjU9qdKA6XMaYhTw3ykIDpcxsOBBVeC/tgOjPpaR+1/Z8mlhOGl2VyLKM+Sk2cSMABp5hpCBUdhziREVZtoSSjXvLG1nvvLG1mGrywU67yiljuxv9K00Gc1Yg1XMilC6Q+Zma4Pl69UqT3zQKAtqKnJiKwumEmIPNB6WRii13vYcS+aD6D/mg+gmCsTG9lIzseL0EcEAoJEKGon3vCoxzhOeZxwKtnnFOHyqtCtY1wEg2wKoEIMMRMNjHza5fpoWfEiH8oVj/M3VcugO/BUBlXcNU34lPyQBhUveoS3lrfEfOqCQku97b0XnL4UXwzIeOxJ7jTO9mT87dOfcRb9F2QL951dV5iQb/U/42bfdTOf/Yn64K0LEpQFKBAVxYQd8MWgk4XgzZgURB1lV4Kt9wbvr63Z3mfZnxYsyCsG9+4/YluBnvPJcOpW9Iwn5otunK3pGEIQEFHVjplaVKjciw7mB0r+jnO1C/BwEpW/jblHojpYgWtmmXIZpmZWPAB4/WVlAJYoLSIU/0lvxMC9tLD1XwzlfDniBxWcaqQyQzo27AkjW1JX+FS/Kv38zHOAZ1AD28ksTn/TJtIXYn+P++K3kPhFSuKz41n3k7LFiyeyAC9krBiFiRAKM/VV1iFlLGVRb+tV5RgOySvEQwohZoViHFuFkp5uiTu5bujCZiGEkGTKlE7gUjYK0MOui2OA+8sbWYavLBTrvKKWO7G/0u0IM7aeTGenkuBD5mZrg+Xr1SpPfGXuN9fS0tSqjxPWuJkNSMUYjAKFyf8uWXmg9LIxRvTuhNPUR+5QbvXqRiPkALMPPd/tBWOMMl13WCKtSrqhXkmE6ACQbYFsr6g9bhrKplsR9b5xTM6CrqWfK1lO+h2TxwXd8sLxx0gwV7RPuX9sTalCqH7AUIzhpy+IQpeM8m5pdUEWDix6bl0LN0sIC7eIg8vJNZZPZOHXW5dJlzHgWnIe3V0kGT9bnvVMXCeOKFx4FX26E0jXKMDBnSdAbJdHz2i7BWhYlKApQICuLCDvhi0EnC8GbMCir9rbmFkWx8hs0wxyHxml2znMF9K7d/FmXP8SiGIwbBoiSgH3lfKxH4+z1aHBINvobKKGofmzGs6IGQvq7wUwFQWVYqtQ5g++FxJWQ3e3CdtUrCyG72zji36xAQRyTNect7dcPxOGMsL8P+0icT9kRrtHK1sMhCI2WcEhkaZhagEqvJzud6vMPZabTKt19RHwnXFBuvNyCmvOtTaqhdcHVX4FZqH6ADTGxDN465kJamNddymqQeuHG0uOIFJjpcxpsHM3t9hVmI8YpvwK/RKIhqPr1OadW3Ro5VWNJsTjjO7DgnXaHthflOgMU/Z/p4rYZLkzzQ6XLn9jOf8YGhJBudu3dVLoLAcErCHEhbpxRq5G4JLWg16GTZQa9DJgReWCnXeUUsd2N/pdmBbpquWaKrgCdMD4dctcmg0MB3CS1r2fyco04ak6V8q/i/NkxJJsJJJj7lAZrJP+68MTX2C9F1uLPq6jeR5lVunQVHaEZ+a0v0x4F11nK0+wm6lKq0K1jXASDbKSEIUJcZfD5ky0+PzmZWSYrcXmfHGnnJM1vBy1KbTHBd3JEwGTo9mOhLPkpKd8Jl9uglIGjgJZjAg6vYr4cmx9KSeWKfNzDsegslk1bO1/lqW7G0kefLQXyk1o8UKlb02zch6klAMoi5dMwZPT6OW/sZ51Rh0zRDqKn9fbAGB4zPeSCgcsox9Qmo281zLApMy7IuSDMpXl7OwBfXXaNpozdXCnBl0vG6T+gtvWeX0EvEib2CK6nI5/WUYhBF47mba70RA5XapYf2oWPPKZE6cGFYzgMTTCNYhbNXl5gD/vIB1s8XQON3uO8X0eZTax7iacDj629158kuHiaTyMYDH0CAROg/cGmM7hu5NL73bXB9/fBmOmbPg7cGcPMuG6i0Pv0Qa1L0ISCbHYZIeArdxIeu/FAgT7ezhXgDiC/E/zEZDit3eo0PsKFUDgVpGlqw5wkPiD6vcslEefWG9zzLY622gRDAVQGvBr61YF6XhGa5ivAD8YrugWkfNqy1VTwaRstqPePO4XObXrmfFOL2b3e3WqUm0B2BMu7oR7sTtzG+jTEox+Wun7mL4gEUMcKsZ65NIAZLbZNYHHEOCAtDbValiN/HixvwZAz5781Z7rIfd/sTNHBTbrTWHKUT7APYIPn6X1bgOHajAAtdE+Uoh3/5rTNdvHse2gtftFBa/1gKc15xG6wIa/GldQMsjEpWmBICXlcTgviqYU0w14My3jNDjby5fhQktbi69rMrkNtuQEGVu89q4B6OSHzhe8JJLMmt9TkP166e/YekF8lsFjpW0VcZCZdJRjFBeCq88y2OAtAkMa76m3rJY7bJOHtVrbsgAAAAAAAAAAAAAAAAAAAAAA==" vertex="1" parent="z3O-kE5tGYuGeqdBjOB8-33">
          <mxGeometry x="12" y="37.05" width="156" height="117.09" as="geometry" />
        </mxCell>
        <mxCell id="z3O-kE5tGYuGeqdBjOB8-51" style="edgeStyle=orthogonalEdgeStyle;rounded=0;orthogonalLoop=1;jettySize=auto;html=1;entryX=0.991;entryY=0.81;entryDx=0;entryDy=0;entryPerimeter=0;strokeWidth=3;fillColor=#0050ef;strokeColor=#001DBC;" edge="1" parent="1" source="z3O-kE5tGYuGeqdBjOB8-36" target="z3O-kE5tGYuGeqdBjOB8-38">
          <mxGeometry relative="1" as="geometry" />
        </mxCell>
        <mxCell id="z3O-kE5tGYuGeqdBjOB8-52" value="3" style="edgeLabel;html=1;align=center;verticalAlign=middle;resizable=0;points=[];" vertex="1" connectable="0" parent="z3O-kE5tGYuGeqdBjOB8-51">
          <mxGeometry x="-0.2541" y="2" relative="1" as="geometry">
            <mxPoint x="1" as="offset" />
          </mxGeometry>
        </mxCell>
        <mxCell id="z3O-kE5tGYuGeqdBjOB8-72" style="edgeStyle=orthogonalEdgeStyle;rounded=0;orthogonalLoop=1;jettySize=auto;html=1;entryX=0.989;entryY=0.107;entryDx=0;entryDy=0;entryPerimeter=0;fillColor=#0050ef;strokeColor=#001DBC;strokeWidth=3;" edge="1" parent="1" source="z3O-kE5tGYuGeqdBjOB8-36" target="z3O-kE5tGYuGeqdBjOB8-43">
          <mxGeometry relative="1" as="geometry">
            <Array as="points">
              <mxPoint x="390" y="505" />
            </Array>
          </mxGeometry>
        </mxCell>
        <mxCell id="z3O-kE5tGYuGeqdBjOB8-73" value="5" style="edgeLabel;html=1;align=center;verticalAlign=middle;resizable=0;points=[];" vertex="1" connectable="0" parent="z3O-kE5tGYuGeqdBjOB8-72">
          <mxGeometry x="-0.0171" y="1" relative="1" as="geometry">
            <mxPoint as="offset" />
          </mxGeometry>
        </mxCell>
        <mxCell id="z3O-kE5tGYuGeqdBjOB8-36" value="Django" style="swimlane;whiteSpace=wrap;html=1;" vertex="1" parent="1">
          <mxGeometry x="367" y="290" width="200" height="200" as="geometry">
            <mxRectangle x="367" y="290" width="80" height="30" as="alternateBounds" />
          </mxGeometry>
        </mxCell>
        <mxCell id="z3O-kE5tGYuGeqdBjOB8-42" value="" style="shape=image;verticalLabelPosition=bottom;verticalAlign=top;imageAspect=0;aspect=fixed;image=data:image/png,iVBORw0KGgoAAAANSUhEUgAABLAAAAGiCAIAAAB4ZaivAAAABGdBTUEAANbY1E9YMgAAABl0RVh0U29mdHdhcmUAQWRvYmUgSW1hZ2VSZWFkeXHJZTwAAEDxSURBVHja7N1PTFXXAjdsLnH0pkKnVSJ5J1VJioNiZFBIr0ltm1YdaNoYcaAmRVMTvQMcaHAgsQMZXE1slCbVgZimjQ5Em/ZqYhvoACMdSBPUTt5g0E4L3HzTfgt2ey5VxAOcP3uv/TwhXGp78Zx91l57/dbff/zxxx81pN57+3cNjgxn/V18/+VX7S2tlfwbRx+NHT3dk/Xr1ryu6XRXt7sAAICSW+ESELHfp6ciCNIAAFAmtS4BAACAQAgAAIBACAAAgEAIAACAQAgAAIBACAAAgEAIAACAQAgAAIBACAAAgEAIAACAQAgAAIBACAAAgEAIAACAQAgAAIBACAAAgEAIAACAQAgAAIBACAAAgEAIAACAQAgAAIBACAAAgEAIAACAQAgAAIBACAAAIBACAAAgEAIAACAQAgAAIBACAAAgEAIAACAQAgAAIBACAAAgEAIAACAQAgAAIBACAAAgEAIAACAQAgAAIBACAAAgEAIAACAQAgAAIBACAAAgEAIAACAQAgAAIBACAAAgEAIAACAQAgAAIBACAAAgEAIAAAiEAAAACIQAAAAIhAAAAAiEAAAACIQAAAAIhAAAAAiEAAAACIQAAAAIhAAAAAiEAAAACIQAAAAIhAAAAAiEAAAACIQAAAAIhAAAAAiEAAAACIQAAAAIhAAAACzdCpeAiDWuajh+4HDW38WaVQ0+SgAABEJYfCA8eMR1AACAeZkyCgAAIBACAAAgEAIAACAQAgAAIBACAAAgEAIAACAQAgAAIBACAAAgEAIAACAQAgAAIBACAAAgEAIAACAQAgAAIBACAAAgEAIAACAQAgAAIBACAAAgEAIAACAQAgAAIBACAAAgEAIAACAQAgAAIBACAAAgEAIAAAiEAAAACIQAAADkwwqXAAAASKfRR2O/T0+FHyanpsLPi/r/1q+sa17XlPzcuKohfLmeAuESTU5P3f+r/A3dGy78+ePfnow/mXh5Wayra359feEf2za2KpRQxSfKMzfyzL/69UF4zBT5e9paNs37pGlvaXWRc2786UT4KvzjM8Vs5mny3+nRh4trzTSubljz2up5i9yGtU3hH112Ml0bL4emVHz1Z6ghQ6s7eSg/U6OWUPPapldX1iW165pQilY35Lw6FQhfUhZDDpwsRZ11486t//3DhbNzH+2hCCYlsnn2h/DdBwHLuYXHn0w8fjpRaHmX6i4uGBwZfmkDZe5jRlCMQ/K5F/qnCx2CoV272B7rxRl5yb9PniMzTZx1TfWvrAwPkfq6OqWOSir0myfV7zN9H2W/R14cEZObIvk56Y6v0ZOSpuf10L3h0N4OxaZiJaTQJfF87ZrUpaHMzLTJ1zXlqhb9xx9//JHz+iuUxeS5vnAjr5JCEQwF8Y3X17dvbE3qtff270rPy1uy77/8ShuF0j5LQoMj3L/he/n6EUvYRmlr2dQ8+7DRpZ3y1JeM7JW7i7rcCh2O4WkSSp1GMCVpNSV9IoW8l+nGSTJMVJjGlXSmhD/RNV++CjZJgIP3hkvbUVu+EhKa4nMb5AJhJEItFkrh0M93kxZk+l9wKH+hFIbXnNEWiUBICR8khfiX9f6R0C4P93Xbm5vCdy2P6nYoFOaDRNDpVswDJSTDUPDy1vnN0rJfMtw3NHK3kkN86ZHcI3MH3vWqLDkEhlKU9To2aZC/Nfvgji8c5iIQJiHw5g+38/C8FwiJ7M795dcH9x+ORdwWCc2LbZu3hGdM+K6pUb4WSTKskZ/sV2R7t61lU9vGVjUz4aYI8S/Ut6MPx0o+zT6+GycZVEwW9FrHOG+HwsCdWzd/vJ2VkcDFSkYOO7btiKZLN9pAmJTFn36+G76r13IbCMMT7r39uyJ49oRLl59GSRxdiUuzdfOWD99+RzJcfldCsiIlFKTsTviscK9EaNyEshf9tCjmVrYh+0Xf41b5lJjnRbyhsr1x51b/wLX8lKhk2HD3th1Z/8RjC4RJWTQYKBAKhEJg1pNhx9Yd4btL8VJzV4Nr2i5faM52bJspe5JhfHdKYcmMyrYyUSFZOh797mLJGMyVgWt5Llfhs555cGd2zDCSQJiUxc+vXNIUEAgFwkxI+m5C0+RvG/Dy3AMmPF0OdewzYDhvAhydnd5mALB8Nc/ubTuMV8cRAsN3DaSq+3Mz+dfXt80OxUfQ5xJaWSEHXr5+1Yc791P+dPfezNWcmQ+EM2PTN65pUwqEAmFWHh43f7gdbliN+OIliwyPHTic2xEbCbDqxS+0b+x+lLmaVghM/82VHHLwxuvrN6xrytAtlgzDfHbhrNo4mgd3VgNhKIL916/2D1xTFgVCgTD9bswuLregd5n2bN95uqs7J8M1oSF7/+HYTz/fNQs0PRVRiIWmMae8jR7xNh45uctSfgheaHV/fuXS5etXlbEibZ3tUEv/hOHsBcLQMkjKokImEAqEcmDehDR4aPfe4wePRPnuCqtJbXKYWo2rGo4dOLxn+06XIj0NdNPvo3S6q/tQx75UlbTPLpzV/F5yQ+7YwcNpjoVZCoShrfDZ+bNWQguEAqEcqFHe19MbwRYFFjiJhSz53rk8O0/KjROl+pV1D78bSsl8EFEwD7FwRSauYCiFNoyBlEtmklgfWJlL/d7+XYc69h0/cDhzM0jDiw/x76fZEKioZLcEdp7oCvf76aPdzjCsfIvo5o+3jQfG7dDuvWmo2yenp4729oiCpTI4Mjy4fzjUmaHmTNuS0RXpv3ZHT/eIgpBa9vitlnP9F0Oj8OszfenfikAIjFK45d/bv2vr5i2nu7qdUVGBqx2qWTMv8mBmaUC1J4uGYhYeMeeuXFLeyhFtWj/6IG2bAqxI8/UyQRQ0UFg4aIXnSt/J3hRO3kumgyZbXAiBEbtx51b4iI8fOJyq9U7R0OOWQ1UfHgw39dHeHvV2WV2+fjXc2umpOdMYCE1WBg0Uitd5ouunn++GWJielxTH8l2KrxNC8/HmD7f7enoNFZawLWQ7x3zqqF4H38xs8O4ugzGVrDn7B6590dNb9Zk+qQuEp86fMUINGigsSvhQxp9MfH2mzxniVLEXoPWjD053ddtsZvlXMlmP7VLkULh9qtWrogVeFaOPxkLNefzA4eruH56iQBhqwM7uLiPUoIHC0j6jd/fv+s+XX8mEVEtoSibj1fk5MLO0bsxOvjA+k2fHDhyuSib5pLvLrJ8qOnXh7I0fbldxqLA2PY+Q9/bvkgYhbS5fv9r60Qfh9pQG0y88zkMm1L9L1SuNdz3QF3/R1r/f9vG/OqXBPKvK8OC5/ovhhpUG0/AED82t8HHkNBCGum/d+21WDELahFopNFA6T+g1zNgT5eMjna4DaWjZqDqKj4KhphWhqfDw4OT01Mf/6jza26MbMT3Cx/FeNTp2qxkIk8WU7+nPhrTWShooWTQz/f5El+tAdYUn+7v7d+ntXfhWDU0gUZDE1s1bKjk8OPpobN37beb+pLNmCB9NhTvUqhYIk6lN1RoYBYhYaIWrXUlDJgxpRyZ8XkiAIQqGLxNEKfh0996K/V3hAdH60QfGY9JceYYPqJKVZ3UCYbIqyWQSgDI52tujjiUNZMJn2nnh3lz/fpsoyFztLa3hq2K3ZCiErnkmKs+KzfepdCBM+gtNZwIot4+PdOoARiZMj3P9F9e932b0nucdO1iJ1YOVH3dimcKH9fG/KvEor2ggHH86YUUBQMWq3FMXzroOpCQT5nlMLNllx+4dzKsyw4O2esqoG3duVWD/8MoFQgURoMLO9V9U65ISHx/pzGFpDM24U+fPaP+wgAqsHkx27rB9UUZV4OOrUCBMFg3qGAOosKOnrRUhLdEob+dkJl3hBupZQOOqhq2bt1QgTmiER1CZlK9fqRKBMKRBiwYBqmJwZNhEfVKVCXPyZpOBQWMyLKzcZw8akoms/ixTJix7ILSFDEB1fWaAgtQIrZnoWwUGBilS46qGPdt3ljUNaoTLhNUPhDYWA6i68acTqmLSI5TGiI/DDu+ufL34RKasw4PSYMSZsORDvmUMhNIgQEpcGbjmIpAen5zoim8uZeFgLdPzKEZZhwfzMBQvE2YgEEqDAOkxODJsyIJ0ZafuqFqrDtZisTq27ShfGszPYt18KvlGQWUJhNIgQNr0GyQkTWLa7ii8FwdLsCj1K+sOdezLRFQgtZnwk9INApc+EEqDACmkZiZt4jioPdxZ72l/s0iHdu8NmbDkvzaUw0+6TVrOixt3boVaNI2B8Fz/RW0OgBQKTYTBkWHXgVSVyaxvxWkrdZagfMODNjTKm1Ilr1IGwvCCSpVTASi5mz/cdhFIW2smo7vLJFvI6ARnCco0PBgKpDSYQyF8Lf9zL1kgHBwZ1kkGkGaD94wQkjpZPCcz2eVPGmRpOsqwuWgojQpkPoXq6OMjncucJ1yaQBiCaXgpPhKANAt1dXx7/ZN1oRWbrWJZvrOhyYM923c2rmooed1uVCbPQhW6zA1mShAILWAFyEwmfKgVS+pkaJBQGmSZSn4YfTJA5MLm3I07t871X6xmIPzElGWAjBj6+a6LQNpkZZBQGmSZyjE8GNrhpn4QnLpwdsm103ID4anzZ0Ik9RkAZIIRQtKpP/XLn6RBlq/kw4Pn+i9qh1Oooz7pXuLE0WUFwsGR4axvGA2QK06eIKWBcOCaNEjctm7eUtrhwfGnE9rhzBXqqFPnz1Q0EJqyDJDRB4aLQNqEpm1qBzqkQUri0917S/sLO23hwXOWNnF06YHwkxNKIUD2/K7qJpVu/pjSczLtlcDytbe0hq8S/sJz/RfN+GBeR08v+lj4JQbCy9evmrIMkEVDTiMklQZS2a7oPNGlwcPyHTtYytWDJouygMGR4cUeSlm7tFJ4tLfH5QbIose/PXERSKHJ6am0Ra9z/Rcd9s3ylXx40GRRFhaS2qJKSK1SCJAr409sUE5KpWrWaEinur8pidKuHgwl02RRFhaS2qLGkGuVQoB8BUInVpFWg6mZzzz6aOyTE10+EZavcVXD1s1bStjQ109BMc71Xyz+cV+72FKofgQQCKFMhTMN5TM5zstkKEqitGcPLqqVT84V33ewuEB46sJZ9SMAUCZpGCS0rSil0riqYc/2naX6bSEKnrtyyVWlSMXP61xR/C8NleO5/osuLpBFzWubXl1ZV+QTN/r+1/CEKO0OB1AqP/18t4QN6CUITR3bilIqpR0e/MzADIstM+fPtn/58sf9IgLhEg61AKiM+pV1G9Y2hR/aWjYl8a++ri4kwObZP1yCJBaOPhwb+vlu+G6KDlRGdUcIRx+N2c2fUin58KA9b1l0jToyXEwXcLGB0F4yQHqEmNe4uqH59fVJ8CvHYFd4kIev8JsPdexLmon9A9fCwziO3tnJKX3MpFRo9Ya7rL648fySs3SQEurYtqOEv+0zXRVzns7N65rqX1kZ/nFN+MfVDX/WHk8mHs/23j7+7Un4WXL5s+QUMUhYbCC0o9FLm6czYxF/lc62jS+57oUiO/rrg9AyU2RhYSGYhfvrjdfXh3q/KnMdwz1+uqvp+IHD5/ovnrtyKetNxpBvS7jrHc8X15q/Bqtr/hqvfskn8nAsFKrJ/04nw9E5H5G+/2isKrf5qfNnLB1clMLUjJlm+uqGNa+tXvi/7x+4lp+yHS5O0p9YEjkfHgwVQqhRQ+s6lLeFeota5rlug/eGf/r5bvie23o1pIxQsy08YaqoQBiKoOlS8xbNP4cpljAn7bkiG5oC4RE4dG84RETz0yDp/2t7c1P4np7VbuE5dPzgkRClPum25wT/axCHx0HSS73ksvr8/zE8wsMTYWjkbg57DMNDsPJ3vcmiRRb1+tnu72SUZrG/JJTn/DRvDu3eW8KB7nwOD4an7Ydvv7Nt85YlX8lk1m4ycTfc459fuTRw51YOZwGEN953sne5gdAgdSIEv63/fKdtY2s5HlShrIdfW/jNSZfGzR9vh++mr5CfENi+sfWtNzeF70toalSyKvjPl1+9u3+XTJhPyXh10ltRvoJaeCKER0BowYTHQX52Ovnl1weV/0s/6Xaq1jyFMOn7LmtRz9ATKjTV5lb74U9elG8NDy6zSRwi3Ke795a21IWSHELR6a7uUKOGaJOroZdQfo4dOLzA9VxRzK/I+WhVKEAd23Zs3bylkrXh3C6N0Ag42ttjzJBYhZsrtK0rfIst/3EVMuG699sy2l/z+LcnCt5iHwTl6xAspm0UvsJTIDRi8tAuHH9S6eedyaJzmx+FOtnVmCs0BY8fPPL8n8/Mx3s49suvD+4/HCuUIsODS67uwqULWbp8q4gLNWqoS0PrOj+DLp9fuRTC8NIDYZ6HB5P+iSXvUljC5nL4FAVCtDnS9tz64mTvx//q1OCOuGmybXbCUvvG1mrtcfLMXdN3svfYgcOd3V1xzyO9X9ls5my3pHQlfd9Vb/NkztzpXTWz8xJDMmzfWLKeo2SOQB6uZCh+IbFUrGs4NPJDDX/qwtmcHKoXAvDxA4df9Cxb8dL/cw5zSAX6JyCfkmGWaNoc4Y2EdoBNoWK1YXZ+UQob7t9/+VVowZyK90SyCr+vXI0SPN/gCW3iNPR9x/SYK+3FDDd79OUz6WCtfAdx+HtDBP3wn+90dndFn3eSnoUXnYPykkCYw+HBkAMXCNDA0h6QlZ93XRm7t+0QCKnKo6p9Y+u7+3fF2lIs5uCsUv1F+TyGPtTGxw4cXs52HVRG/8C1uN9guNO/PtNXxXIYXsDwN99+cqIr+qrg8yuXXhQIaxeuJXM1PBgKxIPvhk53dascoVQNjtBsDbdVqGrDD1HuSbDNMhuqJNncyANrmTrzt5fMTPv7332hZg5NQ+Un5UJEibspHgrh9ymox8ILCDfFi8JSNEYfvfAUg4UC4Wfnc7SGNZSDUCJtogUluaGSKj7pYYn7tkr2B/ahIxOW1tC9Sgy8521dTLIMNVTONozJiv4bMQ8PhtKYqmn5aXs95fD5C9ZLvzAQzhx7kI95UKEx9/C7IZUjlKR5GirTcEOF7/mJSc3rsrf25r4NFSO66b6IvQVTJpPTU7navPF0V3cyKuijz4rQFI94EmNoJ6SwNIaXFHcmfFGJql1sgozM8QOHvzflBpbd1Ah16PA334avHM5Bqn9lZRabwsptNLZu3lLCE89SYrT8RxGe67+Yk+HBUC0//G4ovkISvf54z5hJZxos3C8hHeStl+GFgTD6k45CmzUUx3mPlAGKlExASoYEc7tJXdtGU0apsvj2QpucKm+fxeT0VB6Omkj2pA31s47vTAbCSLeTKZyznd4a9eCRiMfSb/54u9hAGNJg3P3HyaHSJk7Akm3dvCVZJWhbAkjDQ22BE4fJYTunZnYr2uFvvrXIOaMW2P8j642HTMzJjLibe6D4EcJ5s2NkadCRO7A0IQGGHPj1v/u0MyBVN2ZMGziVexeDuNfFJHOg7JpeWpP/na7kXxfl8GCoozK05rm6h2GUsSRPTz1fwc4TCONewyoNwpLvneMHDv/20/3QzrAfL6TQp7v3ugjFiHtz0VA/mwNVDqMPK7oXV5RN8WxFrGzF10W5+cPtlwdCaRB4Pgo+/G7o+MEj+pshtWSAIkW8uWho4Qx/8612TubDZ4zzRUNDInMlc+vmLVEeQ/B81psnEMa6hjX4Isf7XoAoCNHfsDG1Xcq0xm9wZDjW4cH0n0uZxUN6qiK+pnjjqoaM7uMY5dTrUAc+Uw3WPv9fjEZ6PlVo1zpsEBZVCYqCkC0fvv1ONO+lTKdlxrp6MP1psCabh/RURXyT9fp6sjr3MkTZQzHOxn+mjNVGXwQTIQo6YQIW5VDHPlEQsqXdISgLinWXhEykQYovpZENYre3tGZ6F7qQIOLbOmHo57sLBcLnVxlGIFSRsa4KBYCC0Gqx59MCojzpWxqMjOHBFDoW3VH1g/eGXxgI592HNAJfOJIVgHwwSLhQIIxuadZMl3ePRk5Unhm6ybo4TsSJ7Fyf50Pf3wLhQIzzKGLdIAgAnvfG6+tdhHnduHMrvu1k7JYXZUGN6e1EM7YW3yDh0L0XBMKf4uqTqDFZFICciWYjx8mpEu8yevPH2BbFHOrYp8u7Yiozhy6ymXqhfEYzsLZt85bIhuJHf30wfyB8ZjppDHXl7r3mUQCQHxtiGS8q+Z7nkU2Dal7bdLqrW4GPzFBcTfFPI9qfMwSKyM56HZx3hDC+QzCze+YJACy51eIiPO/GnVtlOtiwWr7oMQEqxkA4Es9kvdAOz/TmonHn25rZZYSF6Fc7b0yMQ3yTfQHgpSJrhJVEZPNFD3Xss3QwSjFNGe3YtiOyTydE3Mjuu0L6+18g/GXORNI4PrPIBnYBgKWJab5o/cq647q8Y1TyadJVDoQxtsMjGyQspL9oRwjj65YAgKICQ51Zo38T2XxR+yPEKqamePPapijPRN0W1zZOow//7INYkfzP+NOJmBYQhoryUMc+NQtQsuf07DSe8ScTj2erytFfHyRbIEZ5diuZb4q9vv5GjOdILVlMB7vZHyFiMU3Wi3VgJkSM9pbWaB799x/9PRAWAmI08V3nGbBYSddYkvoe//Yk/PD79FRkc3ggh2KKx5mesbYmxiGjUrbOI2qNR3wgyof/fCeaQDg5PRW+Qmj6KxDG1eKJbIIvUHKhNp+cmgl7SfCLbJYEUBDT3Z31je8bV2c7EIYHR1l3bIqmNd64qqEx3vDfvjGqXbvuPxoLpfrPQBjZLre23gIKJqenQn03+nAm+4Xv4efIdp8HFmrER7QuK6RBE6CiLagRLUCIeHiw5q/lkdF0M4V20f8C4f1HBqmBeB6r4h+Q+CmiBYQmQEVs/Ek8s1Ta3twU94fVvrH18vWrcbyX0FiqSdYQhowbU4PJ/qKQzwT4y68P7j8cs+QPDCL9rX6IZYSwvaW10Rq8eD2OaNlCZJMqn/fWm5uiCYTJPjJ/BsJoPiHzRSEPQq0VGnkhAYbvEiA8o3md5+D/6opoGjm79XdHLZrVW6EdHn2f1IaI6tikhpwJhEMRTa+Pvk8CcisEvxD/hn6+G76bBQoUI6YFhNusiIlaND0XG3LQIRXT4NP/AuHkf6ejeVdvxT5rGfL2gAztuZs/3hYCgSWI5mC3rc7TEggz4o3X1+fh84rpNMJQ9mYCYUyHEOo/gwjcuHNr6Oe74bujIIDliKaF06a/WxrMiJxMWQ9vM7ZAGE0pbFzVoP8MMmpyemrgzi2DgUAJRdNis4O6QJgVG/Kxl8ea11bH9HaiCoQWEEJ2c+CNO7dcDaCEHPNNZspqLEPZ9SvrcjI2E9NA6NC94RUxbdCXk1nLEIcbszkwmo2bgbS5H0sjW393etrN7S1l+SyimRezITdb/Uf2Tlf8HtHULBttQ/qNP534/MqlkAPNCwXK6rFdOshKWZ09HFxTPENiGgid/O/0ivEnZi0DlRBC4JWBa9Es6QFSLp6D3fR3xy6a1nj9Kyvz86k1r22KY6Ll6MOxFY8jWsZqRxlIocnpqXP9F/sHrtkyFKikaOZAlWmaIpQjI+Xnzb4aUe5YEc07UV1C2oQE+NmFswN3bpkdClReHJ33tpPJg2jmztTX5WhsJqaTJ1aMxnJma66KIGQiCtowBqhiLRTHGxEIyZBX8zRZL5r5sfcfja2YnIqk577ZkmsQBQHiCoRtLY6kJzutcdt5ZNDk9FStqwCUqkI5df5M60cfSINA1UVzsFtMrO6Zv6w+UlYzqS2i82DiOXZCnwRUUQiBR3t7rBUEUiKa6qjNIYSx+92jk6oHwmi6JawhhKoYfzrR2d3lMAkgVaI52A2ywthMhgOhSwAs2anzZ05dOOs6AGkTzcFuzlgmK151/JtACOTK6KOxT7q7rHwAKCtnLEM6xbQDcDybylipDBVz+frVd/fvkgaB1LqvgiIjbIAkEFadEUJgESanp4729thHFEh/ZeUioKyCQAiU0vjTiY+PdBoYBKgMu3QAAiGQFiEHvrt/l45MgIqxSwdQAQ6mB17u8vWrrR99IA0CmeAgHACBEChlGuw80eU6AAAIhIA0CACAQAhIgwAACIRpYOdDkAYBACogpo0V4gmEv9vuAkpn9NGYNAhQXeNPJ1yE9BgauesiUHA/orEoU0aBeZog7+7f5ToACIRA9ARC4G8mp6c+PtLphAkAoHiOe8moxlUN8QTCoXtKIZTA0d4eK3IBoDKa1za5CAiEQFrcuHPr8vWrrgNASpg1Gr36ujoXIYtGH0a0hjCEwjjeyePfniiasByT01Of2EgGQCAsm/aWVp+p4hpNq0kgTF8RfKILDZYlpEFLBwEAgTA/mtc1xTNl9L5VT7AMN+7cCl+uA0Cq2CIBUnpvxnIMSf0rK+MJhEY2YDmO9va4CACpa978d9pFiFtM02j1X2RUbfO6eLY2st0tLM2p82dM8wBIoZg2roCYRJM72ja2rqh/ZWVMlabFyrBYk9NT565cch0WK6ltmtc1hVp0zaqGxtUNoQoy0AqUlt46MiSaWZR5syKmN/PLrw98orBY5/ovmnG9cPCrr6trfn19/cq6EP9eDd+dGQXptiGimzQEwlBFh/rHxxr3gyaO4abfc9OciGlaYuOqhhVtG1trLpyN4/3cN60CFsnw4Fwh6TWubgjZLxnxC21KjTDIosju3PuPTIAiG0Zzs8VjTKcbzATCyEqhXjRYlMvXr+Z2eDDUFSHyNa9reuP19RvWNRn3A9Jp6N6wQBj58yiis+lDazwPz9PHsczlTg4gXLEhrs9s8N7w1s1b1CxQpM9zNjwYnlLtG1slQCBLLWwrYtKhfCecNb++PpqTn+4/zEUgjGa15J+BMLLxtJs/3hYIoUjh8ZOH7QpCZReqhbY3N4UoaAYB5EQ0i7JqZju746mQVzfUjGT1xZdvQk1Mz6ac7OgRzfnnyXkTM1NGQ46PZsrvoPNPoGg3f7wd8bsLNVvHth0hCia9XwDZzSHRTMNb89pqH+iLGuVxyMNBKclWT3G8l+S8iZlA+GpE3RLhE8rJ3GVYfgvj8vWrciAQpUyPRD1v8N6wtk3EYmqK5+FU8JjGn2a2F62pqZ35qWVTTB9S/8A1NQu81EAsyxUK9mzf+f2XXw1/8+2hjn3SIORcZCNR2jZxiyztR58Jf/o5nuMWk/bSTCCMbFHNjeiauVAOMc0XDVHwwXdDfSd7bcQHJCJr24w+GnNCfdxi6sccin0BVzQjhKGe/F8gjGnics3srFGZEHJSnW3dvCWJgoYEgbkia9vU6O8WCDMUCEfuRvxJhaARTe9M4bCJ2rn/EI24t8qAEqTBkeGsr4cOz87vv/zq63/3iYLA816Nbkths0bjFtMCrgjaGAu9u4jGPwsdZ39OGY1sZsXl61fNrIAFZH06x9bNW4a/+dYEUeCFDZ3oOrtHH41Fsyd8pj+FMv3mNXF1bg7EO6Ad07DTG6+v/18grIlxkDBvx23D4gJhlqdz7Nm+8+t/9zlREFhYfNMHtG2q7veyDXxtiGuSc6yT9Sanp2KavL1h7ghhTXQbjdbMDhJGPFoNy5TdHcCOHzjcd7LXJwjkMBAO3LmlbROryMa0b0RaViMb+Wxe+/dAGN/MilAKz/VfVL/A87I76WjP9p3HDx7xCQLFiK+zW9smbpGtg4hy1mhMI59zy9ufgbB9Y4RLcU5dOGslITzv/sNMBsLmtU3GBoHirYlxx6lzVy4ZJIxVZFvjXoluG6TIDjKY22X2ZyAsHEMRmaO9PeoXeMbjbHaUfNEjDQKLsCG6kydqDBJGrbDDRxwGR4YjG5jpv341prfTtvG5EcKaSAcJQ47P7lopKJMs7iizZ/vO+Ga2A2UVa6VhAlSs4muKR7YNUmRHv8wzZTR4681NUd5dnd1dJlfAXFlsSRw7cNgHByynxRNZ28aHG5/GVQ3xnQMXTSM8sjPtnqkbIx8hTNq+Jo5CpgPh1s1bnD4PLEHzujgHCQdHhm/Ee85bnkXWGo9phvNnF87G9NE8s+fW/wJhaG/F2uQKmf5yXLN+IT9pMPjw7Xd8cMBSGj2Rzn4KPjlhApQSmwFxbIMU2fBgzWxX+/yBsCbeQcKa2d1lsrvVPuQ8EG77e7UFUKRYRwhrZsdePj7S6SOusKF75d2ZIr6meByDhJEND9avrHtmifXfAmHE3fBJvakvDTInvjUVQCUrkIgnnA+ODFsUE5nQTI+vxJ67cinTw2vxDQ8+38+elxHCmtmBkXf375IJybnRrB1CaPUgsBxxt23O9V+0KEaJTbnQ9s5uz0WmX/yLPL+T6N8CYf3Kuq1RT80afTQmE5JzmSv/z6x7Blhm0ycynSe6bDATkyjn64UimtFSeurC2fiCw0tGCGtysHmDTAgA+ZGHRcifnOiyUUI0Yh3TzuI2SIMjw9HsklqwdfOW51fi1Oaw3kwyoUNdASB6z2+fEJ/Qzg4NG3NHoymxUc7XC6U0ZMJsveAo922ad/CvNiel8PlM2PrRByH3q3cAIG5b/xn/0TWh8dp5oksmjLjJHoEbd25laMAt1t0o5x38q81PKXy+6nxv/65T58+odyJW7u2hAchAIMzN0TUhE3ZmahCG4pvscTja25OJ8ZisvM4lVIbz7txeO28pzM8m76cunH3P9FEAiFeUW/m/yOXrV1s/+sCSwkyLe77ex0c6U14+w00U39LBRMfWHfP+ee28pTBXx0APjgyHqtNQIaTT0MhdFwFYpq15atgk62I0bDIt7rPB392/K7WZMKTBWIfZF+hoqJ33T3dv25Gruy4UzVMXzq5/v83GzZA2v9sTGFi2jpw1bGpm50CFho3tEjIq7vl6qc2EEafBYM/2nS/6V/MHwvaW1hweBj3+dOLjf3W+t3+XWAjpER4YzokBlilXs0bnNmxCqyZ8iYWZE/18vRRmwrjTYPDp7r2LC4TBsQOH83kHhkozxML177eFYqEZCmkwoI8GWLYcDhIWGjYhE7Z+9EEVGzY37tw62tsTGlenLpxVFIsU/Xy9UBqTYpmGFxP9hkwLj/a9MBDmamuZ540/nQjFYt37beG7AUOorps/3nYRgOUGwhdPl8qD0UdjFW7YhL/xXP/Fj//V+X82/N/wPfxsD78StuCjEQpkKB5VHIMJxTI9ubR8FhgeDFa86F+ENHho996cd+SE0hnKR/hKBu7fenNTznMyVdHWsinnVyC0XUJ9ncPpXkAJhToktLBzPnlybsOmfWNr25ubwvfmtU2l+uX3H40N3RseGrl732z/EjXij/b25OEp3/pw7HRXd+U3fzrXfzGEnejLaqj9Fr62Kxb4dx3bdxrZf6YC7TzRFerNDeuaQjhsXD3zaCnf3zhTmU5NzSyg+u/0fftHk2+fXTjbd7LXdQCWY/e2HVbTFZoZoRVeGCqcGYxa3bDmtdWhkVNfVxeajwv3wY0/nUiG+0L8C62U0YdjEmA57JltiufhwiYbeYRy2NfTW5n+31AVHD3dk5MDWhYeHnxJIAyfRyiI0Q+hLlYoOuGrcFmSSrN5XVP9KyvXhJ9XNxTq1gV+w9yNEwuHpyfb6xcqWSiHUvUEV1i440JLrnxdMEBOmtefXTjrITtv47hmxGVInfqVdaHQxnom3rzlcP37beEthwBTvuZK+Fs+O382P31DSSlaeiCsmd1aRiBcWJLf9DiSmXqhLqtznj8+0vnwuyFztoHl6Ni2w+wnMiREo/wEwkQyKa+9pXX3th0lXKuVTPfrH7g2mrNpd4d2733pNaxd+F8ng4TuRjJq9NcHLkI0ki2qTUkCltU26tinX4kMyW1TfHBkuPNE12tvbUh2JFpyiitsbhR+1dHenrylwZlNYTr2vfQ/W/HS/8IgIRmOEFPCw7MyPesy1OMhE37R05vRia9AGppH2zZv0bAhQ3LeFC8sdg0374a1TW0tm8IPzetmmgGvhh/mtAcKa7JGH449/u2Jpa01xQ0PFhUIG1c1HD9w2PwKID2ZMFRKxfR4AWhek3U2yE2EaBcugutQvCKHB2teOmX0z3BpfgVEJOvDa+GRkBxwnKom3cx2Uw/tBgzZaF5bDkO2nD7a7SKwWEUOD9YUM0KY5MvjBw7n4SAUyINXo+jfGX860Xmi67MLZz/dvXfr5i2VPKUwORVm/MnE46cTo78+CD+MOhgGMsUgIdnSvLbJzv8sSmgXFT+XakWR/134jTnclgei1NayKZoZFyEWHu3tCV/JoatvvL5+w7qmUg2BJnsIJ8eB1vx1MIzJKhBHU0nzmmzRi8FiC0zxEzxXFP97Tx/tfm//LtcXsm5NBQfTKpkM527MHTLhqyvrknOWi/wNSd6rcRYo5Ka1NHDnlo2LyQq9GBQvGVIu/r9fRCBsb2k91LEvb2ehkGn3jWnPZ8O6+Lfo/HM6g3OWgRc3rw/t3mvPPDLkdFe3XgyKKiqLXHRau6j/+viBw40xji0QK5XmvJzZAFBjzzyyJtnUw3VgYXu271zsGWO1iy2IfT29LjRkXaZPIwQoVfP6dJfNG8mSQx379OpS8mqtdrH/h2TiqMsNmdbWsslFAFhCVzpUlyMoWMAXJ3uXMPGhdikFsatb5wRkOxBu1AAC0Lwme4zN8CJbN28JX0v4P9Yu7e/7oqfXtHtSzkaRCz9OXASAmtll1dZlkS029eB5IZp9cXKJK/uWGAhD7bnkvxIEwjRYWh8SQITN64NHTH0iW01/m3rwjKVNFl1WIExakwasoQLKNL3zw7ffcW0B/mxLaV6TKSaOMtee7TuX09Ffu5y/+3RXt0EGyOqzxDJCgL80r22y4yjZcvzAYSPblKT6ql3mK/jiZK+ySDpNTjmEcCGNqxp06AAUHOrYZ301GTKzZsymHopBKYpB7fJfxNdn+pRFUmj00ZiLsDCzRgHm0qQhW4xsU5LTH2qX/zoaVzX858uvVKCQOds2b3HnAhSEKjE0aVwHMmTP9p3hy3Xw6Vc5ENbM9k/IhJDFpo+nCMAzTZo++6iTKU4Iz6f2ltZSVVa1pXpNMiFpM/rrAxfhpT7dvddFAJjLkAvZkoxsa4TnSkheX5/pK9Vvqy3tK1McSY9oNpUp6+Gz4Zdr9wA8o+9kr223kAlJ7cdd2v2Eakv7+mRCyFYgDI4dOOwiAzzDPupkSyiuX5jtnJvwX9raqbYcxVEmJA3u22W06MBpkBCgAq0uKKutm7dYARu9ctRLteV4oUkmLPewBixscto5hMU6duCwThwAmZCs27N9p0wYsb7yzFyoLdPLDa91+Jtv1aGQCY2rGg7ZXQZgvkzo7G8ylwlN/Ik1DZbpk60t34tO+tWUSKpicGTYRViU4weP6MEBeJ4+buY2bnOeHIjyM60t920TXv3prm6fIixNe0trxf6uL3pMMgGYR+OqBnNHmekdWJeZMhBa4Ic69vnIIpDkqbIm/NoKvI1QHL+3zQyVNf5kwkVY9HNubdNxO44CvKBNJhOSLae7uq0njKPmKfd4b21l3kx7S+vD74YqOdZBzj1+KhAuxfGDR9ynAFVsmUEJ2WMmgjqnAv1QtZV8S99/+ZXpo1TG5H+nXYSl+fpMny2CAV7UmDETj8xlwq//3WemXuZUcvVybYXfW6hDrcymAkYfRnIIYeWXK4RnRsiEnhwAL5LMxFNPkhVbN29xSHgWP7KKddDXVv4dJnn3uHPPKKffYzmEsP6VlVW5SUMmVIoAXmTP9p2OXCZDwpP94XdDhmQyIaSkCg/q1lbtrR48EmKh1UqUyeijMRdhOcK9adUBwMIt7NCS2bp5i0tBJoSAEUqsRbAp/4xCFAwpqcJ/b20V33Pjqobvv/wqvG0dbJTWZCzDgzVVPfLISnSAYlpvpo/mx4bsj7CF4qrEplMV+5hqq/7mw9s2g5TSuh/R8GB1jzwKmdCZMQAvrSpNespPF0AcJdYZKmmTbLNSrUGy2pTcXccPHnn43ZBtuygJhxCWUGjiWIkOsLBk0tPprm61JZlQ2NHDpUhP7VHF11CbnssR6tBwLR58N2RyM8vkEMKSPzasRAd4qaSP36pCsuL4wSPf2xspBZVG1ecX1KbtuoRC2XeyVyxkOYZG7kbzXlIyBylZiW4MH+ClzZiv/933vfl4ZKeZYaiwWnVFeqYV1Kb2GoVY+NtP960tZAnGjRCWR6i2dCUCFNnIDi0ZFWZMYm2RJku3rIOt6AU/cPjBd0PpueC16S+gIRaGKlVPGzkMhCl89iStHEOFAC+VbDajazsaG6Jui4aW9vdffqUXo0LVQsUPlshwIHzm2iVnp6hVWdjgyLBnT7ljajJUqJsG4KUVZrJtXoiF2tlkJq7oxSiD9pbW1Ebu2gxdx9D6DBcx1Krhu0FtXsQWoxWr10yIAig+Fj6YbcDkuc4MDw477mSluNr8v7QRJkTB8JXa/FKbxWKanI0WKtbTXd3GKNIsPPZC1X/8wOGv/91XsanSv/z6IJ4aZF3ai3e4GTVxABZVZ4Y2TN52zkvGnWamlry+XjHISnvb5v/LF5q+oY2U/vWZKzIdNg517Atf408nbty5dfOH2zHNFcxo3bFhbVPIMGteWx2+V6voD96LpxjUv7IyK0/68HX5+tXPr1wafTTmXgBYuI0YvkJrO6k2I94ILTTVOrbt6Ni+M45Ow7aWTXkrq8kuj6Gsnuu/eO7KpcnpKfdv8bf5sYOHszKlcUUchTVJhqGYDty59dPPd8N3RbYyZb1xdUOIf20bW8OnkJLqPqZAsiZTT9AkFg6ODF8ZuBZaOW6QlPYyzHbchDvXpYCq34xJ6yU8tvoHrt24cyumZLh185aOrTtMEI2mrB4/eCSU1ei7MErVHPp0995szWFcEVl5TZqkfSd7Q/U6eG946Oe74btwWKpGZPO6pvpXVqYq/j0jslHiLLbaCz3fA3duGTCsrvA0enVlXeG2nfnZHHtI5a16uit8dYcKM8TCGz/czm7NGRLgh2+/s23zFluSRNyFEdpa4fkeyqpr8rc226qGkAMzuv/lilg/lVC9hq9kOWwSDn/59UH4rlejyDZ9fV1d8+vr14Tgt7ohQ1v4DN2LKhC+mtkHaqF3xozuytywNX/NZQr1Xrh5N4TvWmOQzabL8YNHQs0ZWiw/zXZqp7/dEmqbkADfenNTMTnw8W9PsvsBrbFa/q+HTvianJ66fP1q/8C1nPf8JuV/97Ydmd7wckUePqqkhk1+DsX3/qOxEBtGf30w/mQi54U4GehLpn3G0Y4cjWhHmaToRlDGCjO6Q8vm5o+39cssJ/Ulw31JT40RP4j46Zz0qdXMnqybdGqPPhxLT89aeIWhOmp7c1P7xtZFVUSZ3gncZPtnglDEc56LzIEfvv1OHPOi//HHH3/kvECHcpwkw5AlJqem4hvHSGZ71vx9ACG1cz6X6bW3NkQzQzh8cL/9dD/Km67QvgnfzSkttK6SWzKJfDM37MbWuX+eLUnXW9Y/lOxG7jiuf6zPqeU3Wu4/HHv8dGJo5O7v01MVq0Ln7hqwnL7j9/bvym5DK83HBqSkcGZ9znPecqBA+PJHaQiHSYEOdW7ShE1nz0fhkZnU1DWzUxqSTqy8TRsLn1frRx9E83aSA0zz8MGFxsH4k4mk/3vm1otu0W/hJk1mYid/mOQ9o3xAaRstj397UhiFKz56zY3fz3RLlbYtkelAOPzNt2rsYhTmPEezy2NokrW1bAohMNYCIBAuJXX8Plu4Q4X7+K+IOPnf6dCWff4/Xrj3buF+pmd2Ny7EPI3IFzl1/sypC2ejeTvJ9kj5/ChDcyFp3BTurLQFxWS/luTnuTFv7n1qIR9ATIHw/7v//3yCS2g2Z3Ejj2R6XWiKt21szcOw8AoldQkNwT9/anEx0uXGD7djejvJeG8+JZXv8/Mx5k6EC0FxbkSc2ym+iBp/TpZ75knQvO5vfS5mrwEs333LBPLXbJ53I4/wEE9VPixsp//G6+s3rGvK27iLEUIiEWqZ197aENM7+vrffU5wAiAm/2fD/83oK29c1fDguyGfYGkVJgQlvboVW59V2J076f81o8cIIZEYiO48HLuZAUB6AqGLUKZg9kz3d2E2UGEq0ItWZhWWk8xdx1Fg3b5ASO7c/PF2ZO9InQVATBxISzHqV9YlQdGerhVT6xIQgcnpqRtxjRBKgwCQoufyOs9lBEJIMfNFASDl5p31lxXJURwgEEJKXRm4Ftk7mnfrSwDIrkwfSbfGGkIEQkitmfNPo1uWkKx+BoBoDI3cze6LN3MHgRDSq//61fjelN3MAIjM71keIfRcRiCEFAfC6OaL1q+s8+ABIDKjWT6V3nMZgRBS6vL1q5U5w7SS2s0XBSAumV7cIQ0iEEJ6xbedTI0dZQCITqa3GBUIEQghpQZHhqM85daOMgBE5pdfH2Q4ENpRBoEQ0unzK5eifF/tLQIhAFEZvJfhDtw1r632CSIQQuqMP524Ed159EHz2iYfLgCRPbIzveDfoxmBENLoswtno3xfdpQBIDKZHh6sMWUUgRBSaPzpxOUYjx8M2t7c5PMFICY//Xw306/fCCECIaTO0d6eWN+aEUIAIjOQ5SUe0iACIaTO4MhwlKsHa2a3k6lfWecjBiAa4ZE9OT2V3ddvvigCIaTOZ+fPxvrWPvznOz5fAGJy88fbmX79DgdGIIR0uXz9apRnDybMFwUgMgMZn9RjyigCIaTI5PRUrJuLBo2rGjx1AIjJ5etXMz1fdCYQrvNoRiCE1Dh14WymDzJa2NbNW3zEAMTkysC1TL/++pV1jausIUQghHQYHBk+138x4jfYsW2HTxmAmB7cWV/lscHMHQRCSInJ6amjp3sifoPmiwIQmawPDwZtLQ4HRiCEdDh14ezoo7GI36D5ogDEZPzpxOXrVzMfCG32hkAIaXDjzq24J4vWmC8KQFyO9sYwr8eUUQRCqL7xpxOfnOiK+z2aLwpATAZHhm9k/LSJmtkDJ+pX1vk0EQihyj4+0pn1Hatf6tPde33QAEQjjmX/DgdGIITq6zzRFffSwYQFhABE49T5M3E8u9vetKMMAiFU1bn+ixGsR3+pPdt3OuMIgDiEKHjqwtk43osRQgRCqKYQBeNYj/5Su20nA0AUJqenPumOZNm/BYQIhFBNo4/GOmPfSCbRuKqhvUUHJEB5U0r0a9FT4mhvTzQLPQwPIhBCNdPgu/t35eTNHjtw2CcOUFb3H42te7/t1PkzYmFZRbbQ48N/vuMzJSf+8ccff7gKpC0N5uSZXb+y7ref7vvQAcpqcGT4vdl+xlDrHtq991DHPlMBSy5EwZim9nhAkytGCJEGq+aQ0yYAKig8X05dOGu0UBp8qW12/0YghMq7cedWrtLgTEd1xz6fO0C1YuHR3p7xpxMuiDT4vA/fNl8UgRAq/jj5+F+dueqvPbR7rzlLAFWMhef6L65/vy2EmcGRYRdEGiwIT2fnAyMQQkWdOn8mJ3uKzn3YGB4ESEmkeW//rtaPPsjDybelFZ7dUT6+zRdFIITKmZyeCs+SaE6wLZ7hQYBUSY47eu2tDeaRFiNcoogjtPmi5I1dRqnm4+TjI53RHFhUvBAFH343JBACVEZhl9Hitbe07t62Y9vmLerq5924c+uTE12xrvJoXNXw4LshnzK5ssIloFqP55AG87nJ2/EDh7UwAFL+kApfR3t7Qib88O13rChLjD+d6OyOfMmlz5ocMkJIFZw6fyaH00QTuh4BKp/uFjtC+Iz6lXU5T4bJHjx5eHaHZ3R4UrtryBUjhFRUHjoXF3bswGHFACBzcejy9avhK4fJMImC565cysOknvaWVmkQgRDKKO5VB0U+afZs36kkAGQ9GdbMzi0MybB9Y7QRYvzpxOdXLoU3m58H9+5tOxRyBEIo1xM0RMEQCHN+HY4dNDwIEInwUEueayEQhnDY9uamEA4jWCIeHtkDd25dGbiWt+k84XPUaYtACOV6ZOZ8YDARHjPtLa3KA0Bkxp9OzEyq7L8Yfm5e27RhXdNbs+EwWyOHSQ68+ePt3PbedhgeJK9sKkN5n5E5XzFY4KgJgGpZ/qYyS675N6xtamvZFFJi4+qG8D2FIfD+o7Ghe8M3fridw1OgPKYhYYSQcjl1/kxO1qAX43RXt8cMQK6EJ2ByfEXhT2b2LFndsOa11SEc1tfVVX7aSJIARx+O/fLrg/sPx3IeAuc6tHuvxzQCIZRMePh1dneNP51wKQotAMsSAJgJhyPzPCPC9+Z1TfWvrAyZJPww98+X/hfNGro388Porw8mp6ZM2HmRcNkPdexzHRAIoQRCCDza22PzmGceM309va4DAAuEt5emtYXz4f1HY6bkLJnhQQRCKIH8HFm7WMcPHHaoEQAlyY2UnOFBEAgpAcsFX2Tr5i0eMwCQWoYHQSBkWS5fv/rZhbOWC84rPGC+OGmyKACkVOOqhuMHj7gOCIQgCpbF12f6dDoCQGodO3DYRQCBkEUbHBk+errHXtULO93V7Rh6AEgte4CDQMii3bhz6/Mrl6xrfylLBwEg5U4f7XYRQCCkWCaIFq95bZOlgwCQZscPHA7Pa9cBBEJEwRKrX1ln6SAApFnjqgYTeaCg1iVgAYMjw9LgotLgf778yqmDAJBmfT29um5BIKQo7S2tD74b6jvZK+QU44uTveafAECaHerYZ9c3EAhZnD3bdyaxUNpZQLg+WzdvcR0AILVmDh501AQIhCw5Fg5/8+33X36lX23eNGjragBIOev8QSBkuUIaDJlQLJQGASBb7CwKAiEljoUPvhsShKRBAMhE0+X4wSOuAwiElFLjqoYQh/IcC6VBAMhEi+XrM32uAwiElDcWHj9wOD/z8sM7lQYBIBMsHQSBkErEwuMHjzzMRyxMzhuUBgEg/WyTDgIhFU1KSSw83dUd69GF4aES0qBHCwCk36GOfTpwQSCkCrEw1L9Rnmjf3tIqDQJAJoQoeLqr23UAgZBqVsQxnWgfUu73X35lEQIApF9oe0iDIBCSlliY9RPtky1kPFcAICtp8D/6cEEgJFWye6J98lCxAgEAMiHZ+00aBIGQ9MbCDB1deKhjn0WDACANgkAIJZOJE+3Ds+Trf/ed7ur2UAGADKVB3bggEJKxWJjCowu3bt7y8Luh8N3HBADSIAiEUMZYmKoT7ZOBwfBlYBAAsiLkwOFvvpUGQSAkq1Jyor2BQQDIYhr8z5dfRXb0MQiE5DQWVutE+/DXGRgEgMxpb2m1iwwIhMSmcKJ9ZWJhSKHD33xrYBAAMtdg+F4aBIGQuGNhWY8uDL85REFbiQJA5oTHd9/JXtcBlmmFS0DKhczW/mXr4MjwZ+fPhu+l+rWNqxqOHTjsuHkAyJyZHeDO9JWvvxgEQkhpLBx9NPb5lUuXr19d5lPk0O69hzr2GRUEgMxpXtsU0qAtZKBUTBklY8+AZZ5oH/6Pw998e/zgEWkQADInWfYvDUIJ/eOPP/5wFcii8acTyWjh5PRUMf99e0trX0+vRwhA3gyODL+3f5frkHX1K+u+ONlrBzgoOSOEZFWIdqe7uos50T5Ewe+//Op7JxQBQDY5KBjKxwghMZicnjrXf7F/4Nr404lnouCxg4ctOgfIMyOEmWZgEARCWITL169+duFsiIU2EQVAIMy68Bx3NBQIhLCUZ79RQQAEwuxqXNXQ19PraQ4V4NgJIuT5AQAZVb+y7viBw4c69rkUIBACAJAjIQe+dK84QCAEACAqe7bvPHbgsP3AQSAEAEAUBCrEOYQAQMxC0rDpdGqj4IPvhvpO9kqDUEV2GQUA4jc5PTVw59bnVy6NPhpzNaqrfmXdod17D3Xss1YQBEIAgIoafzrRf/1q/8C18IOrUWHtLa27t+0wYAsCIQBAlY0+Ggux8MadW5JhudWvrAshsGPbjua1Ta4GCIQAAKlLhoP3hs0mLbmtm7d0bN0RvrsUIBACAKTa+NOJG3duDf18N3x3NZaZAz98+51tm7dYJQgCIQBA9iTJ0LBh8UL22zabA9s3tsqBIBACAMRg/OlEiIU/zYZDqw2f197S2tayaevmLdYHgkAIABCzyempEAuHfr47+nBscGQ45yGwbWNr+EGpAIEQACCPRh+NhXz4+Lcn0efD5rVNG9Y1vfH6+vaNrUYCQSAEAGCefDj+ZCJ8H/31weTUVHYjYuOqhvDV1rJpTfhhdYNhQBAIAQBYtPGnEzNfTyYeP514/NuT8EPyJ+l5hUnYa17XVP/Kyua1TfV1deIfCIQAAJRXMn44OTVV2MV0aOTuM0lyOb8/GeVLfg4xr/n19cnPbRtn8t6rK+vM/AQS/78AAwCOPfEKCPWkrwAAAABJRU5ErkJggg==" vertex="1" parent="z3O-kE5tGYuGeqdBjOB8-36">
          <mxGeometry x="10" y="68.64999999999995" width="180" height="62.7" as="geometry" />
        </mxCell>
        <mxCell id="z3O-kE5tGYuGeqdBjOB8-60" value="" style="endArrow=classic;html=1;rounded=0;strokeWidth=3;fillColor=#0050ef;strokeColor=#001DBC;" edge="1" parent="z3O-kE5tGYuGeqdBjOB8-36">
          <mxGeometry width="50" height="50" relative="1" as="geometry">
            <mxPoint x="40" y="50" as="sourcePoint" />
            <mxPoint x="-30" y="50" as="targetPoint" />
          </mxGeometry>
        </mxCell>
        <mxCell id="z3O-kE5tGYuGeqdBjOB8-61" value="7" style="edgeLabel;html=1;align=center;verticalAlign=middle;resizable=0;points=[];" vertex="1" connectable="0" parent="z3O-kE5tGYuGeqdBjOB8-60">
          <mxGeometry x="-0.0299" y="1" relative="1" as="geometry">
            <mxPoint as="offset" />
          </mxGeometry>
        </mxCell>
        <mxCell id="z3O-kE5tGYuGeqdBjOB8-53" style="edgeStyle=orthogonalEdgeStyle;rounded=0;orthogonalLoop=1;jettySize=auto;html=1;entryX=0;entryY=0.75;entryDx=0;entryDy=0;strokeWidth=3;fillColor=#0050ef;strokeColor=#001DBC;" edge="1" parent="1" source="z3O-kE5tGYuGeqdBjOB8-38" target="z3O-kE5tGYuGeqdBjOB8-36">
          <mxGeometry relative="1" as="geometry">
            <Array as="points">
              <mxPoint x="108" y="440" />
            </Array>
          </mxGeometry>
        </mxCell>
        <mxCell id="z3O-kE5tGYuGeqdBjOB8-54" value="4" style="edgeLabel;html=1;align=center;verticalAlign=middle;resizable=0;points=[];" vertex="1" connectable="0" parent="z3O-kE5tGYuGeqdBjOB8-53">
          <mxGeometry x="0.2857" y="2" relative="1" as="geometry">
            <mxPoint as="offset" />
          </mxGeometry>
        </mxCell>
        <mxCell id="z3O-kE5tGYuGeqdBjOB8-38" value="Elasticsearch" style="shape=image;verticalLabelPosition=top;labelBackgroundColor=default;verticalAlign=bottom;aspect=fixed;imageAspect=0;image=data:image/png,iVBORw0KGgoAAAANSUhEUgAAAQAAAAEACAYAAABccqhmAAAACXBIWXMAAAsSAAALEgHS3X78AAAgAElEQVR42u19B3yT19X+leRBACdsW/LCltgBEsC2vAmZnWm/tvm+Jm3T8W+bpuPryNeVsMMGgzHD7OEBZtlAA0mwZZthViAJGSUJNmnSmRaMs7Fs3f85995Xem1MWLLRK53z+53eV68kNxJ6nnv2ZYzEUPLmzv7sjTKrvN4ezV4rA90SbXq1LNpyqjQ6zLWsn+ly7z33XLTl9S3RPd7cFu2AdTy856HzVdbHLlTbnmqstuY3VttKG122vReqrYcvuKyvgr4N1+/B/SbQT+GxG1YPrK3wnotw/RGs78P6L9AGeO+pRpf1MPytPfC4CHQRvH8iPP4RvO7LsKbBGgfaraV2xGU/I7zHDK8Jg79nBjWBMvi74jlc4Tn6IZCEhjT8ycpeLxsgrt8QgB/AXkfAb44OO75hgLmj95zdFRMGr7XB6ybA6x4/tSl6/iubonfAehJI4vzLpdGfwjWH13D3kVjOT8Rx/kIsbz0ay92HY/mnh2z844M2/uF+G/+g1sbfr7FxAN0l2lQjFV/z0QH5Hnwv/g3PsVjxN/Fvt8D/Bz4PBADEYf0Y3vsu6EF4XAok8TQA/FFYMwHcA+CeuWNSsFngOQsSAhAQg2t53xXDztfE0Q+FJIh2+R0xYn0HwI87/Otlcod/YeMAS/vX8lfjTae3RcfD6x58ZXP0UwD0MgD3GwDyjxHk9RUx/O1dMfytHTH89NZoDoTA8f5LJQNwbQULwA3gagbwNQMI3QCwFgBpi9jlxU5v9eCur3Z+73pBu6dW0FZ4L6i1BcDZIv4W/F14LaitpVFaDYJMkAwu1imSOBHLm4Ew8Dl4H1gT1pPwdzbC+ltYH4D3xXRICC4gBJcVSUFYCBdcGiGQdUBiRNBvl7/zt8qt7FUEPezyp0oHhO2e17vN696vGmABIA8FIP8/AHAh7uoIdni9AHp9eQzH61ckyD2g7pdLBzTDa2CNbgFtBcX7HnivBwhAgthl5QAkcd3Rbn/tavVoa2O1Rhi4imskAyQKQT6CcKqlJYEWBD8eKxQtkEbpYhyB1xbA+i34b7R/4OrfzjqIMTWiy6DI4HxVrHIXiAxIAnqnjxZr/U7pywNwzQDWS3b5N7ZFx8Dz/6MA/yoAuBl39LM75a6uwN4KqgFdgFynggy0a/VYWAJAAHL3dVm5f4B/dapIQaxIPEIlWYC1gJYIxhusHiQFtBbQnUBLAYD+CRDGC/DcItCvwuvasMHF2r4YQ7Co+AFrqolmxzfdhffoB0dy8wV2aHZ0fTTjL8QA6GPYn7dGmwCQl4AegD0CTPrfAEj3wfNN6K8j4OH1/JQEMO7mzWpXbwP2dtcd6s0mgMsouBc2RQzyWrkX6EI0o9WALsSndTZBCJ8cwv9u23nQ3UAGvwAd1C5ugFaABVYTBg8/Xttb3NPcBRKSrjfxYdc/vTWGwa5tObyuf5uIPVgAo8C0nwTAPIrAbqiQvrva4VteKhGAb/2snf1qNUAJoANLQUcKLi3ugC6DIIRWtBAweInxBMxUwGsOgP4OPk+bNIOwCMAyEAFEchFIukLerohhL5YMYJyPYn/eIk18AF6b3R529mS10x9GcOMuDya/BlJ3ux3+ugFvVALo0Eqo1rkM0n1wA0m4MSOBbgLGD4QbUW2tBsD/HJ6Lb2sZqGwCWAPNhTaRUaDgIYnf5Azs8MeLB2j+O4Nd3aJP2f31T9ZbwKd/CABYgQE8jNSjiS+BGX0J6F8u9Q/og4QAfOrSAoviv1+6CyLjAGQA9zDFiZaBqFVwWctAHwTwR/oyCVbzBRErUBmE6lgG3wf9gEmu18yPZq7CAezflf3Rt2ews1vyfnWb93mwAoYAGcwA4NW/tT2GnymP0VJyHYDev4APSgJoZxlcGlgUKUn3++AmIBFcrBNZiTfhucmgSdq/C1gOYAWItCL75DkHa6yJIfeA5Nqi+XWrpY9/Gnb89kG918ui7wE/fgvcv4h+PabpVBDPfa3BOyKAq3cTNCtBXlvRTWj95KBNcxGwirEU7uW2iRWge6AqDc8doIAhyWfIG9vA1N8gs1C445/SAf9cpS3stc3RD6NvDzu/yM+f8vn1rf726YkALucmeOscVMzAigVLbswmoFUgag1c1lq49/VzVVaLjwhE5aG8riEiIGkTuIth4Kt7SeDUJl9g7909MbeAmf8TAPvrZ3bEcHALRI7+Mrs9v1kaMgTQQe2BqGiUGQU3FiZh6bKoMXBZT8G975+vsUa0IQLlDpx3UbAwtIN7OwH4Krj3VoX08b0R/90C+D8DUJ3BoB7m69v69liVF+252cAPZQK4JF7g8sUK4LoF6wtajgr34DTc+3FjbVsi0IqJZH0BWQQhIwcLBrM3d/ZmlbPjWeXcMRjVN7sKBogcPn893vxqWfQPvcDfcklQjwcS8IkALl941Ch6IGxuLDBqFXUF1tfhe3n0P88lmmTWQKQOzef2yniP6EGojSaABKvwLYzV5DvE9ZGx+XBtN++YmuxN571WFv11ANHL6N/rgN/amek7IoBOKjbyZhA0i8Dmxr4EtAjg+iTc/7I3fVgtqwtFBsEV6+1MJAki2b94EKvKc2jXpucX2L3m/unt/dMBPJVvbo/hp7e12fEluEqjAxb4RABXyh60aWLCJiU39iKgwuNngQxSvESAHYkqYyCLiWIJOEaXI8scrHqRBP6ptUACCx1e4MP9VNci++4XN9p4fYUw7bE8F4A/gHd1Go8IoItcA8wiYIs0WAU416BJWgnL4bkBkgT6Mv0MAyQEzxTCkTF3/YJBrHKBXVyD6W96ZrZd/MMeKxwSBdZAHjzHDy4ZzCvz7J5ja+PcpzaJdlvl44sgH15zIoDgswhUjADbl0UdgZqU9Li+fkBzCzBYiFWFJEbZ9RePYrWL5a7/5ubh7Xf9r1TmOc4eXjaY75vv4PsW2N3Pz3d4QHndigSP9PMHKODL1QgkQARwrRaB5hqIGIEb6wdEoBCbj6ptY/REoIsVkDVghF3ftdCurmHXnyWDfHVLHf1g1y8+UDCI1ywaxJ+fb2/et8DhAUUS8KA+N8/B9y8d2Ab8ch0Q8CRABHCd6UOXt9wYh5q4sd9ATEOqts4A9yBClzI0+WIDFCQMSDmwxMF0O71v1893/Bfs+v+oWzoYgd8CoEfFawH856UlIBRJoDo/mZ8ssgKgFPDbEAIRQHBVFspORN09nVtgewWAn6GvHcD1vKgkpAKigJGX1jrQzBfXR1c4GJj2YXh9YtXgnq6FjjW46wMhAMAd7XZ97zUXJKCIAEmgaqGdv7De5iWBlwKcBIgA/NdvoGYWNGOzUZMcoDqjsTbarEgg7EKVNq/QypooZXhzpW6Zne2dKwfHgN9vXvBDu3adCbv+W+jrt931HTrg69XuIwLv6uDH1sQZggSIAPxYXuwrJmrRBQmPwf0RigTMAH6TRgI0nuymgd/BbOwOce1qG+j7A1gEvDa/va9/OfBfngRQj6yKVyTQNjj4cgkRQHCqjwTktbVZzi+0fgr3H/PVDcgAoZxiTC5Bl4nHw9jBpXKnP12azJ5XJv+xlY6+QAR/EhF+CWqdr/9ZwP8sEpAuQV1hgiSBAM0QEAF0crbAJecQtIpKQmsJEEMPRQJhWnMRksC7h+hMg06VF9faWbWK8h9Zbjdtn+owqwBgRlWe/R0V6HN37OtfrbYlAS0ucHB5Ij8lioQCjwSIADqvrNibKcDW42qrW7kEfwbw36nqBLCC0KQVDpFL0ElydIWdAUBlxL/A4a3Wqs13PAb+Pq8Bkx/A2qwD8jUC/1IiaE8CB5YlKtAFFgkQAXRNJaFYRYBQWALNeAqSN0vgspk1S4C6C/3t7y+3s0oF/tp8u87fty85tHSQBtjrMPmvnQT2LxnYLjV480mACKBrYgON3gChdAnU2QYL2qcK0QpopDMP/bTzr0yG//2KFuAT/v5rRY7bwN+v1EX5W6/f5Dc+CRABdJFL4NIFCOVRay2qZgAbi6KUBRCmqyQkAN+Y2Z8sVs5vZWDmy2DfCvuQqoX2N5S/fw1Rfn+QgOOKJHAzsgNEADevZgAPOfHIMuLXAPAOaQHYws6p8wooQ3CdcmSlBP+ZbYnsmVmDhGl1cKk9uyrPfmH/Ym+Kj+vAzztXZVbgEhLoICZABBAi6ULfrEKRKoT1HBBBjhYcvODNEJAlcI07v5zy/ErRQLZ98iCzBH/yQ5V59lYw/UUTj//9/eskgaUD+csdZAeIAEKsn8Blc3+sjk0Hy+DrygUwayRArcVXmeM/XCh3/hfXDTQt/vEwk0zz2R/fXzCIY7S/bbDP3oXgvzwJYHagozoBIoAQmUDkI4EWDA5+fFBkDB5XwDf5Wott7NyePgT0y4kG/hNrkkz92HimwP/koSWDtEBci76Dr+vBf/nAINYJvNxRxSARQGjUC1T7SOCCOskIiOFJ6QLEMD0JXDiQQGC/BPzLpdn/wuok+KK4An/yXBnswyi/vTUwwH95EqhbkXBTegeIAAKjs1BXL9CKhUNYOQjkMMtbPkyWwGUCfsrnf2HNQO8Ju/uXJOfLNB+W9No7Mc3nPxJ4HkjgyGpfA5GaItzpJEAEEJDDRlpx9Jg8z9Car0sNemcL8D0OAv/RVRL8J9ci+Ksl+AvagN/jn8q+zicBjA3g9bG1sToS6PwaASKAQJxM7JtKrGoFCnQFQ5IEQj07cGylBP9LGxJNIyPv0nb+RcYBf0ckINcTG2yXkEBn1QgQAQRsvYCWKWiRtQLSEvi4JhHBbwrpOoEX1kjwv1aSyBZ8b6SM9i9NnmM88HdMAjhU5MWimC5JDxIBBHatgAoQSkvAZZsndv8aqwkPJwlJEji5LlGsb1fEs7JJg80K/E/VLR1kUPBf2kWIQcGaxUkdVwsSAYTWkBHdSHIRGHRZJ7evE7gQKr0DGvg57852z9Qq/JJ/qlJ97aL9RgH/5UnAWyOg4gAvdQIJEAEYhQRs2D/Q2iJShLZfqTiAt2Iw6GMCJwD8z86Rkc/KBbK2v64w6X8OFDg00BgY/DpXQBGBRgK+qUKdExQkAjBQYNAlpg57cOYgkMG3VFAwTK6xwTtP4LXSOG9Lb02+PUyl/8ajr1y5oH2Rj1HB33FmAAeO6oeM+tsVIAIwUK2AqhPAgaNN8v69WgORtAJswddFiAdzHiiwa8U9FlnqmzjUtdB+QdX2twRWkY+xgoJEAAYcLlJta8EDSWD9EHb9UcoSsGjxgPPVQXRSsVboc7gwSQT83toa36t6kf1N7OrTGntkgU+wgP9SEkBXoHZJUpvDRvwVDyACMOzQUfenwhWwnQXtr8BvDqoOwhNrE1VzT6K3yq9mcXLVoaWDvSO8bl5jT9cHBetWxvu9PoAIwNAnFzeLYaPVtv3v748z6UuGDe8KnFg7kI3r+wX2z70xrGziULOq8itQuf5m36z+YAR/18UDiAAMflipy9qMNQKwrpW7f6ypURw8YmNNzxp00vCZsljv6bz7VMT/4NKkHx3S5foVMIIY/B3HA1yLkvlLxf6LBxABGH6egDikVDYPWX+hXACLoXf/WhX026+CfsdWJTmrFnoLfFqDJ+J/ffGAg+3rA27AFSACCIKSYTynEK4/OiBShfequgCzIS0Arcz3yAoZ9DuzJb63a5H9bTW62x164PfFA/RxgY6ahogAQq42QBsy2iLBbz0PBDBapQSNRwDHVg1kw033sNObEtjMb402qaDfzjpd0C+40n03mBr0gytABGBQ89/XK9DyQa0kAfi3y1KBQOO5ADjSSzP9tVN6Dy5NfkIF/dzK7w9R8HfsChzoyBUgAggB8PsOIX2/xsYlAdi+rK8MxHqApr0GsgC0YZ4AeotyAVKq8kLZ7+8aV4AIwGiTg3w7P1YEKr//myr1J8DfdGigsXoDTqyR8/yOi5Fe4oNEgN//au3iUPb7ryEroO8TuEYSIAIwotkvB4h+KCcJP6yZ/ecV6A1VCORZNxDr+xnnjO2eITv8ahfb8/X5fuX3E/gv4wocKky4ZJQYEUBwjgvDo8Vw11fXX1MzASznVeFPo9HmAxxRJ/jsL5Dn9tUtS34Ax3ir9l7y+6/gCmgFQjhF6OXrcAWIAAzSBKSKfrD8FyyAD+Dx3V7w18QwQ1b/aSm/46uk6V+/NTHKtdB+tnrRoCDr8OuCXoGCpDbtwkQAwVTth8U+tubWY2JS8FnQkVrA71ytBn4DDgXBqL8w/Wd6Tf+l6tDOZgL/NVoCQAJH18Rdc0CQCCBQq/y8MwBa8MQgORzUWgXX/fQtwPLagHX/x9T5fQeWKNN/efKE2sWOdqa/gwjgmsuEr21wCBFAYAL/gtr10d+/WCcOEJ2vYcfX+htrPJ9fDPjYnMhKfutgJ9ZKF4Cfjg5zLbKfqs0n0/9GXQH9ASNXYwUQAQRkfh/PCFTTgG3vARl8VQd+s2byG3YC0P7FDq3gx6ICgE/5Cn4I/NcfEHTwyjw7P6kbHnKltCARwM3v8W/U1/S7rGLXV7P/Ki64rDZl5lu0ScC46xu25//YSrsq+LELJju6MtkBP9qP1GivVor6+6FZaHniVacFiQBuaiOP3tx347U6COSfcO9Rn49vszTui1M5fht795BB23zFrr/Qzv6yK4ltmySP7q7Ot29Ttf60+/ttgIiDn9hobdMncLluQSKAmzfaS57+I4N8LXKwB5r8y+F5NeEH5/9bzVqKz/BnAJxYlaxF/9VIb/t9ONrLF/gj8Hd1nwARQJcX8yiT3+qGx614EvAn8kjwPfA4xbvru2zekd+4BsXs/+fyHOz4Krv3sWuh/QU1248Cf361AmTV5IkNV7YCiAA6faa/x9e+a8WTf4WpjwM8EPiw41fD4/v15r7+1J+gme+nVfxVLbRrOf8fquO7dYM9CcRdbQUQAXSiia8GdVxA/1717IvxXSLKb90Nep8vui/N/QvPx2hEwC5UBtF034qZw9jRFXbBbG9ssves8lb8OajTryutACIA/+/yOsCr6Tx4vLcAPbbq4m6Ppj5YAH+D5/K1oR1yl48xNerMfRnhD7Kjvo4UqhN98mTarybf/ntV8Ue7/80YH0YEcIOn9npTd562pr0077Wd3n1YBPYuAKh3YNcePH+bzsc3YUGPVsIrgnzBfMZf3XK5+59cZ+9bmWf/R5U61EM31pvUbyq/U0ypwnftObnR6oHd3wPgFysA36tAAB4gAA8QgEc/aDLk1WVtFTs5mutwfUFE60XEHnf2ZtzdEezYlvvJIQl4LNxR/v5f4PmNsH4b3tfGiRcpPTD1G3XdexeqY1hQy8nVDvbcPLva/R3TjxaK3Z8jCZB2nuLJSZULBvEjKxP5a1sG8Fc2R/NX2ynee60smuNwCTxtBk1WUtD98vvA3RyDdViOi8U5CHR+Qpr0TRLseDrPKQB0EVz/EgCdBust+t8/+veNIrhn9XbsYRXfuepYFhJyYInDJLv+HP3BDTgD4P8YdqhG2KGaYMci7QR9foEdVnsTfsdVC+1NLxbHNMHu3wRWAKw+BQugCSyAJrAAmmB3aoLdSayhqI36xy5rIzz+N1y/A9/Jn2EnPwyPMXC3GsA7Fa6/D8/lAuCtjTWXjuHGkt1GFdFHn/7Dbbew87VxrKkyhoWcHFjq0Nbw5+bbe8EPsyf8MKNgBXWQdorao7TveO+cQVHH18ZFndo0IAoIIAqA71UgALgfHQUEEAU/6Cj4sYs15BW+BwBwD7i+Bb6T8A8rP9s/B5CbgQzCxFrtS9+dr4HrKisLeaktcNCXQGJoaaqKYQrgYWJ3rxagN6FZj/rBkf7sPzuS2IUaAnyHFkBdoQNP+mHgAoh133zSTtUFdviu5Xpyo5WBC8DAAoDVp2ABMLAAGFgAIgqNwyRFDjpEtVG7Fv66zfeduORzAugqaNdUTUAnISEhISEhISEhISEhISEhISEhISEhISEhISEhISEhISEhISEhISEhISEhISEhISEhISEhISEhMYSMzMgVqz0lg43KGG8anTnePIo0YHV0Rq55VNbd5p5PV5jClh0zRRTUmSKK3jJFlNSbIorr5Wp09X6OBrhuYEJL6llkSQNovfi9wnOsZ+lpArC/JCMzk74EkoAWQQzFDRYAvwWIwCxIoVgSQjhcdwOiILlGGZ59L5s7sq+4HpZ5t2NE5oQ7QUeBjiYNMM26e/SIjLtGD8u5f1S3ec/bw5cdT45YciQJLAArgCEmoviMFUBibC3xrjEA9H4A+CjQyIiSM6YOSaGkAYkACQEtBnEvEoggvPQMgftKMiI9l41xyp1/mDO7t9OZ/s+M9HQO2gzqJg0sTddWZ7q715MbPrEU1H0Ssaj2k4iiMx/Cj/9DAA6sQaDez9HwAYD5PBBAAzw+Ai7ANgD6HFi/C+touBep/z3Da82aZcDKpUUAxEFA/ywZ68wQU1HHpmU8mJWRyTOdTk8mkABpYGoG/BvljB3N434yg5uXv8CBAHhkyVkeuekvPLL07eDSTW/Lz1X2Lo/c+nceueM9HrnzPI/c9k8OIG8FoqgH0K8DovgfAH5fn6twlilXwRsviCD34FIZ6hzPcp2pggDSnOl5uVlZ+CPD3d9DGoDqBM3I8OSMvcMz5Bs/8lgWH/IAAXgii854YFf0ACA8AIwg0gYPAByADlpS3wKf0Q1Ab4bPideSGMr/A4TwDyCEhvfgNWvh+Vzt9929+Ix0EZQ7gEHE8KJ6Aj7K4G98h41zpssHsQ8xMP9PZmdmcPiRtWSmkxUQkLu/0qzUFD52wud45PxKHr74AAcC4AgIAIZYg1KB3NRnlGSHBFFc3wr33UASLcJSKP83j9z8Dry+vhae/6reNcCMghYfiCghEmAjxzrB/M8UX8poZ5YD/MqL4kcGLkAGuQGBSQBOSQDgpvH09AweNaWMhxXUAQG8FfwE0E6FdSCtBC4tH2EluNFaQBdBWAXFDQdAx+uIwMI2/lvLKDC2hYc2CaSkpVvkmvFodib4/+nOFjQzCWyBbgVk8KyUsTz6f/O4edlxHrnxzZAjgLbWgbQIIoXLgCu6CKBIBJvfxXjBGiCCvtINqLdEqNQhrpGhag0Md+ayCc4Uzf9fpvP/CWgBbQU4ZSBwzCie9J0niADaWQXSMsDvQlyDewBuQvl/8Lm/gX5RV1NglmsD04KFISXjUp3yIsppAv//hM//Jwsg8K2ADJ6dMoaPePBbPDw/RGIA10QEwgrwaNegzSJguOVvGEuY1Z4EMC4QGUokMDhrAhvjzBL+/0hndly60/kx+f8GCwSmpfJx4+/hkQuqcLcjAricRVDstQhaME4QWXEOSWFXeHFDN2UBWLQMQUilCn35//QvZ2ZkoP/fSv6/cUjAGwicto2HY84cwE8E0JHW69wCYRU0i9RhSf1xuFZxAR8JRJaGAAlEff5hlp6WFobXqc70iTnZ2dL/p93fYOnAcbz/b5bysM1/BQI4QwRwBSLQPW4WRUUlDa+C9tOTAFoB3UvfCfIUYFoWeyTrTpMKAG7NycpC/99N4DIQAWAg8M6RPOFHU7h56z9EKpAI4MqxAa81gHEBIAFYT8KuH6XAb/amCINZUtNkADBhVEqY05l+OjtDBABbMygAaAzVMgFjR/NBD/+ch216R7gAkUQAV6NayhDTh8odaNinay4yaeXDQStjnNkqAJiDAcBPdAFAApeBagGyx43htz/4Ldj5z2jVcgTwqyUBX3CwWQQGixuWqjoBM/YSYH1AUJLAkMx72Li0dGHqjElLv1f+qJweCgAarBZAlQSPu+t+3m39n3mECgQSuK8tJqACgy2R2/+F7sB3lAsgg4LB6gqkODPC5Jr+82xRAOR0EwEYMBOQlsqd2bm8++qXeATWwhMBXHMFobICWkUvQUnD+7Dr29sWCgUZCdizHmC5qeN8HYC+DAABy6ipwPn7eHjZX70FQaTXEBjUSACrBjEoWFy/R2UFTKJUONhqA+5ISWe/+JzsAnQ603flZGWiSemmCkADEgCAP2PcWN5rYjEPV5kAsgKuPR6g9RAIEgBXANyDR9rWBwSRFTDOmSHW/qn3YAbgZZUBaKEaAAMSAA5wuWMk7/vLxTxs+3s8cuNbuJMRqK+rs1AEUVsiwZKCnf8MXHdXZcImtumN4CGANKdMAd6R6uzpdDqbslQGgEBlwEBgZhbPHDmMD/jBFB624z+yKYgsgBsLCpbUu8VcgZKGX2sBwaiSt4OnTPiOjByRArw9Y/wInP2ndhMiAKMSwKjh3PrQz8kF8F99QCs2DoFV8DY87ilrAupZzz2vBYkLkJImoptjU9JUCjCdGoAMSgCZmdIFiP3cIzycioH8Vx+AU4awVLi44YdaLCCi6Cxj684aPAMw4UssNT1TDgFJz3okK1MMAaUKQKMSQEYmz7hzNI/P/ZKvDJgIwA9pQRwmIiYKHRa9M9veFunAoCgMSklLFzUA49LSn5JNQM5mqgEwKgFk8Iyxd/LE1PE8csMbPKL0LBGAv2YJIBnA9wmPncoNMBse/DHffYJlpKUKAkhPc06hGoAgIIBxY3nSyLE8ct3rVA3ot1iAmEbsFpOEihtmq1SgJdzogcBBmfeyr6cOF0wGrsAGHAOGB01QDYBBCQDrAFJSuH3wMN5txUmqBvSvJdCCE4RgfRksK7NvaIiBawJGjktjG789QesI3JuTKYqAqAbAsASQztNTU7ndPph3z9/PIza/K+YCEID9M3FYHLgiJg3X365SgiZwCwzcBjx2HHvkO99k0gVI26MjAAKVkQkg2cF7zHueR1A5sJ8nDcsmIbCqfqSKgsKMPQcgI1te/OQQS0/PqMNR4OACtBCgDEwAaWncMTCJ95y5i4fj0EsiAD/2CdSLVmGwAlYoF8Bs6ENFxqRLAkjIvP+WtPSMd7IwiJSe3kqAMjgBJCTyW6ds9RUDEXj90iQk0oFb/45EcMi8/HVm+O7AsWmyCWjI2Iyeac70/2RliNNmiACMTACwOky2DnIAACAASURBVOLj+G1PFvFwPAiDCMB/TULYJoxHjRU3vAePe2qBQOPWAKSmyWDgneOinGnOC8ICoACg4QlgUGws7/XbNUAA/yIC8K8LIGsBiusvgjq0QKBxG4FSU8V6551josB0bCICCAYCSAcCsPJeT6zg4duJAPxOAL60YI7hC4KcygJIGTsOCMDZpJ8FSGo89RKALYb3/tVSIID3iAD8nQ7Eo8Vkc9BXJAHIGQGGlAw1DdiZkhKVga3A4kAQKgIyrmaIiUCCAH5ZIAlgIxGAf6cFYSBQ9AV8W7oABiYAp3IB0lLAAkhNbcJdBFwBD0aSSY2paWlOPsgazXv/72IigM44Vai4QZ4yXFL/fa0k2LAEkBiXINf4hKjEuPimgfHxHFYPKCc1qCYkckfMAN6HLIBOKAaql8VASADFigCKDUwA8bFxco1LiIq3xTXF22I5qEetpEZUIAEkgN6/WkIE0CnzAaQLANff0s8JNKQkKAsgITEpKiE2vikhNo6DetRKakSNSwACABfg18soCNg5MQAZBCxueNDwMYD4hCS5OoZFgRVwAX9A8UQAhtV4QQDx3G6N4b0pDdi5B4oWN2SrfgDjpgHjkwaJNe72sT3jEwaeT4iNxR9RK4HJ4ARgs/Jev6NCoE6xAEQhUMOnoMnKAjBuIVD8oOFijU2/r0d8YvI/E2xEAIYnAFA7EDmVAnfKkFBRCgzrP8JL6ntoA0INK3FDR8nJQF/8bmT8QPsZsgCChADi4/mtU7EZ6O9EAP5sBipRswFL6ms1DBn6kBDNBRDX8YkHEuWPqIXAZGACACsuOXEgj5q5m9qB/U8C6uTg+iVaDYChzwcAv58laNdx8Xswj0wEEAQEMDCZ95y/jwaCdF4R0HcNnwIULsCoFKbZAOAC7FYWgJsyAUYmABtPwolANBLMv+AvqdemAn8KFsAgrRMwwsgjwaw5X2JJjJmlO+BYNTBOEYAtlgjAqARgtfIkx1B+y0oaCupnEpA9ACX1RzX8oPkfsfGMcQnAsf00i7fFhamioMkD4xOwmqyZwGRgAoiJ4QNH3Mm70VhwP54WLMx/MRYcvs+Jmvlv6GlA3jiAfXCYXIf8fmBCIvqQzeQCGJUA4nnigAE8ISVXHAwaUUIHg/ijBTjCe0JQQwt8nyNVD4DxDwaJfeBhNP1FICM+edB/YxEJEEArEYBBCQCbgfr343E5X9R+vEQAN7z7i6o/t5wG3PC8zP2fMUUWG/xMAK8FkDxYxgAcQ+9WBOAhAjAqASTwxH59uO2Bh3nEZjoc1D+7vyj/1ToAH9KGgHTb+BYLCokbMUaUMsbekTEYTMiLqhqQCMCIBBCfwAf2uY1Hf/1nvipAIoAb2/3ViUBw/Up46RmLVv0XHgwHg4qdPzFZrsNG94iPT2ykakAjE0AiH9grivf73iQehgGrjW8SAdzI7l+ijgaX5v+jWvff8C2vs4ii+iAhAMdQWQ787d9Z4hMGntSqAckKMF4GQHMBev8in4fvkLMAIgjM130seCQG/bD3v7jhOFv+jjf1F1YcJOAXLsDwOxjYACbVHlyuFQMlUC2A8QhApAGj2zYCkQVwfacBy9Rfa2TZXzH3f49++o+h6//bS8y9D7GEfn3ClDswj2oBjF0GjFZAz3nPURnwDYFfuADNIu9fUr9a6/tH3z+iuIEFncQnq1qA5EGPJ8aLWgAqBzZoFWB8koN3W/kiVQHeQOBP5Pu3/BXXt+Fxb7X7mwzf/tuR2DIfwCIgkQqMGzR8QkIspQKNaf7Dv1v0AG67fRyPXH+aR5RSEdC1Bf3qtZ2/VdwTBNowQev6UyTAglLihowS7BY3Ot0KJuTHKhNAJGCoACAWAfXl0Vlf8AX+iACu/sAP78EfWPL7b7z+P7Xje/3+8E1ng5MA4gfapTVwz9cwE/Ca+lFRRaBRVPn+iX1u4/2++D3fHAAigKs3+9ECUP3+8Hi1VvGn+fyRwej7e0uCR6dhV6DMBCQmbU6M82YCCFxGSgH26cV7fev33lmAEUQAV5Xu04Mfdv6dum4/U9CDH6Xf1BIWH5cYpqyBP2ImgJqCjJgCjOFRWAOgMgBEAJ8539+jO+wDwC8i/nvDS982q3Jfs5b3DwmJdwyzqPXz1BNgzEEgWAl4y7Tt3jZgIoArpvpaxUk/FaLNd1vPTa+blL9v1iL+kZvrgx/8tsz7WdyQ203KHcBA4IcUCDRaBiCaxw67g0fkuSTwiQAuN9lXA787Eoly+7/QBVjkNfsV+OE1cH2WhYzEJw+WF5xjReAx74BQqgg0RgCwX18+IOdLPLygzjsJmAigzbHeWo6/VQz3FNN9G9xw/UMNA1qPP6b7gi7ff8VUYOoEltDrVouqCCwYCD8qsAKoItAwAcDbeJ+v/ZSHrTjJIze8QQTQztxXk33cONcPK/wA4Cfh3h0a8CO0Qh8Af7fSMywkJd4+xKLWRxLjRCCQmoKMEgAEF+DWn8zlYctfkF2AoU0AWpBPmvzF9W7xeMd7aAFchMdTIorPasU9Fl+qD3b9LfUhCv6RaSx+sIwDxN8+Lgl2lU+12QBEAgEOfi0AOLmMhy85HKIuQL1s4FHmvjT1YcfH57AzEiv7Shq2wvNDfSZ/gyKBM6ET7b+sC/CN78POP9RHCAlJx3VxAAJcgAcAbSNTeMSCKh6ef8DbBBTMBKCv3osolmO7RRkv+PdiLXtXmvrF9XhvB2imF/hioKevwCfk/P3LFgSl3sMS+ve1tO8M1KwA0gDUuARPYt/env73fdMTtuSIJ2JhjSei6Iwnsg0wDKzFvtV7Ph+oHNDZ4IbdvlmM7ELfHisgMaUHKzbyABHkwftG+yL8DeDry/x+t9K/BsdMv06rBxg07AuJsh6ANIBV9AD068N7fXeSCABGLKqFHfKsNHkxzRVMuult+blwd8dzD9G033leXAMx4M7/KpDCUiCIL0aowzvVjm/G3H4k7fpXsADGZLO4ISPk9bjs2+ITBv4NTEzYZeI/Bb1IGmiacBHnOIL/f7H7HzZ8Er6k7hMggE/AAvgQwPAh7HCwGlyLfSsA+QO4PgdgroedvA6AXAb3n4Z7D4MlMBSIr81RXRjgExF+Nb5LFPYUNRDQP0usqRNYsvf67kTbmJwR1rG5w6xjc0gDTnOH2e7MGhbjvHdY5KLa5PBlx5Ijlh5Jiih6ywo/9piI4jNWAIjxtUSsMUAAfeE6CtZIc/FfOvz9YveeOLRTN7xDRvffJXBfU1AwxkZfAklAC4DcBGQQJkBfLK69jTt43a2YdvtrdwNGO+Waez+LHZVqst2eYrKNTCUNUI29fZzJdkeGqdvM3abwZUdNEQV1JrAATAgOcXhlicG12LcCqE3CjMcy3WIJdrByvIBnhccJwCQkJCQkJCQkJCQkJCQkJCQkJCQkJCQkJCQkJCQkJCQkJCQkJCQkJCQkJCQkJCQkJCQkJCQkJCShLhF5T4u1W/4sZpr1FGMznxQradcqfu8R86awccWFLLVkBUspKWQpeF26kmVX7mA5rgqWXVUu1pDVKrlmi+tysUotF99NdlWF0Nznd4jfdM6+cgL41Uj4/Gn0JZAYXnJc5SZQM5BCGKgFSMEMhGCSxCHJIHPfVpZTvYu+rPYWAKzhbMaTvWA36gm7URSspF2k+H1bZk+MYtN/HzVy/dIoZ+nKKNj9hYIFEAUWQBTsfFHwgxZryKr6/NnyuiesPUC7gQUQNrjkfz/zdw5EYIb3hMH7zTnKgkDJElZVeSgTwHRxeEiPJXP7m2dPfAt+jB/Dj7IR1iZYSTtZ2Uy1zvhjU8+8aU1g/jelFhc2pcAKBNAEBNAEBNAEP9omIACxhrRWwfcg1vLzsL4H+hcggFfhuzkIIK8ALYTnJsL978C9THjcP7eywnwJIQARwPMWWE0aGWRXAzFUhhgZ9Fk1j8GPT0xfDZs3ZZopfwYH8HPTnImkXaaTOJv1FE9avYhnlK3hqZtWgq4Sa9rm1TyneifPrd3Nc2p2kSrNrd0lvpPc/X/iuQef4eMP7eV3HXmOTzi2j094oYqPr9vLgTA4EgYA/CRcr4Prn8E6FjSyHRmYgCgsessA16wDfwoNEuheMEtYAX3X5vc2z5n4d4Y/yllPtQAReGAl7TSV3y9+zxFzJ3vGFi33gAXggZ3ft5au9IAF4IEfpwd2LLGGrKrPny2vW2FVCtdV5S0AYrfU8mZ4vkUQAJDF+IN7BDHcdfR5rv5OA+haeN834f3R7cjAgnGELCCDka79LBeJAK6DVnoUzBIr/BDluWp5035rWvg0WgFuuMfVj5WTdp6CBcatS+fy9NKVHEAvFAhArnAPCEDsZvDDlrsaaYcK4Peoa0ESgjCrBOCBDMrdcM+Nz6PVgISAVgLca4Tnt8J7H4LnbtUFFM3wXgwoei2CbNfOIGWBJ37M+hTOF1bA0B3ru1vmTqpncydLK4BIoHPBD+6WefZEPmrDUp6mgR5WIgC/qWY5cc2CkNZDOZJBC1oIaBkol+Fd0DzQUV4iqCrHGIHFSwQumW4MKuldOF+lA6cIK6D7ohnfMy2crlkBHiKAzt39+xfMbrP7kwXQyYQgXQrY/cuVO4GWQXmLZhkgMQDId8J6d/sU45d3P6+IoYLdVbk9iFhg1pMsdt1iX23AvClH2fwpZAV08u6P6+3rl3CnIgBt9ycC6AKt0ggAVuk+tGZXSTcBA4pICAD0Knh8ny9GUG6BeyaNBIImhRi9aqFYey6aIayAXktn32uePxV/pK1aoIpA61/g4+7fJ3+mF/z63Z8I4Ga5CjJuIIKJrvLWuw4/y3MPPIPxhWeAKMb5XIMKJAIWVERgmTOJ3Vezk7H/+6nIm96SN20zA1cAfqxusgI6hwiGrS1os/unkAUQAC6CFjNQRFBV0YoWgbq3DIignywuwviArDHIVmXKxrYCVksroM+yueJDxa8rSAqbO/kDBf5WXVqQAOyH3b93/ozL7v5EAAEWK1CuAcYI4PE/4PrbuipDywOuTV5rYMzxQuOSQM/FM2VacPbEMFxvXTzzD6ZFlBb0qwIJIKkOX9du9ycCCEgiUCosAlibMTaArgFc7wC1eusHNJdANW4ZUlK2b2DsVz9gg4qWi8enOTd3WzD1RTaPAoJd5fsTAQS4RQAuAdYWyMKi8n/BvS/7sgXSJZAkYFCXIH5NvnQFlswRAUHryoU5YTIg6NEFBIkErpMEkERHXGH3JwIIxKxBhUdZAVxlD4Q1MP7gM/jcbB0JWAxfM9Bz4XR5Mek34sPcmj9zsXIFmskVuLHdH/P+3t3/MuAnAgjgikNfWTKmElswWyDqB6oq9gLgeynwCxc6d982YwYHkzcsFatjw1KR8/za/md63rJgWj2bO4lcgRsgAcvsiXx0u6o/IgCDxgb0pcdgDaBLAATwJlwPUVWEYTqrwHgkkLC2rStgW5l3b9iCae1rA4gErmH3ty3z1fx/FviJAAwVJNRchGbsSoT1PGimShWGjT/wjNZoZCwCSN+yBUz/GfLB5CdkgdDiWXl6V4BI4CrBD2vE3Ml8TNFyL7g1F4AIIHj6DTBdmHsAKwjLLwLgH9BIIHvfM1rK0FgkMHijdAWGlxQKV2DlR++G98ibfkplBahA6Bpq/pNW5l317k8EYMhORM0acIv5DeK6/Iv6mMBdB8vFDENDSdLaAlkoVDjfIuMCS8ZEzJvSqna3ViKBK5v+UXnT2+78VwA/EYDRU4XlotNQkcMDehIQw0sN5Q54PKx3gcxyhM2dFKbI4JcWX4EQxQNusOiHCCBYtNyXKqyqaBGWgBxQkqUqBc2GTAuOKF7OWHIcu/u5rYzdnWVS8YByJtuGKR7wGbt/9JLZ1wx+IoCgiwngDMORygIwZdYYcLjIYFUdCC6AYLEvVe/s1SNveoMaHkLxgI4Cf/PaBv6IAELPHcCAoKwTKD8gCKBml3f2oOEkZoUcHhK9fJ6IBwwpWp4SOW9Ki7dhiEigTeDPsWrRNQX+iACCqFhIgr9Vlyb8nFYubNgKQeeOjaxHnjxIBIAv4gGxKxb8IEzGA1pUPCBkSeBK9f4pVwl+IgDjFwlly3iAW/UM/FrVApgNP3p8WOlKxkYPYf93+jhjv3lMuAP9l85dZA7x+gC96R82ZxK/Y+Oyq6r4IwII0u5BV0WzKhHeoKYJmbSOQcPPFRxeLHuex21Za/LOFlw86zkKCsrdP3nVwus2/YkAgqAWoKqiWQwRqSo/mPH8DrM2QESVCAfHGDHHugJtFR/wvw8+c1vUoqff0IqEQokE2pj+izsw/YkAQqc3AMx+PIsA1ncA7NEK/OagAr+QLVuYdfk8cWktXCCCgmO3rh3SPW9aI5s9sX3TkCcUTP/wuZP5nRuX35DpTwRg5Ii/lvuv+Age36FNDFIuABsfbAeTpu8sYj3zZOtw3yVzRFBw6MZl2d3mT9UyAsHdOajArxHA4DX5N2z6EwEYtCEIB4VU7xRHuQHo79f6ANTKciqD9ISh0ZtXMjZzkrjunjddfOCkdYsfipRBwaBOD+pN/5ilcy4BPxFA8I8WV2k/nBLkwW5AAP+j+tJfjPpnB/sJxMOKl4mVc87YtN8Lkyd+Vd5PwpEEZvzRE4wkoAd/jwXTvCk+f+z+RAAGyvWLA0ZwhPhzeO/Xyte3ZOtmBIaE3I7pQZBHjzzL2K9+YpY1Anl/CJMnDssagSAhAb3fj0M+Rl7lkA8igODa+dWhInI+YFX5VAV+75mCQXeM2JV7BqQlcN/eMsY+P0GkPWwrFswKJhJg7fz+jqr9Um4Q/EQAhvD5MfgnwA9rnpbrx+PGDTkAxG/ugOoZyKwo8tYIxCyfP98SJCSgN/3bnOrrB7+fCMAoJb6i0s8tx4CVi3z43Uf+JBp9Qsrsv5wMLZKWQMq2dXoSyDM6CejBf+vCpyVY2x/o6QfwEwEEYqGPt8NPHDmuqvyWar9v35mB5YwEZND6JWIdq6sWtBbOzxPuwAwxV7DVSHUCevBHzpvC7yxa7ne/nwggUIt8NPBjc488EwCIYHF78KPPn3lwJ4G/fbWgngRsKxbMkCRwSXbAY4Sgn3n2RD5i3ZLr6vEnAjCeya+b8oOdfa13HRHg950D4C3xrWDpe7cQ6C8hAWUJpG5f7yWB2BV5vwv31QmIYqFALRv2Bv1wus/lgn5EAEE62MM33UccG374Wfx3EEUv91Rhft9n9ue6dhHYL+sOqHMGRGDwq58XX1r8yrzHIrF5SFUMBmLvQJuIP5j+ccvnd1rQjwggMGv7BfhrdnKc7AOAf1wV+Zgw4q+V+Kbt2UMgv9rA4P3Pgpn0xOMWVTH4X93mT3WzORMDr4FIzfPTwD9AN9qrM01/IoAA6Orz5fndePyXOhbsIWXqt8nzj6+uJnBfdYpwoySBHxyvZGz6HyySGJZn9Mibfo7Nn6JvJb7pGYL2R3mn+bnSjwgggAt85HXz+Dpx0Mc5+O5zvRV+CvwU7b/uYqFCb9lwD9U7kLJ1nSNq0dOvm3zzBDw3MzioB3/PvOl8XDvQdzb4iQC6/uBP3em/eN2sqvv+DNcOrbY/q0pG+LNDPc9/ozK8dIX3Wusi/MGJqp69C2btMS/y1gq03ozgoB783edPFUM926f7UjoZ/EQAN6md11XeitV9mOPPFod9lt+mAB+mS/kRgP1CAmAJmGdP0lKDFu3+gGVz80SGQAKyS+MC7XP9HY316ordnwigK9N83o4+N7byjq/DSL8s7VV+vjzuu7oi9Gr7O1vu2LySRS2aoTIFS7yHJsStWvhot/lTL7J5k7vMJdCDHwd7jNqw9JJcf1eBnwigC01+SQLN4w/tQQugGZ77ri7Hb9aCfeTzd5JkVBQzqxo3noK1Ar/9mWDcYSUr7ui58Ok3TAu9JxB1mkvQBvxzJvHb1y+5qeAnAuiiI7xkH7/7LjT5XRWn4fpODfj60l7a+TtbPB42WNUKLG48y25ZME34XI8e2YdxgU2WTnQJ9OAPmxsY4CcC6EST3zvEo1yY/Di8E+5vgsc95G5fHqbv5R+ziwp8ui4uULKCse98Q1zHqMNI5fWCx8Anv6hLFfrFJWgD/jmBA34igE7d9ZEEZIrPVfEpAP8xr8nvKhe/udzqnWTy3ywZuWklu23R07J4aOMyE/vBN4UfNrR42UhwCU6YZAmx50arB/XgjwCff2QAgZ8IoHNLemWUv/w4gPx2Fdn3Vvbhrp9VtYOAeDPFWV6EgUBx/bX9z7DI+VPDVO2Auc+S2bPC50/l1x0gVDX9Gvi7zZvCR29YFlDgJwLw15x+bxefyO2LQB8O7XRVzMiurlCjuivCtJl9uMJ9AmCgyBAcLvKYmLHIrLpUYcKa/OzuedNeM/kaitztKgg9V1Pb333BVNHWG2jgJwK4sQi/7nQeMafft+tXvAq7fqbP5FcpvsqdwT+406gyGlyCXgWy+3Lk5lUmNu134h9tyt9ei7xt8axZmLJjaBGoTMHl3IL24I9aOJ2P7ajIJwDATwTgl/Qetu+6x2MHHxb4VFXMyNlXEaH5+vrpPdnk7we+ODZ4h6+w/svm+qyBtfkp3fOm14mzCWdP7NAtaA9+PL0Hq/kCFfxEANffwKPMfTce0IG9+3g8F9wb237XVxF/kYEiMYgMLS5kt+XPlNclK0xs+u+8/5h9lsz+ecS8yf9RdQMe5RZ4TyvGewj+6CVzeBoAKzWAwU8EcB2HcQoCKBfm/l1HRV7/PXj8uD7Cn6Pb9bMqydc3rAxUk4ZQ+i2b660gHL55VUyPRU+vCps3hbMFU7WeghYBfiCCxMIFHvD3Pe3n+AUa+IkArh74snmnvAUVZ/Or76oQHotz+dJrd6B/b9ZZAOA/TiEQGV3wHILuC59WsYHVLHLBVG/DhnVlXnq3BVMrzXnTOJs7GWf3uwevyW9J9/XzewBknkAFPxHAVQ3qwOsWrOTDE3lUKe9e2PnH6Ux8i/dIblc5NfIEo9hx5NisP4rr2NULTeypX3vdglsLZv1Xj4XTXx5VtppnbluHoHKDtmrgTy2RREAEYKDTd13yMA6s5Bt/8BkuT+QpPwHPP+jd5UXfvprYU1VOEf5gl/TdW1jMygVM1QqwXktmm9k3v2rSagcyytb8IKVkxZvp5Rt5WtkaQQQAshYd+AOOCIgAvH69dxZ/jgB+hQS+6NevwH7974yt2q52fCzoqTBn1+zyBvloVl8IyeCSQmaZO1m6AesLWK/Fs3wR371lkambV/0UwHUmfQcQwZa1CLIWHRF4NNeACCAwdnzRqquZ+uDjo5kvavcR+FXlP8qp2hmhN/e903owtUe7fuhK/LrFLHfzKnGdvKGAwe7vJYL0nUW3pG5a9WMA16vO7Ru4U7oG6Ba421kCHiKAm3Xsltr5qyrcSALYo6/Gc50C/T6oD/iuCouWxxfHcNO0HhIv2LevZymqfsC5dS1L1RHB3cf3WlI3r34YQFaHbkH6jg0a8JAIZJzgJloFoUIAqnDHo/L3mM/Hoh3ZqQdmPubzAfA1cO/r2nAOLZ/v7dqr2knFPCSXl7Rt69i45bK3IG3LGpZa6iMCca9s9QQAWxkA79P08iItTtDS3ipI6cJYQZATQJv8vYrouxH8uQfAv8djt1zlH8LzJXA/V/9vle3yRfbHVxPwSa5BnNs2sDFr5rHcXbulRbBplWXw73+uI4I1Q+DedADeGee29dyJVoFMHeqDhl3iIgQdAVSV+yL56ho+kwjq5dTsErv9+IN7cLd/A3QSAH2g9u+SJVN4wse/77lK0a1HKT2S65bULetZWvFSNnzxOiCCdSxt0ypzynrfSLKM3ZtuSd286usAwAoA48eYPcBYgc5F6IgMPEQAHe305W12egl6VbF3+Fmuztl7H7QMAP4leL0+sIeTeVBZf76E5VRScI/En67BzmKWWlTIHuQXWGrZWnQFTClFhW3dg21rk8Aq+CWA8RDGBtIrijiQhp4M2roJfooZGJUA2s7aE6a9aMrRJvBgQE+l8JrhM7mAGH4Kz8frv3PRrOMqN+W4tDHcGNyjQzdJOtU9WC/XHWAdbJHuwbi1BaZ2sYLRcP9JAOZhBL6wDLav56mbVsqYQXFhsxZAvFFCMAoBZLerzlPBvBYF8FZh3h95jqtDNT+Fe/sB9L+F54e3Az2euGPJwZ78SgV8MvNJutwq2LGOpaxfzrKP7mbgBmDQ0ITZgz4D+rZ93ZY1IwD4TwBIn4XnL6BVgNYB3AfgrtCCiM3t3IWrjh8EKAHogncK+LILD0tymzFXL3b5Q3v4hOOVPPfgM/iec/C6nfD8zwDQDv13mFtd4W3SQbCXzvmVOHSDxnGRBITADi+DUH/ahAFClrZ5lRnAGXaJ9bB1bXTa5tX/DYBdhvUFCHy0DCQhrNUCia0p0kJwt7MSOrQUbjYB+A7LkKZ8thfwYncXJr0o1IEdXgM81uTDf+cn8J7j8J5FoF8B7af/rsbX7hQBPQl62O33VbD7Tu6EXZ92e5KAdhHWetfUstVICGgZhI2cM7nN63L2l1vAChiStmnV9wHAK0BPwOs+AveBZ+wsFvUG0koQpOBR/QkaMbR4axCQEEpXeoAAtDx52x3YX7X1aoJOdlugt+a4VIQeTHnYkcUsPQH2g3tEmg4n7OTU7sLg3vvw3GF4XQH8Nz4CmnzX0WfbfCdwzyRGb8Gqr82ngB6JoS2DzL1loq4Ag4dgHVjGbVxmaf/au0/VmJzb18WChfBlAPRE0M2gryEpIAlgWTISA1YlCmth0yqNHHBtBQJA8KE/3Sx2XlUWmyNn2rd6y2Vd+tJZrahGXUvfvBWBnS3B3JIt/lZ5c7b82y3egzHBhMcTcXE3x2DdhBeqRBWeIob3QU/AazfA4yfg+n64ju7oOxL5eizWcQnws8yq7eyRqlcob08SXJKxvQhIYLVyBdahmyAIQQQRdacd6SXz2a0WcBus8NoJ8LrHAOhzQLeDnkwtXXEOC5LQDcC4MCybMgAAAQFJREFUAkbNEYRoYmMgTZTFwi6M59WLKjnYlRG0He70eB8VXpO7fzfHIht8rxaJx7+Jfxs76vB5HKMFwP4YAPsukMwBuC6BvzMdG27gXjo87p9dudPcMeBFZZ5F7PYu3zFaubBm0KBNkpCxDnYUYQZBEcJ6cY2BRLAALOgy3LlsvumyZLJ3GxJDD+f29XZwMcbDex4CC+DHAKgn0acGEJYAsPYAOOvgHg64PAs77Htwv0nNuHfnaOW0roqLcP8juG6C9/wLgFmPtfSw4nv3wL2N8PqFsD4Fj3+IOXjQVLiOg9d1+9xHz1z2M+KADTTpZY6+3CQDd1ojDvr42+mH4Cf5/1kwsQVTlxBXAAAAAElFTkSuQmCC;fontSize=15;labelPosition=center;align=center;" vertex="1" parent="1">
          <mxGeometry x="40" y="280" width="136" height="136" as="geometry" />
        </mxCell>
        <mxCell id="z3O-kE5tGYuGeqdBjOB8-62" style="edgeStyle=orthogonalEdgeStyle;rounded=0;orthogonalLoop=1;jettySize=auto;html=1;strokeWidth=3;fillColor=#0050ef;strokeColor=#001DBC;" edge="1" parent="1" source="z3O-kE5tGYuGeqdBjOB8-39">
          <mxGeometry relative="1" as="geometry">
            <mxPoint x="550" y="180" as="targetPoint" />
            <Array as="points">
              <mxPoint x="300" y="250" />
              <mxPoint x="550" y="250" />
            </Array>
          </mxGeometry>
        </mxCell>
        <mxCell id="z3O-kE5tGYuGeqdBjOB8-63" value="8" style="edgeLabel;html=1;align=center;verticalAlign=middle;resizable=0;points=[];" vertex="1" connectable="0" parent="z3O-kE5tGYuGeqdBjOB8-62">
          <mxGeometry x="-0.4575" relative="1" as="geometry">
            <mxPoint as="offset" />
          </mxGeometry>
        </mxCell>
        <mxCell id="z3O-kE5tGYuGeqdBjOB8-39" value="Django Template" style="swimlane;whiteSpace=wrap;html=1;" vertex="1" parent="1">
          <mxGeometry x="247" y="290" width="120" height="90" as="geometry" />
        </mxCell>
        <mxCell id="z3O-kE5tGYuGeqdBjOB8-58" value="" style="dashed=0;outlineConnect=0;html=1;align=center;labelPosition=center;verticalLabelPosition=bottom;verticalAlign=top;shape=mxgraph.weblogos.html5" vertex="1" parent="z3O-kE5tGYuGeqdBjOB8-39">
          <mxGeometry x="46" y="37.75" width="28" height="40.5" as="geometry" />
        </mxCell>
        <mxCell id="z3O-kE5tGYuGeqdBjOB8-59" value="" style="outlineConnect=0;dashed=0;verticalLabelPosition=bottom;verticalAlign=top;align=center;html=1;shape=mxgraph.aws3.android;fillColor=#205E00;gradientColor=none;" vertex="1" parent="z3O-kE5tGYuGeqdBjOB8-39">
          <mxGeometry x="10" y="43" width="25" height="30" as="geometry" />
        </mxCell>
        <mxCell id="z3O-kE5tGYuGeqdBjOB8-48" style="edgeStyle=orthogonalEdgeStyle;rounded=0;orthogonalLoop=1;jettySize=auto;html=1;entryX=0.25;entryY=1;entryDx=0;entryDy=0;fillColor=#0050ef;strokeColor=#001DBC;strokeWidth=3;" edge="1" parent="1" source="z3O-kE5tGYuGeqdBjOB8-43" target="z3O-kE5tGYuGeqdBjOB8-36">
          <mxGeometry relative="1" as="geometry">
            <Array as="points">
              <mxPoint x="417" y="530" />
            </Array>
          </mxGeometry>
        </mxCell>
        <mxCell id="z3O-kE5tGYuGeqdBjOB8-57" value="6" style="edgeLabel;html=1;align=center;verticalAlign=middle;resizable=0;points=[];" vertex="1" connectable="0" parent="z3O-kE5tGYuGeqdBjOB8-48">
          <mxGeometry x="-0.1956" y="-1" relative="1" as="geometry">
            <mxPoint as="offset" />
          </mxGeometry>
        </mxCell>
        <mxCell id="z3O-kE5tGYuGeqdBjOB8-43" value="" style="shape=image;verticalLabelPosition=bottom;labelBackgroundColor=default;verticalAlign=top;aspect=fixed;imageAspect=0;image=data:image/png,iVBORw0KGgoAAAANSUhEUgAAAgAAAAIACAMAAADDpiTIAAADAFBMVEUAAAAuXYsxZ5AzaJIzZ5EzZ5EzZ5IyZpEyZ5E1ao0rapUyaZIyaJIzaJEzZ5E0Z5IzZ5EzZ5EzZ5E0aJI0aJFVVaovaI4zZo8zZ5IzZ5EzZ5EzZ5EyaJE0Z5A0Z5I1ZY40Z5A0Z5EzZ5EzZ5EzaJIzZ5EyaZEAAP83bZIzZpMyaJA0aJAzaJE0Z5E0Z5EzZ5EzZ5EzZpEzZ5EyaJEzZ5EzZ5AyZpAzZ5A0aJEzZpIzZpA0Z5AxZ48waI8taZYxa5Q0aJIzZ5IzZ5EzZ5A0Z5AwZ5ExZ5IxZ5EyZ5EzZpE0Z5EzaJEzZ5E0aJIzZ5IyaJE0Z5EyaZIyao8zZowkbZI0Z5AyZpIzZ5EzZ5EzZ5EzZpE0Z5EzZ5EyZpEzZpIyZ5EzZpIzZ5E5cY4zaJAzZ5EzZ5EzZ5EzZ5EzaJEzZ5EuaJczZpkyZ5IyZpEzZ5IzZ5EzZ5EzZ5EzZ5EzZ5EyZpIyZ5BAYJ81ZZIzZpEzZ5EzaJEzZpFAgIA0aI8yZpEyaJEzZ5EzZ5IzZpkyaJAyZpEzZ5EzZ5EzZ5EzZ5EyaJExYZI2a5QyZpEzZo8zZpAyZpEzZo8zZ5EzZ5EyZ5AzZ5EyZpA0Z5EzZ5EzZ5EzZ5IzZ5EzZ5AzZ5E0Z5EzZpE0aZA0aJMzZpMAgIA7Yok0Z5EzZ5EzZpIzZpEzZ5EzZpIzZ5EzZpAwYI8zZ5EzaJE1ZY8zZ5AzZ5EzZ5EzZpkxZ5M0aJEyaJI0aJEzZ5EzZ5EyaJAzZ5IzZ5EzZ5EzZ5EyZpEzZpExZ5IrVYA0ZZMyZpEyaJMzZ5E1apUyaZAyZ5IzZ5EzZpE0Z5A3ZJIyZpIyaJA0Z5I3ZJAzZ5EzZ5EzZpEzZ5IzZpE1ZZEyao4zZ5E0aZA0aJI1ZZIzZ5ExYpMyaJE0aJEzZ5IzZ5EzZ5AzZ5E0aJIzZpI2ZZQzZ5E1aY8zZ5AzaJE2ZJM0Z5EzZ5E5Y44zZ5E0aJAzZ5E0Z5IzZpEzZ5E1ZZA0Z5AzZ5EzZ5I0aJAyZpI0aJEzZ5AzZ5AzZ5HDW1MqAAAA/3RSTlMACz6M2vzirGYdDDhggqTG6NOXYiwDG1B+3P3zwIpUK16Z1eaqbzMBDi1MbJu3wczd1se7s5+YiHtuVUU5IBEfZ6/x6a0lKkNheJSgqYV3Vk89KRQHY5PD7vDRspBrRkjbkgmR0O3nvqWLFg9Njs369c7j9rFXCD9995YeBECJyvKhCkeE+Ou5hlEVE6IZc50y7NlcaHqesMLU12r7o2ROOygCDUq0I+XYS3I3EMjqML3+bQU0dltYz422fLXhyX9fLwZJp0KVGC5SrjyPHHBlWRfSnEGa4Dok3ic2RN8axYC/+YP0MWkmeSLEhyG8qxLkce+oWro1y3S4U3VdpoEmeo8xAABULElEQVR42u1dZ2AVxRZehNA7BCWogCChSUIvQigCAkroSG8KIsUgoUVCkSpNihSF0ILSWwhVihgFniBIkyI9IL2JIoLlPkjuznyzvWbvxf3+QKacmZ1z7u7MmVM4zoULFy5cuHDhwoULFy5cuHDhwoULFy5cuHDhwoULFy5cuHDhwgWX6pnUaQI8KghImy59Bqdn6sJaZMyUOUvWbNnVeE+RI2eu3IFOz9qFFcjz7HPp8gZpZz1FvudfeDGP09N3YQKB+QsUfMkI6wGFCr9cJNjpB3FRtFjxEi+ULPxKqZC8oaGlQ0JCypQtV7h8hYqVKueq8mrV3NXCxK/r6jVq1jLJfB6v1a5cx+kV8D1krPt6lXol6lds8EbhNwsmIXXD8MrpGzVu0rSZhcM0L9Ki5Vut1JnUuk3bdu071EmV1CmsY2qzv3whOnXu2MXpJfcRZMyU/u2273RVWq2Abjne7f5e5WeL9DA1Us9evd+P0MmoPqEhH/S1mPleRPbr/1+XgQEDB9XWt6GKSlP2w8odBusfKnrI0GGqJ7YUx/CPOvxnzwYjRo56a7TRhRsz9uNx47WP1bN/dw1vfWfQbWg1p1nhACYUKJzP9NKFTkxfXcNYzXtN7OM0lxURVLbXf+tcMOmTtyx7GaeZXED5BzSlYEr89qdOK1O2dveCqUeFt0+fPn2BT9NPD5+Reuaszz7XOPjsOf+Z3UB0r34xFq9+2rnzZIQgutFbdrK9UKmJo2rMX7BwfKz88y7K/8X0oV+Gqm50sn+SymnWpAQWN1xiDy+Wdl4mWsABy23avns8ESEf5lqxUseDj5hSoPMq5S3P6vCMTrPHbqypbUiFqhGj14avgW9pdIu0tgwTt3TuukwDDD1//Pr2hccokJ66wRhdP8H6fnE2sj8Z2SduTFYVRG+ard66dejmt14pXHBLxccYWvCjV9p0UxHQWl9tfVXP714CsWuWb5Pf/27/NNYced/Fim3qv62paXa80r3lY258HZ6EhhUrbilZeG1pXQeGuBw5N6xruV2hRcTs2h/vHPlNngTxLAMnffNtrlHf7ZD4nS55c90ai87s8bt2F5Kb3Pu7nOaULZiUVenXP3pz1vr9V+yR797zf71KvPfmqtf0CIIkgj4vWKBpvIYJF13z/Yy95BsSWnLnYmsXJHbfD3Iymm6/o6yyA9EHZK9RYtqU/PGbaK2ERtRd1j71WNlfjwqyf3RQ563CoV6j+pU+/HYmW1YluOoR6VdbvuWaF8Q/0OSwzM9x85bii4wQnHB03U/v6DxMHtty3Pc+r0VrhEhO9p2qTs/MQqQqKfn2j+yX2dwlX6qB4TW1vgtqlTzu9DLIYUrBKIkJB1RMME/aN7BGajces/dFa9QeJ+Z1VxeCkMwjnF4FJewZKvWB3Jzb6XlZguDKEsqPkzMmWTnGz9PTDZfnflDhBSn1sEXzLDx1+jGeKfJztTA9qt2VlVaLJx613Pc+Wboxvpz4wXYUt/7BmndoeUaS/QFzF9r8iMFnMzWqPGpyuR1pBa/y0X1Dtr3xwoHG+bUod0YckBCBtkVtnrvtKCJWxa76wq7Bctc/J7xiinvTRsurHlU/Pf/RhbyJql+guLQXSq47rvYVKnrxkqjn0p/tm35KoIroFrZMR1sHHF+vLf4MP1th20jz3x/u0YeAHG+UKKL47jv7k+iOtFYvW9fLZtQX7v7zzrd/0IxVvvNuqbodtHOcX8rqFIAkdE13+YoC0Sk7hB2Crtq/ZDYhOLXgWfpcba6xa8L+IkWKfFPd6Bew+RclV3sCKijr7GOvPfNpeOfCY69vDu3W6jFeCz0cUvarj25UrrLvpjaFb8fDGrkuQNojHWVVkbHTRfYDFfxUKRQ7WfAgF1R0qYH7q44rcX53ulKliR4+qGtoyK3bDb6e832ThXd0jR54QqF99Pr0H2a7pMCixNI1h7bIpHp0DMx115gIeLoe6SDH1h5vChuX80s7gdgjgp//HAWjp4y7thY+rGYemDjtqwa/Ns5t1nAm9/JyGq37Yw6XL1FV+aU1YpBhW7MxFabIEN14T9B02CEnOWkMwRXYZ8iRX65l2MHdm3XZhxW60PvTusZu5YIXpM6rk0+RZWdUVXoHZ/jN+BV3tt+ltX0ZbgkahvrfYaAh+wSTZX631SvfMmYelu/62zv1+lpeO3/SGKPybUuv4I7wzGbDEuDplkXSVTD4quAnMfWU0wzVicvM9GNelmzUs8T7xpfuCVqXWz5FqxAEf3vfjDVKwPPrZO9oA6dPNU44sYGkUnSkwE2mVhOnWaoLyxgBrtVBqs0fRy7pWSg53Ot3YI26YjF+XmnTI8Vdrye3G7uT04Rw9RkqtV+91oZtdel1p5mqAwtb49RXF5Fo0uuBFdz3Ymr3TWFK84nOHGrNQLUK/iEzxEC9ewtE60ESd+KparONopY5zVbN6LkUJ55WYgNzNJuF7E9CzIU/ZXX+HZeap0/QpoX0uWBEbzPmroU2iSnGCvQoid87zVituI3T7iZWxq+/bzX7k9Hph2ckPgY3Z1k8TKH60hqmo6ZskB9KaEkusxvkmE2cX2A6Tnqq6FJ7RG/7PDSziY5VsQcirR9m+BbJDWFYYTNEIz8RS+8X7H1DTApo0s2jLq54H9Hx5ahFn2MpFDorHK3aBXtGGv2D5LmwhSlpK3VNRHAN60UTNcRp7qoj9hxMOEj42RpgZrushkSR1dcjqyJ6iJEvS0+Jp/+mkxmaw+eJCN5Mw7SoJbWh9i20x/n+JajMs0PXgujEdMFogRVt9UOZOkdCB9Fzrymab4qkqgerK1l902kGqyADfrXeEFQe72YnQ0oKRltp016T4gMJQ9Pg50xJ3UmRBUNYCNPgsCEr6pRDW5hrDsF12k512xkTWCU4nu03eFmrB3FvSGwFHplScEVsEF6aCSSgrU8bCjaCmeYTHMyn2/pCzi5Qque2xzFUiDESR7NfjF4SJ+Oh8O7vDivKFZ1msgJG4Kb1b7Zuna38DzrNjnbqnnma2lBT7NA22FxAsW4DBfQmMVvLuG+dZrM8wnFh2Krl9rLhPDvaHynGf4+n60HROoR9ZopiRA0BvWrMO6WQlUHzLEUYmDNNZX8YO+1lQln2w1gkZQNClRfFdRjQzxzF3QIThNzM7Uo6pxkthxswyY1MTRPD0cA0oRD72azb1TxJXZg2RbgU8W+ao7hWYA95OgJrCzjNaWlMAvOo55maxWN0Pr8+BLAfzUlnzJPUicTKwsUInGiO4irBhUM9rByjePnpGD6kMwz6BSuKaojVYQYzmGlkNGlmYgxzhTZPsTPNEXwgYPLbWNnOaV5LYXAEnSCrlClv79o/z2wAYtuap2gE7wsjFgZ+Z5IgayfS/AOoSzQQKdV2VKTzi2R2gOPsXfko1tOikr2jyWOM8KYmvqY5gqtYRdoVDCZRwWlui9EFDOM6Y8We1bofXRcqMdM47Vw44MSNgiVpbsh5iKIte9nwI1SNNhc02w7Mg5VgEuSU0/vc+nCY8bLJY7O0KSKuvmBNipowGH4C9nceWwaqZnC+BjBi/AnLG9m76AHM7UnwQ3tHU8OHggvCs8fM0WMdA6tCTVpfcxgbQucWg9ZNCWasJTUgJzOL6eYJmsNtgddfXXMqyaDiDDUMtOdr1kFgwzoRyw/Yu+B9GKv6xZZYmptCW8GlZEdze5LWzA73KNT84zTHWYTBVe8aKF9pwmdCCz7GScTaGhhaI8YKLsFNXoKUxvv/4M9pRT7fii6ei84sBMsr6n9kPWjF6MvmmSdoAS4IJMCkFqQw0poDFS86zXMGYH1zGYqL2meUl4QNOIcwJ08AgLJsTKD4UubINcZHhBdtSc6H0IxasEfij/JXe5e6EPNj223vYNoxi92hHzJnm7Id7xpfoeWdnGY6ogadV1YoDjTojqsVzLn7F9/JCNWdvZ3+xVzCmk+AFHxqPb6Ug3QtnRbGuv7e3nXOx9yX3DJP0DLsZpfnd1PEpoGVYHUob+Q01yma0R/fXbRpNPn1UwNzJ3ba3rF0QmAQX8EUsaNACSKMP+c02ylepLPCrUk1e/NDxGCeoGBbXQ50I4j9eQ4wpRNODZS60+LuTrOdAiwBxkHxVXsXmVGFPLJ3LN2IWsCs0Akzx6EHQOg56WKHQQ0+ElFv8Y69a4wR1YNz2DuWfkxlb6n7myAVAIsK24kxTrOd4Cyd1C0ormvvCh/GKfSydywj6MQadHxoghR4BK6gpXE+E1D+Uzqp5VCcxd4FXodTuG7vWIawjTkMDvjAOCXYUFSD4gycjwCs3zAaXIityxuJZ8B9tg5lFF8zq/Szcd9x0HekguI/OB8BDcB0D4S+mZ0pAj2ej3AGNhudGEQQ68Pzp2FCW4AKKJV8JZB0fASZ0lgoNrPt0YB9MNRNe2XNMLoyztyBZYzSmQlUQBGQ3mnOe7GQTukiFB/R/6A6EIoKpxvm6dmDD5h7oaZRBsnMAiIhtHir05z34lk6JVR/bNf9nHrQEEZKMJ9O0C78wKxUuEEqnwENMHob6jTnvYCgILAH/NnelcXgUzZ/bMwgCNW4XLRBdeXnQGMuLf7Qac57MYjMKAJOppltXdg2OAGbIkFZgmOMk19+Yz6SS4BEO1o8kfMN/EBmlAZK3zbwoNqB5rIL7U9JbQIzmbUaZYhGFFAA7cpepznvxUdkRq9AqTkXeRXE4T1QQ/P07ARjvpvRWNZb2EvCYfK+05z3gobibEALY201BtuM45sKzWY/sjMq4XqGaIDSKz0tzeY05714l8wIFMF1bF3UUTD8lBRhowk0wMWKNeS7DL6WG2npKqc570UImRG87ezdmWM2b5sNj80j4BtcreNGdizgDLyJlr7lNOe9oK9gOJv9a+eSrsZrFhtjz1oENlrGbQMUTtDuYPhwwWnOe0HcceLASPcjA4+pGRiB8o8U46Nx9MflumlAHwjOdo1p6VjOJ9CTTAiPq7aaA6LC0cfPAElIy5ivb9FPAO4UQO+6zWnWJ4NeBeA3yU5FcBzGSQtJMTaawHlcsEn6XwEQfQRMgmZxPoGBZEJwQxtvp5E+qgHH++hFIIvWjAG7fg8WyE8A/m+3nWZ9MjqSCcEFzTU7lxMDkBxMMSaawr+4YtUj9HaHIOKVaamPOAhTKzXwChyo9xH1ALMQ2ByAyiqwrwC9AcTi4NTzNS0+4jTrk0Gt1MBCxU6fIGYL0Dcl2WgC53HJFuvMljkc+sL3YwvnExhBJjSFFubS94S6gObA+VOUiybQmnFk/0df5+3QFUKQnud8A2RCEK3DztjQGBXG8ZgwmsFwK7c+deAO6EoV74wJtk8IAFgDXLRxKevB2G+kMBuNg90F6DNh6Ac9p9HiFk5zXiAA+aCspY1LWQzGsTkIrZVgjMQ36eqKYdcgJ4+vuAfz8zkGZXN1PaAuXIJQbGE+bQvCohXaBiXoimYCsTAXQfFIpzkvEIAPoMxc8ixFoIVkx5Tmohkw8Wxe0NPzIO2HppZVOd8AP59SUPaVfeuIztLnU5yLJtANbcQX69FgggvQLiiuw/kG+Pk8hLK1Oh5PJz6FYbaZJ5eCYBw59AQ0AcUH2IN4VnK+AX4+eDdxzr5lxOSZ/qIGSkYaDCRbRXu/1tDtL1ocxfkI+Al9B2X2JW2Ig6BZYY7w0Thw265jG4ibKzhebed8BPyE0ADavngNaWGUZ5zho2G8j8umPW4Q3vp9SYuHOc14oQDgadW+tJ1lYZT25smlLPDg9rrmXhgPF4LF+og5ABWAySkiAC1hFHPBtxzAuzD5wOxae2EiCgiH7TOJg/gJoaVeG60PpxvtYZRzzrBRFyJb9Q0NDf0gJGTz439Cx8PsNZtNQvTtHlD8q9OMFwrA3BQRgNdhlBTMD6obkcN+qvzsghMZ5ddNq49IAOgPTkH5OM5HwE8IDVTsCxAG2o9JSu1GLzkc8hib0zqQQ6BQ+Y0LA1XXrZpGatOgD7pbTHGa8UIBwM2q4WAYqkhFBzkq2SAqW85P5i+EX96iTPM6l9Y5iglM3X08WNvCaQwijT6gEGEgrqi2UVJOANBX8b62Z9OPezDIZVFt19tzisRLTrLa5ZQJJVo6vfZEDu9qI4lhVybTYp9RAxABwHNpOrsWGGMltGOr3hl0SvG9+8dHEXazv2+BWE47Jmsjugm6DKPFXznNd5EAdIIy22w18TWDKcIOz9BwNXLFZFJvFQTcGKE+B8BWbWTB/iEQYoS95zTfRQKAoUttCw9RHgYhSaJb59QaMu+0jQ4rS1donASPGprIYtgVvAzO7DTfRQIQA3sf2+5pwTE8NiK5KMePOvInhdU2NbwCti3SPotktNBEF/XHEJbdd8JEUpvAQ7TMWBwEDQA90KEnfweVO61xz83jqj1WRJ3Vz31ClNBEGNOHQnyYoFS6x7MJRcmcTtHCIZqezQCq0DHyezyRBRfqn3ANO7zJOuufB4Z+VwCafkI66lCn+U5AY4EAc6rbJQAD6RgLEltO0j9dTuurVxfK63wNJaGdJtL/gx4QC6Gt03ynfCBz+pMWBkbYJABN6RjVq+ufbDKGWj2rB80lx2l+5dUC6dP/lT79xiqPTp+uWuSXa0y8IE2Ws30gBdlK+HrdcJrvBB3InPA1aFfK4AlWTDn2S/MTQdyrJh5jf70jpcW7jThM9KPJcPI6dBgJ5VXUHjLFQHNal4PSV7Q8nH5EaHzV9ng91/mChQvPeuOH8I4S34lJXS2d1XQh/ZXTS8lsNDCy1yottDHYLJ6t9nO+Ano2LQ2l2r5vurFEfT4ZO1x8yEbjO9NugbDR31ZOaodA/dejXT7Ztl9CO03x7X6HDmNp8V2n2U7RjEwqChbCJqe9zcpzCS5yfpWk522ZLwQtNf36NOIoO4d1rRXaomOjpsTaoOCMBcI+EhziCQLpyw6imR3V8nD6oRgcM1PLJfI9v2vGtLUwzSAbrq+o9+MX12Z3+9NNxwfeXHb+PnwOZkBTLU7i2eGblxvKP+F8B63IrOCncFbDwxmAvOBP2ppGuWvexUx760LZMtuxCcmWEHnXQWxHrk420vhvWjpCC/E3gcyPUL7Aaa4D6KdsHpTaEyq2vMwcmvwWodo3+zXsoc89UwH38Ag44NyTojEbBbuCPOTHPgREVgt13F9CYJEIHdpv2zGMTOuGZKmVaCk1geBeEvYnJ7f+8uQEPeDOwsZXX0le/8Non9Vc0xdYA5hALe89Ken6s2iK5N4KXkOaMiqgpnMpLfYZk/AnoMYfhaF0oi0CIKX+eFbC/iwunFHNN5tzRiQ+DSyaEkYDz50UHG2daIrNE/l5wesikwbihYBIHig3onm2DVnJtN6B0hm2CMBF0ej7zkm1E2VTSbj4+C0QAPa1jFbFBIIw8EPhpCLx/URHvnU3KHxRA3W0s4T0jMzh0HHQJAiR8Ol7VsPj6cfHgrEHy9zuXhNPs0oM+4oa0Eff0DJAv60JEUlFp0RjE09QfHVrCaOD/qQYW8x31EAcE7oQ1t2enEHsLzuhvpzJr5Tj7F8eTwwm27TGhR29IbyhsRoIR6YBnmtD6Q8aqGMC4mO0OA3nS2hCJwbqlmhj6XFUgMEBuNzy/kcLJOaZMZE9PltjtILJa7yuHgFswkjuCj0oozePBrtJVHwuhvKCTvOcwR06MYxbZYt3GG5+Fivs4ytITbQQG2F9mSUzegQUT3rLLjHBW/4H6qmXoVyDB3VWaP4jlG/ifArdyMTQP/Q3OwQAPZCVrhsSF4uneSeAPT8fsmRGUyhB6q0eM4gYp4+4irGhMdurBr8mDIj2HS2O28P5FGiwC4zfo83eRSdwFzdLqeGX4mvDJCNcjKtjiYEobHuKQPGZP688nkGqIb3ZpJaQWHGCOm1kdDD4kr7kNMcFoCbAaBis5ZSjG2gMX1ix5cvCWRZL+iVWhhJL7EPB3VMQ9CMyrSijKabU0JDpIgQmi6mRRLtMhwHmzbDLbmqHAOArRjkWYYDgqDw4+feOHqz1rZjRAMl1kAHqdTToorNA80pQ/ojzLeyjU2tMSwPt8MrE6+BKyk0DzqMycKDXRGAplGkP0aAA8ET7VbXxORhdg1sI5sa6Tovj2ItN53GHzg1l9i2rue9hvY9UA1IfrsIrXo/W5m9k40BDsNIKA3Gwzr6q2rg7TF89PADmxroDGThQ4eobuEvmhgYvdhgFoSq1l3rz4f1Sh4c3LIfBxDC+wEl1CqoATfDLqo0rwuDnVFtjbuD+MlR8AzRcHzLIUrMrLzAesbEQUai4KWfBjMDiUN0bBsObqEcJOwitMSr2EM7XAJm7ztLSuhYsrxCYO+N/hiigMtYK83DIlah+/QE3hz1VGweADXksHChqSTvAO4lGdHbFYdLDVZ9RP+BKv7ohAhhvw4oU92AFpZ7EFm4j16s2xiRsC6DcV5KGA+DiB4Oi25FAHN64PQwRCIAbeSuSTkLwR/W4lbB9b6TaOByWEt9V6TmfQyw98WFuAy3XXXoBRrJ3jFEAd/uMFhwDDsADt1ZpGwXqyQ2qlFGbjXkRBnO+B2qSdRdKP1V9Rv34hZIvaowC5nE9ZowEAq+nPlBpi4vzoRphdAvHu3WMkeIzgIiN4CNuhy5wHyWvyapWjPMwbwuijaM7lNrRvo2eoetDYwgRzd6I+wpACWrzLnAXJZ9gjALeJ71nfkJ4MaOmCMDL6AdqhCFjOKoBGUWGzwDuwdBqT09MfI0AW4tYYxRywATnGSOBiASFcxOVtngEVfv6oKnZWfAsySftiOwwEqj5D/ru2JA7rDGQNxboYTT4W1uR4LQuJbdIZUZoLqFmkYgKK0gXy7zAfAg0CN89UNV8YQnPGWDI/URjJOAgYYX/Et46blZuCjpc1dcXBj3DL8BBp1ktDTCyhxAOd6wPx4MJYwxmKD9NKQTnM0YC8QLMSGVPAb/qLipU8dpzP7xYRvtMfFAWoFPD8GXWR2iFiDmBBknkggluNkgDcAvIqfgagEnqHRWq6ER6AMq3Oc1pGeSnU0QH6CPm11eAGpT4AIMkzsMECxukAbgEqvkRyqbQYKWkYhAWh2eAbFAxj/NNBNJ3KW5frQ/H9CMlvsggCUxs0dAgDQTGh3yo2BIuA1W0WHgPMBg+pAE9nOa0HEqROcaAiYT1F4LwCbhjkASeUy4bpIGA2FgqN8KgxU+l+TG5P6H8eaf5LIstdJJNaGlsK4/FAENpo2bdaBU234IpoS4wTPFkAruPQMX9cR/c6mGY8wOcrwJMHPEXYXkG0Z2U9n6DJNCoRP1SVh2XUDWjGH8MokMo6wHQdLUaiEqcRDgyH8EJOkuM4jHIKsZLrOE1ozQg+nJ1K+bUAR74oFJDPCB1U2qI6l68BwjhfBbBY8gs0aHN8lBBkEHLsPspbKQ0eGeoAx3+mo9RaFgCGiqFCDuGAUZCoMKXIgMJAbdb8J7qYrWLKGgCcxulAf778VbMqROug1KgfFTvKnkGom01+oQG5XGaywqAlz0qR622DYfLoF+M0kD3MIPqZBZgpMAVU2iH8U2el28Wh6Yg6GF3i/NhvErnuRuKrThoIxZQ0seN0sCYgRFWTIoJW6GQmwhdW9vKNysFzYLRdB19RX0OK6nCGvXYFgViIQAjXMOh/vA+wZLQ8XlxIX6Ub4d63MnyzXZCM9xERfV0msmKeIlMNAByZyzSEg1RB8AgToNjiDTmUBrB1sxqPazDIvkLJrTy+li2VVcMAYextnz0JpjHZDpTuG+zOlwceHb1N0oDcq5GWzOrljILIUB2aHVAttUWaFUU1QWNnWaxMtLTmaJteGqrWJ+EOLC/MWzVD9Z2Bs3KhOiKuiD5vUkQaCBkFQZxV6QX1dPKJ22BKL6hUx0LxY2t476H1eIZ1uOfpzTUruW1ggkX+7lsM0hxIeuaXBZJYQRMybA3PgS4EKwFv9M7lmboQSWTljBrkoDTWEaL5vUQV0LeTXwBbSSrxUDn/4VYsY/zcUAmVNwUWZpIHD2jNeZdFKM3paHuoacNcRgcMkw2MgKosZrJNCmEnn/oEDTbSFqiFAUc+fE+SDmQh07clx5PH2DLdseqiTFRWwrKtYIoasFR0k3OA51oTHzhuxeBPDrSyWKYgCoeC4HXZL2NEoFttjH/Qgnkw9CUsq933OBLByeIwRigxaEiisk35ZMoSo00a4Hp9SErLUPRLeYno0QaUhrVLJsZhkiUzQuO0f+lleSM6y9GsULR91XA/QbmNV3qsQ74balplMggSqOYURoinMGIRONkGmGMIOk4iq9Ci0kRUNGE832AN/BfUCz7RTSAAkDXsPc5TE5LyHaNaAxTC5TJmrcd2kh+wTrhTg/vgTAhl8/iezpf1HpblpvDw9pezDZKBOL5W5g6aC0uhUzOrAi46P9EqgG+4aLvQoXvbwEfYzz92g+3aRPwDQxnOCkNWFxaGdR+CsxtQHbpNhD6c6NE9SXc6cHvyR+2gE8AfiBoKy2vGdMNWEDjR/hllIiVIQyY/ZtMyDgQ4F0S1ehTwbjW+sMWkGPCBGB8k86WrXEA7LQMGwQhF6xMbxgHsUe4ldLvJ/iESURPiAO3Ou5nfHH6vBYwGY3ojFGjbd17FqPQGY/2DvmH/zRMRAK/4VrckGwCNq0SEYVeQQIYZhGdbXwZzajePwoutcMMenGKgaYmJYwSiQQiX1spAEGoD24mGR0DN3liVWBHqE2F0eRzcX4C0ATgfl01GoZW4E9ki1EimG/F2stqDO0JqZQAaDwmUgWWxjMgxq6Y6ktZAhXxAp00ek1bEZAxCZg30rAeaC0QsTa5XQxac96RihmGVwbZhJVMEnIMOCXKgeazAAtAfFtbEpb7CUCJa/yWEZlQ1lIB8JTExZDKSYS7eaFZaCtwqmSsSgJuOs1XzQD36Dhwv2huVeR4TPdgOAIVelhbnNgoAiw+uJ4SjpFtoV749mFiQGNlTafZqgNwC3IQihU95nQA7tNXGiaCxgrqEZv14UNcDAmDBbT4FriQMCntJqG/gk/GBZMB5AtFI/jKHmsAS2FYDRADOT6MS5EMRqPvTlGxmxgatAg+EXhTyITXesnnLUEAEH23LxRblUUSUmgY1uIfhnktMEpEFj/gaogtf8/I16K/UhcUnctOM1UPYmHmeCo+47EEoGszrF3Cs5p6lh+96APRrLnmomCAXaF2J1NTBpcRjYFbY85z38c/dOaYRNuiK2HI0fa7URoYbNtSc7VkMHm9dwprR0PlfKamMdQEY3At5p3i+wBjfdzxyllI6ATcBRm+xsFg26usF4DRuJcLFN6DYcKLV7EiB37ov4WKAIkUmL6Ms3AlDPatqaI8VgAM5oyaGqJlhdV+a0lgzPfnC2shcSATRnMj9roPFT6YHkIZoJ+BwM4WHQQheJpRz0B8o35rkIYiIhi1zTlBLdzro8tMKNhPcLnxHtAfTMEYgDYYLTjTe6wAZF5VC8wsB8zrbJmKmgGef0XThJwh+A5jtMDloeKB0/zUDTiezYbis5aYBU2hBA2eLCPxXuUdWwQgBp37hApfEADYxhYC3QRXLQLaC/Kf+gGagz8r7l92eCwAuB2rJ+iRRDqYUh1b+M8mfefys3fhYIsARwS0oeVyQvO+vpchTBUQLAgPgiqJXrUBw2wZC0EI+Sw0ZPo0hqD8uB6TmTrIM0mdW7tCQAUuD4ZV+pXzP0DaDLy+t8QCHyz6jb1SuuFm630jFLQAA+Vx+yNRNsCmjV4V/IvtMdXWVP9SAiUDPFqj8ILTijytmHFBPfeuBN6TnqjFiFuDC1IROSrF6XvwWuB6YEgIDLTgPwC1L2TKtCSVML5SDJmE4cvZgoRBcsDkedzKrrQCw9TO5Qu3Ymu0Jcw3gfNHQPIIVIrs0rBwasDwAEayPg6D/gmvGSCgEXF4s4OWp+gbxofRXY07gDC0JkZfUj9CR/oEfUHBGX9Pw8qpAa5a4g04hmAQ7hft4z8b7p0bsJ2Uo+HwMG8ZE/7zayAS5ctxIRUwAOx/0JOnuwULCz4d3G3dvRnjyoe6u+tBY1wReuDDRCBesViCk7qDv5K3neakUYC5JgZHtcJH8Dmgl0t3bzS6ymCZrbokluJxI5ZkpoEYlfHeCTDX/bgD8NcXAJMnBL95PS0Iy4q7wD16lYsBGGz9X1v5z+S2gXsfuCr0BgE+CZHDuENoPOmnO4DHmEQ5E3QWyi146TKa3HM6O6NxZWBamwWgEB6BuQvJhXgK9OrMUbfFmAle8tnsMOoARxCMkK7/nS0GOs/ozUiExpU2pDQUAL9W3Knk38R3UJQcS2w2xpXIgEpAxkjYz/A1fQw0gw2z4BuAG6NF+rL+McaVe20XgOHjcUnKJZVhlOLvkkowKBxXErv7pw4gGZBKOAiMeJQiZGsF+nUpBVyWAO629kTYLgCsLdeKJyUBcBfIhT4p+Qzb1EH7FMzB7HcIXkIfBCIzS8ZE0AuMPlRET0fGuDLcfv57RqPxGTfWw26Jk8JmBKGPAnNO7opRx/wPEMALU6YvitS5hhLAZAR486gK/EEGp0kBARBbhmCclwJPWjDepGswpirGV/BDgLVTENpJ69fdiNAVbSd0xHhiYjBbnspIEgF1cU2ueyIxzsuTIGGRzDsCLQELjeD8Gl1ge4bWTlaoXzF/OLNoymCS7mZNEQHw1MYx5zNvhOgn5gznsZ7xdPErZxApgHvAWijuYtijU5oe941mu15INsRNsMZGWRVxp2DQ4Jfwr46Pq++iqiA4BDrm9UNDIBbgtxOAxyErfnqYoklzvNg0mIntV42dTIOJ+YJxs5I2fDuxgMkfwBiJ+yUGwFUduuIYTvMCYEzuFt3V1gkjuQYbjjCoG5lk1udJJpAQlMmEUOjVJpbze8ylj4PxohIsSCbMWt1q8xFMxNfQwBTjP5tHAJD+8feBsfhn/KeLc/4P+KkH4DlgsgWr+h0zkqYgdEy+JSvupbWiquTqBH/u8XyEBT0xUMFn3FOA5nCxjaatHSxY1CDG5K75MA1d0B2kmdXZTJUwVnJ1Rno8rZi7HsY87bjTzLMEb9AHwpTH0VbE5HieGelmV9UOTDLeTzSMYB0kuflQcNC7grcks5xmnTXA6zaMFGCJRzajC+CO91Frj9a1wVaGr1fHfYm1yR/nGcbs88pBh4D83FOBBPhd4sXGeitW9S6bQ/OLCOXmQahxG5Ki/GcDJnox2RPAXAIw6VVnck8JJtNnCsWLWEtCR5dkx9qonJqM+RD/o3EIq/CSSKmTJ5G90Yh/CZpHZeCeEuB2Dz+EloTnjevIDvZIUbeHSZdTdAuYhJeFK5Pak52562OOgKm5pwWBkPIKBX6SJVEZxgxmR3tGQcGQiJ43loaH1oRWk9iphg3HmNEcNwGn3tqf7UAEgGC+Y/A1qOcOVx6rEtjR8svHocJYNcHTUlwAPOXYmf7pKcUEfquAbWdwTw9+gedC3db3OtdPBg0Ew62UvWtGzXrKXAQL0IKZ6J5hU/DPqrh/YU1J/R056IOh8i6+kO4VlMRB4Xjppe1NItH1ypBLqVnUqsbMkzkBxjMxj6dzEsjYdFeV9L++nP7vJoMDOX8C2F31KQrlo/QuoDT6iMLn1JVMJIYxIay4jzaAYfKJvzdguzTsiaHnilwvfFkap9yn7XQ/OiVkgJcbRmiuZlE+6dZFhCMGZ5Z4u6DWqL8j/BckA0JUY5RYZKoj1tdLfV/6ojMo3RSnGasZa+m00R6S+MWaxZi6oiFHbBAG6E3EL8AshwSA3fcDmOhph4NX1j3699aCX3VS/omU85e3QD0657ifodyyJEJ3r4kHHZGeVTXhbfQdCzwTjKFPMckVYm3kErVaKrXa5DRrtaEo7MpuQHn0MY0PqoqTdaTG/aMdvD3xLrKe8ZHMIk1PqQVaYpTc2/4RQvw7OuO7uIH9y7J1HXNNeuRiy2v3TW6B5iNW5S0wgr0SLDNxM7bbLyQAU7uhVWaYVSlEPIUVrKfGL8g8qDMqIYumuBoY8ZdogqfM7Ib9wnk4GjblTEKEDy1a1HMD9EzHCs8k44gZKFydzWbIxX2h59GdAgQ8GI1uEU2tySecd7yu2ZRv9RgWnUENQJj/1eS1RLdmuh7eGdQBRmPSRGsCtKyuY2BKgXn+vu2AOiiiu1BrUd3sd3Cy09zVglJ0vidxG2hFoO5LfxidVfMWpc0Pr4v9JauLJlFnrIaOcSfb3tg55NqTm6/Ya5vaMq+vGH9IJVAAJoxRAy0wzIr41vCsHq/mOMuOohqQ9YTkJE7vVdBLjF761ZYWfwhChRYJwSb+YDswAvJnokqGm2N2UeMyC4Yqqu9gtCinNfsQdWSXt/O/s6nzKoElQ1Tez/5p2GLIYOnjzQg8yb7mDw4kcNvNZEfPaDZsoODmvOiXniUX9cXVapwyLoIvqSluJ+Qf+H2N8MeYnrlj7jsqjVOh/VhVzveBRqCMJZzJvM0Cc4BF2Z4URtTuoOdHMbC1uTloQhs1luoE+jVtcIipugCJmfKhOrSaKdOwdCyjBzzPV4T+u0b73KYYiDaqE2ktj/YHIbi+M0/NfqDbK2MfacZTuBSrAIplrIFOdm6kddU72pE2ChFkfc6fjyn1c+ap2Y94uPA4ifEz8xvfhOUQRNAR69SPvdLy5V7rJ6l+EDYYGF0Pelu/oJBp5KTDvNUGzKG8Eytq6l5OL9LuZ0eoL9syZpDK5GJv2cr/qTbEegKjluyOMlYrxsNmeykqg4oYfAW0EjhPFZCnI7QdFmOxrRdElYTD3cw8Y+suc/E/QIO8xBShFMNMWJH+WJHO0KJGCT6rIyNkm64WnMCi52f5d5nAsPKG9pF1YzQb7jVh41tJxaE7zRh3gl1rJ6dZqw1rYEnaoLamqZGI3QHjWOpF5OOFBrzONm2adIaexsRq4SZYdjUtRk1mpFPUTLr0I8PX+dHdKP21TrNWI8A2kA2kP1P7WhIIAmgtzi7f9CrbdKE3R0gf1q9MU4QJY9iJ47RnxP2dX89y6ij6x6ejarBFaGPxkwYSvoDXYc6YtYXLoOrYLcIolvT4TvJNBTY4N/vyFYnMS2SKfQKAPC4u3KkEXfj3CxlHsNhJRXpdvth91erHb7H3BCdezJbWgvMTlIFJY7AObpDeJS3PMjXVMPmmny9imuaBMExRjHe2bQED0sIgCdKXT9l3FN5yoP++Ez05bsD+NSM3vnwxZ81sfal2YpowwAQTct3IdbgjKA6TLoMs7KIzmdx9dgMdr2Bgvpq9gZvAXADPRk+NBmqjGgU6BY4zQiCodxfBSubHHc/nTvNVM4LR+Ik5COhzFDxclCVbXr5pLdb+Iv4CW406yUZ2CQDGtjdiBNdpn3AhDzFfPD8KKIyZsk8yflJ6FDF3Bae6hvJNLw1hm5YU1IdCXVO7BACDE36mu3fA26KAweMZl4c+h5xmq3bEYmxGxjYsv3Zt/HDBNY+CSUHf9WzT5aIW/6OVCXblj0KLhal6Ow8TPMJjNDvMtPCrrGJoGXSP2fu+rXVFYkayJMfJ8i1urmB3vUzcdCdUWxG5TArP0iH26Oyadp74GmMCm+6+1iTOjxCIezBGdMO6aVyTeSzF43LJB1pP/kUweG4JI1C0J7Ere8BROkRVXR3vVpZwJx6cg21U2Wme6gP6A0Ywx5dH2hZFoAD4WfqdOi31UZGmfbzUUQO19C957AHsQ/UcAnYclLosWC9wfL7uX7ECOC4bTH4vU1Nby6rMZRUAhySYOnzbASnjywTJ/Rfmb8prkwCAV9plrX2y9/6Gk8J8gca6q794CBM8g9N/FWv2aIggfYG91sv4QFCf76sNK6KlB5bWN+eGFnblEISEWc9paR8XMmqB9O869qpgFyPcEPkDMBxmXkbBoZ5I5KUwhlQ0E2iqa9tP5JjPyaUI3YxNsquObwygxK2q6pge2r2A7LFuUllh6xpOc9MAiqFXww2mSk0X103gVkGTUo35rX0xRbMfaWORRMae1oIY9lLoimOcqNxPzgQ14OTt+qfDFJ7hW1Gm+4ZOM9MQIH60J4IJmND8fcWVzCfwquJvEO52PqqyEwqWefWyJwr9V1KaINTURv9R4sjzee+2evIyaN0q7exs27o3eK7AwGoq9iErd4sMXjo7zUpjGIwLXYb53Z5QivgdIQgLujN5Qc5VUd0HD5BJDSBYQJv8Re+rTU8Tfhcfkxv4RWwACVTCp2jPVClE/I7byVLpEJHE/hXq4xWTebHcYncM8fbwn00JYRALJVTlanaOvovmqHEZfpOpKy6rEha4AK15otXpc1ndAWTRKJmN12GBnnCRTQJwQ3WKarhZXrwqAT86zUYT6IhP8hb7Bq8nY9opeF0PfmJl3lrd2n7lr3J7+xzCoALjbRKAdSZXa/BPEWKikc+apOosmKTd9dm6/pL2uT+x37uiT/Shiaqv/9w5ZS39RPznDtkkAC+aWqrj3aVeYGcMu8T7Bqrjpz5CYO3yjMROsAL7qo9OCixxVXmQpvV3eGSRo4eovV1vABO5f7q0+ECSZL8w4zR9A1fxcfoKfoxNRTrZfwXdCz4p7KSw+y9afItiPPC1Eq6aE2wSgJucMTTvNVfaZzHiE3/d/lNEo3mg576AlYtYte094Us0ObzcXzK0w4pXXKViXdBA6sx9xx7+x+kKYMVj5bg35Bzn0/iDN7gq6jAfZ5FGozhYjtwXhlX5PvnALhUa8ObfFT5XdTS6J/1VXmmPAEzVvTZdjjbcIWvkEPBCF90EfRKsHY9opxyd61wSI2Nu7RJWVU22AIgUnAADp6x7U1PEzbaDpWdU1B4ByKFnVXoMaT+zjdLrq816PeR8GcFMgLAAiVPN4PnLpzcW73aueMNAsy6x88ZqDPnVaZzcjGzSA2Da2Cxl364xUCqm3Z71z1Z+758yarcRfbb6fT5xirPMZj9Ra6inPbxd/3CmeNd1TdzYXkN+BVPZIwAYxa1tUknrkHLlX6iYjIL/fFlq83Ztwavjsu7nniZUYZ4u6rSmThOoQaQgQOK+79SWMeir+UrXBl3sEQDMlviBGUKrMnFPGXqzEvC9hi49Q2gHkUNUxl4t5c9+MRf+rKZMe4A9AoDpX8YYJ/POs/5/9hMinjXSCmiv2uMOnh6fl2pRfWfvW6JlrnXhvSrqqpMEewSgFx1hgOFgKDmMuxH7MvZsZx/zB5UtTgbWbFNWx3r29KcHRv1U+DEm7v66wMDq8jdGHWBTHW2PAIARwwljFIIe9vKHSIBGUEyg6sqmaOK4T3DKW2I2TPLZ3zxwJoi1RwDAItBQvuJ7vf3G99MARgrOvGOqyDaN/Ut0Ph62SMdQIgRWfix+MF6wLfyPgB/vp7p7jzmyrLn+J/Mn/C00w3koI+9rpG52su3RNxriVJKZCGbdsSVmLPqGX9XVM/Hc0CH+ZvRvANOFyx7VUsKq/8pEad1oX6N68UnlkyUP/QJs8Q3EGH7aXYNrvbL1madE5asKscNmUL9eTOrUAVXayqvGhxpZpwFXef96dNyMsEMA/oEBNOXJixpW8PIv/4FfPsUcCWPM0bdmNDq1Jyys2ZrGW+8rh28680j3iI+oPxEqE2xJJocGYWrZCV57d8vfuaP1Po3/41OTgVp3LNMzWnAHyF7BeFbYEjUcBgimfqzZQ9M+yVvTanVo6NJhZdOV7zyowK46hu6Nnwp0NBsz/p3LRTUOlVCAydLMGCXb4hcAtuyTSOEojbP9z6COrtQtQRLfhEuF+6vLQODRnMIYAOhcbUukQEiOcJwUDlSd6n8NRdtqX9K8p+48kCqPKfPxi3VkVWbBTXPNlDAQxvAttuSQgvguv5PCp1m1YxCxy7W+gLM+/qWPny1X22fYka07O9QlGQnimy0ucvrv52a+K+NzhHZlduSNWA30qUNMRu0L89/B4gtaFnR4gaTGGdS+GUGt7oaGhhZSlSq0LLbDOfQB0D/CF0Y6vda+ieAaqhwIOMIHxOm5Ta2tNqB/VVfz5ERIB/SJe1crp5faVxE2VPkXWxZiegVetSTA+3kY3sRtvSwwtS+JUdrN6YX2XTR7TjZKQ2R5gUVMU21WYMrAA9lr5smJANau0RF84TGnl9mXET8/ncRxLCDby2KLjuBGoTpYIY2KQM+OCCGQJbM6KZzm9CL7OAZ80XAsfI+j2nw4TiblSkL6Tvp5wuA9oFbIJC0pQKinJqTwsNMr7A/IkKlXi7/Sp9/0enVFa5jATcOM8IUEl/sBaN21QQBAcqkaYJXTi/t0oWlFnR/vtG/vI7Y56JPUVx8ZLagF5GmYorVOL9nThoRXW2rOAZ136KlgyA7xIZDZrpWGdrQB8jQEVjm9D+hCHfkv/6P6Ch9e7oA3LuAVvgizrZyxXgDaAvl+pPQ3pxfracWeDhsmlpEO+dw65Ej6NfSqnVzMzYTu5s8UIrQE8jRZwmTNT+TCAIrmHrJpXZace98tW7bs3jc6j1qeuXFVoT8e8QPECE42hIrFkPg0qvFQp5fIRSxviYhvYxuihYPR8Qha+onTj++C420CZ0HZNEM8VgT4nSykpX87/fQuiNZvLJTpskrRBohEd5qWdtQ9XRdWg48MXgrKrM8X0Bqot6DFU5x+ehccr0LGBJY5DDFZCRiMPAst9rsY/08h+F87quUPG2KyEtAaAOIVP+XeXn4B/lDeCcreMcRkJeBVE3Vta61zri5sAM+Ou1BmKn6HJOYAdXq/mcbph3fBcW95mYFB3EIsFwDY7kMQunO6Z+vCcvD2eX2g7IEhJivhZ0r8D1pa0+mHd0H9NIOgbIchJisgCHZ7B2lxQacf3gXHzeK5ATw6Z7UA9IUBt9Ji/8z085ThTZ4bYLJz32oBQC0TZDg/4PTDu+C4uTw3IMZITasFoDwM+BYtPuj0w7vguMk8NyB4YHcDPFYEep1AzqchumfrwnKQaC3gvVvQagHYSGmngkg4TfVP14XVeI/nBqQY722EyUoAT5b8UNxT/3RdWA0+6aRnAS27aLUAQFqaZbTUdQ31BbzMs+N1WlbfCJMVkA/Ga0+LXb8gX0Aunh2NaVkNiwXgHRgvNS0eq3euLmwAyVQO5lmPLBaAvTBeOlr8k+7JurAeHXh2QJSoZywWgNQwXggtruT0s7t4jDU8OyBESF2LBUD6Mtjzu9PP7uIxevDsAMW81ZkjX6WkMSGVnyf9fEoQG+FlB/juBFocLBiUjN9A8Ur9s3VhPXiz4IlQZm2MmEQI+NuYFq/WPVUXdmCVlx/9oGy2IUbLYTZQ/osWX3f6yV0kYa8EPz4zxGg5oGfwEVpcXu9MXdgC3lt/KZTtNcRoOfQGynAZPMPpJ3eRBD5s5xgos/Y6EPPFQfwpLdnxXNiPel5+BMFWraGlAgARoTEvtRsn2DcwkmcI+G/+aqkAwF3gCloa+Z9KBuLDKMZzBEy39Wf1UkBXGOxvWvxA90xd2IIJPEeO07KOVgoAun+MosW7nX5wF8kI5kMNQ8qhIlYKwBEYbBYtLuD0g7vwgo8JVoIW7bFSADAODEQfuuL0c7vw4pyXIx/TomBLApB7cZTSTUXzot19KpNA+yVue1nyBpRZGCguCFIYnaLFboQ4nwFvF4wWWs9bJwA5gCxEh2nk9GO74DFHglMTrRMA/Kn/QEoD7jj92C54dPTy5B6UWWgYjorgsqTUjRPuOyDhguFHWcA6AQCHE0hF8q/TT+2CoDm/NYdgjlUt43++eEr1BC0+rn+eLuwCHymuPy1qZpkAoDHATlJ67z+YGdp3UdjLFbygtyxzHKiXuAqk1I0T70uY4eUK7tdXGWO3GCeAKA1A6R4CfQnfernyPJTttoj/eLY8RPSAUW7KWF8Cr/nPDmW/G2S4EM8BzXqktJ/OGbqwF3ySqLO0aLBFAoAxIKhb4E6nn9gFg4+8fFkGZdYkjkJ9TwLJSh/hqgF9C7zaB0P5vGeQ5Sw+BYrEDdVz3+kHdsHirJcxF6AsvxX8X43hwEk8Mk8Npx/YhQBeT6DEVFBmRbxY1Cz0JAnRY/bonZ8Lm9HSyxrcBKQ3z/+7I4AeDTsyS+/0XNgN3jQczfeam08gmxnHoAGIl+mcnQvbkdA6mTWtEqCwsln+r0LLf2oM1Nd1CPA9fOdlznwo69LNGN95DF+MI9B8sVmcflgXYvT3MoeJ4G9yF8B8ANaQAKGJbqYoH0RRrxlwAATz4AI3G+X9E+RkBrhNyis4/awupMB7bLyAhUNM8L8286X/H7kHShzs9KO6kAIfLvAeE7/XeNjwdwcgneBSMi8GF76CAfe8DDqPpSuNHgVvd2GobyQVidX0zMpFyoGP3ZKPSTD/apwh/r8dy9AeT8NC3HD6OV3IgHzvtzDFHxtg/5gqAtr0CHgslfYZuUhRxPJ+mxH5sTj4O9387ydU9c+hdY2dfkwXsiAB3N5lipvf0sf+NP2FhJtEkMq2mmfjIsXRLIpn006mvPlvOtifdp7I3rsa3QDUcneAvgzeLsjTmj2qx6bWuBMM2PYoQUS1RxraoIDTj+hCCZkIo9aym3huZFp17gdd/2u/BNEwSET9ndNP6EIZ9MJWGMm/aM4YRe5Htm3RQ5LkpMO00XY3OLSPYxx9mXcQ1l07kijH/b4zx8kd7upASJiYZ5x+PhcqiP2ccGuqeLs2vnKIBPMLt/9ZnmDHe9C0PefC1zGfsmvpeIn6PZt2X+CNBFodLpzlUR4laoGDMO1AS86F7wOihD9YJNMmoceJa9cyNFeldfM6vioeuu7A/oA1sNd715T/XvTyfMj/HW6SUP8AZPXzPOhhnM7Ad5itwjD3AOAnSDUN2Jb3hEEqU17xuPz3U/wRAYyrddAIiYHbBJrDUi7//QgbGN6VX6Sz+8oaw4RHxckJOmm4cBLB7N1PofSx2vvG7it4Scj+uPNOP5ELfUglcAosc1Rbv/hdqSWuDLqNdPp5XOhFs6UCJm4uEK/WZ3yVifc8Eng4yemncaEfN0XBIVZXeF3en+vspt2fS18YD5/uhgT3S1Q7I2bm1H7h+0TanAlH183s5JFBXNazRgZ34QPYf1iap2NW/ZazYv056dOHh/9bYVa2Qh4FvNPE6adwYRw9y3rM4fNNOk4PLnwP0R8b8whIxuEqLvv9Ht8aTSGe+OYQd+/3NKDHRCMvgZdmuBGAnhoczaGT+0uz5HZ6zi6sRHCvDzQzP1/Z8CLuq/+pQ2zxtgHqzB/97oxTbuSfpxV5/vpMSQayl3uuwwjzo7jwZUw42PlBhJj3td6t+MgN+PFfQfPc4zZ0/udWSI7Q0M9DLvzWeXnxOu5h34U5BOYpViRTkSkabIxFiJ90rciKItcOpaS18cr8Q8bV+zVLxYq7CxYs2K7i1Z3f1nF3PkYRuGBQzZPECHnM2na5ftF6hsjY8Ua5afwXKXF2zYtHB6j2SQjzwpit8/oDH5ad1kdiBzR6c8vvw5xeSz/EioISWamW5OyganjAhU3/TOynGPnKQRUZ2MQ3/dLQfBVd5BPbNlKftwvAq9fl1vLYOuUDxTe/yeU1b/WDou2JnQLwGGfauyKgGYNnKS3lbYWe39RUUk5Hbmkm39VmAfB4PndvvzVi/j3Fhcws23HEezEqTHitimxn2wXAE1TJ1YNqwQblG6ZEWR+CBaHqTPDclnNBs18APJ7ujvk/7q/XXa/9vlN4TmURy8l1nJ6ohQeelxZLd7dOAC69X7Zf4Z8aVPhnW7Z8gsELO6EYKTq/5ZOEL37ifJOZeWm+n/rlT789Pf/TGSVz8LGE/5buF5uTXeoz/4QXb/K/hSs6tD8iuLGcWlWSgFUCMHQwvOhjm/7dLwIHH5XiC/rnOe930T8EIH8UXazQGnh+Xvlt7yeRB6KKSvaLfQOXeUxDTEnP1al0F2tbr5eiYJUAzBPWHNowlY4dp9GHwjoc44f2CwGIpT4no9uLPpiBHWvG1ZTsF4z87/qyKCBN8zmvYYP/SZCwTQA4LgxCaqcxoNM0Bf8SAJqPdonkz5QrtkKy+F9gb1ZJp/VmGNf8pEReShsF4PF7mG5sp6fwkvqXALxENlK/6On2iK5v4jy5RpfhjPiKeDNmqwBwV+nmJIX3gX4lAE3IMmXW060OdTjNpxBpbCTsLzaIau0VAO5LMnQK7wL8SgA685M9rOdnEkuTTUQqrm6vCNpQdBi0WQCukbFTOCOOXwnAbH6y6fX0orHG48Ypt4QkV6LsxDYLAI2zmyZl1pKHPwlARv5THpdHR68JtQhX31NrO5FKwLeCKrsF4HUysonISgbgTwJQhJ/rGD29XiAru1lV05qRujWvElTZLQAJxFggZS+F/EkAOvJzfUlHp7NkYQP+UG/9rOwrwG4B4MrwLXamwFJS+JMA8InJPCd1dKIvgJJamt8nzb9iK2wXAKKIOCBLZM++AjXCwy/XO5pB873hiD9enB7+Z4vvh8i5W+kTgAHfNKoRfmDn/LqGDqsTvqi3ofJ8GYON5sW+T/9J+Jy/O8ibZZBY1Je0j9l8Nd8pQlOyieNEAAJYc2XbBaAB32KrZPWk9rVp4gzPvXJ/anic3Bffp8qNvjVfxq3T8SrJIOuTuQpAUqGe4eoFcqFW69Z0ooh/1duJsWyL9xaSffeIOSHJ9zVFJEhnajiMeg6MeXOTtEL/NGkic2MnAcI3z0xtHdaSDl9LE7JLAHrzLWaI62KfXUsSZ/KIu35Q2aC0w1vCLkGffUq61PYooa6Y3IKvBFMYndP7VuEjAjG5ogbwrbx/1yOuwiIBSLgsiiZRq6LUG+sEqZd/SwpBX+kadgBPQL4zns+ZctsFoKD8wz2a5pFEp0byA+YpJ9ll2gJvvU4BuPaVRKt8JZLq+DAf7CvT++6JS/pa9aSKLpEA/H5SagbDS4i/MtFEo/e5VsuJlRF8lw809oinL1rmJWu7ANTkWwi1nDcVsm49lHOreWa1TA/+slufAJToI93u9pMPOs8W9gaFP30/yQC6B5NIswLQo5/cHMqKjaVp1BGtuQPoF2CDxh7ch6TL5RQVAJJrYRdbXqW1EqfGdJAk9m2UTPsz/PZRjwB0ySrb8N0RXCCvnmHjefLvhcdszMiYXDACMEUhStA00TanBKnrI221IQKd+UKtrHqVdKmdkgKwkmyC2B/1DI8yAlpIEFvTR675UL6JDgHIeEGhZdvgld7/jWbnwOf6msQFs2OhAIzMp0Dak+aQ4LnGU7meOkXTupPUxXk1syqefGi2p6QAkL3Ha0zxe7ggkRfabUjffsZEJg5j3GURrS6QaK1v1q1zKmepUNa70uQWVbsADPiMqUp86dbDMqF0Q3h1MM8SdhL8W/8mt5OlDQKwL5KUji7XfsG1sGpTCpQE04wdwiDBu2ExtFwITiLNy2vnFT0HoFLWbgEgpu6zsDQcFm7YJmLIUncL/MSDeglpnSd1m7/gX/nRmW483t0sJW2mF0wG+QmWLwiAsziT+rX120OS/RcmPNrrlYHR/Om8GzsJ3nWjadFuHgZUAH4m9t0RqemuPyEX/SykFjzZHrQIT1ddddl7kcbzVNsSUOuRjiknAHXJTwpf6d9TQ4ZCrMX6JNg7DRd83oqSXUN5xr4o/vfQf0UDqyqC/qIDJX6M5/Mr3pj+/PmuL9uP/x2t2er9T8yFT3qdyn1qE2F1lzY84dLMCZJbSR4uSGj30wJFqc95Ne0V/SnoMCChuc9KQKm9AhA8liwyvHb2U/e366IrIrAi2sEeisil5kOhoiBBvLFWE4Dc1JMq7xTBpOcwfhYC/Sx/AN+XHAA6YGYGIWlyu/++0BY/cC5fVUao8/wIh/TUuiHcJrAgdOJ0JB3/mZAfCqX2CkBlMmZWKH1ISm9JeC7+SNfhL6ZiG//zqaNhYioCELyKDLJZvNbfo6m94B6bz/mRrEB4bZ+o8xR+2ztbnF8s/hxPVXgrm3Dfw2B0dzFlCmIKsp3Tjmgi15ip1FYBGEeGDAKD1OLkKXNIuiR/TOpbT0Ce8Sfwc1ompiIA/ckYZ6R0c2BB4SnNVoHqx+MJldBX8JuEPlJ63RMR3trnhTUD3vQIcLiG7M+bPN11Pcxawvf6DArtFAAwR4TNaiCxf4lsKkkzOhvp9gIU5+ELd2uZmLIABJLEnYnSmlSwpT3M1qCC557EAxADiOWShEt6a+OuCGuCbwglwHMv9TVJIsFkYWtzOhDC93ofCu0TgGrg61oI3FMbk9KtMkTXk23APfgNrJGSClkoCwCdw0Xp7pPoQV6ga61Jn8ojpbLm9ZvvSN9oVAuQH7gKXIt5ETT3pgSREaRel6EdUTjOhkK7BCB/BVDaxZyGmnf50iWyoQvoYR6M5IjdTFZOA5QFgHxwC8m9ZRuSKTxgK9LRx7ol0W8xL7wbZQjz2oc2EnV3yosdRBNbivcoE0jtD3qY1ZbvhTsHqwSg+0j6OTzxe7s2+AxxaOtYjTzjn7JU85PD4wVayCtmPNm1hJ9RFIA9hL6sJr0aaTKMrYBPtdTXI4u3rq9cXIQ/+d6S9n8DS3lEuCdyC8xA6oZyOnCb/PSg0ELv4Hyhn4eszVa6kFBfH8DYui4nxQqhc4mSLoZuA5uTrbmWGxNFAZjOV46Wj2JDpiAQAKo/CpHqxrt4yH6npvDd50vXD3leLAK1BeeJOqSmoR5mkW8ynmztdw+/9KL0wt5SILuO9N5EC8nt4aWB6hNTFAD+QOnZK09gqIwA/EOmJiWH1flKWQvIEfyrZZBci/U/DReu4V32FqsaqdC0H+JBjt94sLFdAB6w290E8n5ooUD2LHkBt6OFVKnQp4bqxJQEILgVX5lLnsDfqgIgdYaZ561rLf+Z4g10FUK+ZJwnSFDmmXoK63uQ8rf1MIv89uw4Bcig6yeCb+EKUqWYfpVk2M0GywK2ABfU7GCUBGAhIaNgfzZfTQCySxkwVvBWKpzP+UebzSlhxUfslzRfJqjMSIon62EWOX+/AoW2CsBrF0XLf5mvq6VoAErcnu9B4ctAOm7tOMW9oJIAkGeeqkCAnOflBGCsVK9h3so3wmSxw9tEzQlgz9uMCHTbT6tiyUZ6mx5mkbuUN6QWw3IBGD12o4RPOLkHLqVI9wAhA/r0YNYcbHt9heBXSgJAXFY/k+/PHVUTAEl91CWPZkSoLu7+idj+PvxiyEXkZh28WkRIVYRSqwSAjVN16Xq776UjT5KjSE5FutR8pRiUhgminkSVXy9HQEkAiJliOoUZqAqA1Cbujnb+ezwa7nG+xZSjv9Ny4mxRS0cArj8IJVTaWKYIWrxsXnj4xxU/Dv91477q8m9nEglR+QDzC5kscydyZ5VwFdeekiagJABEm6vkUqEqAC9LdPpGjwDc4dQxvgxtH0pXlZ5F1W0HCGgYIlxT220CBSBmlMrGjDfJZFnjwIwzhcsYV1tSo6IkAEQlqnSIUhWAHyU6DdEjAJpyh4+gV6eeZ0kpvS8rrp1X7UgnvGNLaQEgluA1FJvdIZMV2gWNEynMWx2UIKAkANn4OglXBQJDAtBRB/9Hc5qwktrB0S8WNfLXoQokSW5CsTSlBYAYy89RbDaePOHrwqqMg2oJ17K3+EuoJADD+Lp/OXkYEoBnPdpxTOOK/UG2/PnIkZrqgndoZlVPYp7LXKaktAAQK/Gtis2qkyfMJK5sNuOYYDFnirwtlASA6NuV1CiGBGAZX9kvXBU7ta4xvYCeQsrI1X7MeK1kGhEyTLymlBYA8uvrrdiM7ljzS1XHLivHZuupJGyhJAC8UY/nI4UZGBIA0inc0GpKowN5SmowTI/fmoOKFCZdGCuWlBYATYvPcd+T2crFuN2fBQPrBwgNqJQEoDxfN5aTxy4jArCer/zY0GpKYwQxX6RunQfJk6/VSGURUVG8w5SntACQyKbKxky8ya2SvmzRIDAiLyOoVBKArwlxhVM0saHVIwCH+MruhlZTBuRioCUp6kmuRuM0ugYRFazg45vSArCB7zBc0RWfmISsUmp1MxuVAMFmUUkAaFjGa/K0iaG2HgEI5rW3DzgLQRxYJ0uUeRpoohFMdGhBrBlzSgvASDLxIgqtYonTtbIBYPO9hNwRtkZJAK6QTgflSateB0sJALnpGa2erEc7yJBgAEbPG300RZaiTgEP2YqUFoCV5KK3kkIrugfsr0yuC1EsnWErFK+Dye5BwR6ARCHQJQC8zadniKHllAbZN0E0sEB6EPpJA4lAcvryvMrWpLQAcORVlEOh0Q98o7izKuRoFDLWdE7RIIRoUhNlD1GLyFWcLgHg7QHgc20exL4Otc/kW+qJmaJOoj1pLfw4pbgAjCJTOSXbpgu5+S+jSo9clxRjijtJy0Uy6CZANiQHtUnSJQD7ea3Nauu+ASPIXvcLKM1IXRPbqCqVB1Mbo46CqhQXAGIT5yks24bY7Hkqq9Ijx1s2WiqxKJGy+chI1uOuTGineKqA1SUA1Pb+MmcVyJE4jnlf1SAzFPmaip6GOsJ/JaxLcQGgrAmSu8vNSPRcow+pkiOe1aeZ4nN8sWScdXIhLHcpWZ+urj4B+JWvXiIdEMoAyEaXdVGJpp91z6fKFEigLk8fkT9KygtALjKbVTIRcVKTFjnVyRGtDmskRiz/Je3z6xI9YoykC14x0DDoE4Aw0rOgoQUVg2gXBeG9uPXUBiOqoxIFGrOd8QtORsoLwIC+ck/EPzE5KETcVCeXjW/MXq8T3y7p3RgNsfKahG3iJBpZVa8AcC1Jx3qGVlSInqXJG1PobEidxD1Ry+QpbKXN2oo1XykvAFwBMp+gFyWqr9BUMxqMnon9sOAYWImnESqpcKpGbbeWFBNW1oFIJLoF4BBxKotRCHbGYvIg2dxmI2hQvDeFdfHgQhDwl4xWc8Rc2qi0xGfJAQGIJT9az2hxnPOm9AVxjDWaqi7lbHNE5o1LFSXSORM/ocvSpwYrIwch2ZF+AYDoR0GVtAUebT7cs/pX6S3DCbpWEeIgh3cwzl45ychqx8GKrq/UC9UBAeDqUM/LgBmCNepFr3giBFkw0k0Ti8s8clku8MSgwReX7OckEFgW1u59muM4tqN3x0zcUPQKQPQOSvj6/ySbrGCdvZK0o5HdO4gM6Rb9CXsRqe1qHcwJdWmQyM+pzmSIglnoigQFRwQAPgIeTzZUB+yfCN6RgjN6qseLMXs5Ywg84AWymdsheAMG08/4SXJAxE3neMamoOt3v36RqUiHXCXPeAsOE/M+vQLA1YFryri9rwokPP6ZLKUFcR34Tfrdkgfh0NqlSQO0fFklmXZrIZMYLl+DgSBEixrNwiCoS6U3VEQAthdUgtzTGhMAJtuV5/kWybGbMs7vjpE52gn6JJtBjS5b6XjyzzW+yEUadSlI5Ir1A5CanfO5ramP3GrFnBSvCII8MRjzM/EeEcSjUBcAbgiTy7NVufod1mRYGVa9aZFly3OuTX77MbacuOVsdb176q/Dz3fOuiOCmVBfGY3/zbzsxFdva5h53OmRjdblvM6mE384QZrAJo8m/GatAAS3Y8m/Nqzs9U5szN4GwXJDeWJCy5Q9NzsSW4tVIXWCxE/xiGlR95hHDrUyUfehd3ULADc/yqMCPJxqMSWWfn0/QVg5Dd09UX/K3Xw7IwAc95xyquSAX4UduijFXuwnYYdeQdxM4I64J5sMubTFwH/sFbaTFgHgjnb1KAMDO2z1qOIdBR+24KujVfs/lPfDc0oAuPmtFIY7tkvUXsnesrCUMrznUlE7YdSW6EqSiZdvPwldRgRAkLNTkwBwg7MpryfmBinoUUFcBWUfkp/fVe5fapdCZ8cEgMuQTm6wiAYSx2L57OpRy6Vfb4v7CltmEbW51l30pdjcOKkmN/+3IBanNgHgoisrCbgnDjfs495XXPvNqlfLwS+2ke0dUGGKYl/nBIDjTn8mNVREd+kwcP/7LUiqeVBhWbOewTsEbaWsgKuN6gQtanX/1itNp/iiimx7jQLAcc0uTvXIYGo7wfHw6EeyH7jrj7R4fwWPWxsk3T9mbo38ShScFACOq3pE+DvJ8Zx8apU8c8rGCJr3fUEpaGDgnO1Ma5mIOot3Dr1d9sHa2j+V2EcvcUkaD8F3Q7MAPD64/t1P/HkOKJOliYRGa0TxD3MIH84T9/6ouqqj8Kg+aFWARxpT+/1VVe7K2KQAmEbzIV9/1SkieZohk39Uy5mycteB8mU6jXncIfLM9Z/a51YjH7jg31J5H/+68qW9Xr59U7XWCBIK+nc9vYTo8kz9rOcKJf28W5/ccfviwSkKn/Mup2oUfLd01yc/5Vbbr383aJneTHt3vh9Vs5NMRPXI5y92bKaTXoohOqz6tUM6gp6yKh116HChJSA3LUUMdBZBkx8gma6+pxNiRPUVP86SPogeqz1jpGZPkv84+JhqQboE02ewaNNtuVgF2/dWumZ+gKcdsbyWXU8uP99Cl2fn3pORAV0fw/8myCHgH6dnYgaB+96WUnjriSvyX8UW7Zt930bg0ZZ3hQJw1elJ+T5SkeOp9lyOPovgTA3fRzVanLsFUMXX/GJpTcvn6xhfpSD5GKwyT+5pRx2yg17n9FSsQ2Cmf3ckqQt/NU/rKUcqopy/NME8NV9Cs9/nvha03zydpwHNZH0OUtHATFb6+fsIYt0zYDIOXBolnU5mcQjhf6swnURd+A+uezz3Cu4TaYlT1QcNmql7ABc+Da9DQegP/cE+L9XrP+Ad7kfGybvwdVD3X0+3sTNvhId//fbcYeyF7NouTk/ShX2QSMwhwGcZzY/iwldxKECN/3Pd3//TjKOJyuzvao1rpwufRZ03Fd4BiT+5ZhNPP67dkPEM6faepsBbLvwewetnPCzEMj/og3anteQldPHUYMLR9hc7fzSrbLnCH36d69Qi8wRduHDhwoULFy5cuHDhwoULFy6eGvwfYJtHYgdvRCkAAAAASUVORK5CYII=;" vertex="1" parent="1">
          <mxGeometry x="157" y="490" width="142" height="142" as="geometry" />
        </mxCell>
        <mxCell id="z3O-kE5tGYuGeqdBjOB8-76" style="edgeStyle=orthogonalEdgeStyle;rounded=0;orthogonalLoop=1;jettySize=auto;html=1;entryX=0.5;entryY=1;entryDx=0;entryDy=0;fillColor=#d80073;strokeColor=#A50040;strokeWidth=3;" edge="1" parent="1" source="z3O-kE5tGYuGeqdBjOB8-65" target="z3O-kE5tGYuGeqdBjOB8-33">
          <mxGeometry relative="1" as="geometry">
            <Array as="points">
              <mxPoint x="620" y="573" />
            </Array>
          </mxGeometry>
        </mxCell>
        <mxCell id="z3O-kE5tGYuGeqdBjOB8-77" value="3" style="edgeLabel;html=1;align=center;verticalAlign=middle;resizable=0;points=[];" vertex="1" connectable="0" parent="z3O-kE5tGYuGeqdBjOB8-76">
          <mxGeometry x="-0.186" y="-1" relative="1" as="geometry">
            <mxPoint as="offset" />
          </mxGeometry>
        </mxCell>
        <mxCell id="z3O-kE5tGYuGeqdBjOB8-65" value="&lt;font style=&quot;font-size: 18px;&quot;&gt;Videos on disk&lt;/font&gt;" style="image;aspect=fixed;perimeter=ellipsePerimeter;html=1;align=center;shadow=0;dashed=0;spacingTop=3;image=img/lib/active_directory/hard_disk.svg;" vertex="1" parent="1">
          <mxGeometry x="550" y="560" width="50" height="27" as="geometry" />
        </mxCell>
        <mxCell id="z3O-kE5tGYuGeqdBjOB8-85" style="edgeStyle=orthogonalEdgeStyle;rounded=0;orthogonalLoop=1;jettySize=auto;html=1;fillColor=#60a917;strokeColor=#2D7600;strokeWidth=3;" edge="1" parent="1">
          <mxGeometry relative="1" as="geometry">
            <mxPoint x="681" y="180" as="targetPoint" />
            <mxPoint x="674.9999994989985" y="673.5027027027027" as="sourcePoint" />
            <Array as="points">
              <mxPoint x="680" y="674" />
              <mxPoint x="680" y="421" />
              <mxPoint x="681" y="421" />
            </Array>
          </mxGeometry>
        </mxCell>
        <mxCell id="z3O-kE5tGYuGeqdBjOB8-87" value="3" style="edgeLabel;html=1;align=center;verticalAlign=middle;resizable=0;points=[];" vertex="1" connectable="0" parent="z3O-kE5tGYuGeqdBjOB8-85">
          <mxGeometry x="-0.2001" y="1" relative="1" as="geometry">
            <mxPoint as="offset" />
          </mxGeometry>
        </mxCell>
        <mxCell id="z3O-kE5tGYuGeqdBjOB8-66" value="&lt;font style=&quot;font-size: 18px;&quot;&gt;Subtitle files on disk&lt;/font&gt;" style="image;aspect=fixed;perimeter=ellipsePerimeter;html=1;align=center;shadow=0;dashed=0;spacingTop=3;image=img/lib/active_directory/hard_disk.svg;" vertex="1" parent="1">
          <mxGeometry x="625" y="660" width="50" height="27" as="geometry" />
        </mxCell>
      </root>
    </mxGraphModel>
  </diagram>
</mxfile>
